<?xml version="1.0" encoding="utf-8" standalone="no"?>
<!DOCTYPE svg PUBLIC "-//W3C//DTD SVG 1.1//EN"
  "http://www.w3.org/Graphics/SVG/1.1/DTD/svg11.dtd">
<!-- Created with matplotlib (https://matplotlib.org/) -->
<svg height="337.074375pt" version="1.1" viewBox="0 0 620.114062 337.074375" width="620.114062pt" xmlns="http://www.w3.org/2000/svg" xmlns:xlink="http://www.w3.org/1999/xlink">
 <defs>
  <style type="text/css">
*{stroke-linecap:butt;stroke-linejoin:round;}
  </style>
 </defs>
 <g id="figure_1">
  <g id="patch_1">
   <path d="M 0 337.074375 
L 620.114062 337.074375 
L 620.114062 0 
L 0 0 
z
" style="fill:#ffffff;"/>
  </g>
  <g id="axes_1">
   <g id="patch_2">
    <path d="M 43.78125 137.818125 
L 601.78125 137.818125 
L 601.78125 22.318125 
L 43.78125 22.318125 
z
" style="fill:#ffffff;"/>
   </g>
   <g id="matplotlib.axis_1">
    <g id="xtick_1">
     <g id="line2d_1">
      <defs>
       <path d="M 0 0 
L 0 3.5 
" id="m0d2f44da60" style="stroke:#000000;stroke-width:0.8;"/>
      </defs>
      <g>
       <use style="stroke:#000000;stroke-width:0.8;" x="43.78125" xlink:href="#m0d2f44da60" y="137.818125"/>
      </g>
     </g>
     <g id="text_1">
      <!-- 0.00 -->
      <defs>
       <path d="M 31.78125 66.40625 
Q 24.171875 66.40625 20.328125 58.90625 
Q 16.5 51.421875 16.5 36.375 
Q 16.5 21.390625 20.328125 13.890625 
Q 24.171875 6.390625 31.78125 6.390625 
Q 39.453125 6.390625 43.28125 13.890625 
Q 47.125 21.390625 47.125 36.375 
Q 47.125 51.421875 43.28125 58.90625 
Q 39.453125 66.40625 31.78125 66.40625 
z
M 31.78125 74.21875 
Q 44.046875 74.21875 50.515625 64.515625 
Q 56.984375 54.828125 56.984375 36.375 
Q 56.984375 17.96875 50.515625 8.265625 
Q 44.046875 -1.421875 31.78125 -1.421875 
Q 19.53125 -1.421875 13.0625 8.265625 
Q 6.59375 17.96875 6.59375 36.375 
Q 6.59375 54.828125 13.0625 64.515625 
Q 19.53125 74.21875 31.78125 74.21875 
z
" id="DejaVuSans-48"/>
       <path d="M 10.6875 12.40625 
L 21 12.40625 
L 21 0 
L 10.6875 0 
z
" id="DejaVuSans-46"/>
      </defs>
      <g transform="translate(32.648438 152.416563)scale(0.1 -0.1)">
       <use xlink:href="#DejaVuSans-48"/>
       <use x="63.623047" xlink:href="#DejaVuSans-46"/>
       <use x="95.410156" xlink:href="#DejaVuSans-48"/>
       <use x="159.033203" xlink:href="#DejaVuSans-48"/>
      </g>
     </g>
    </g>
    <g id="xtick_2">
     <g id="line2d_2">
      <g>
       <use style="stroke:#000000;stroke-width:0.8;" x="113.53125" xlink:href="#m0d2f44da60" y="137.818125"/>
      </g>
     </g>
     <g id="text_2">
      <!-- 0.25 -->
      <defs>
       <path d="M 19.1875 8.296875 
L 53.609375 8.296875 
L 53.609375 0 
L 7.328125 0 
L 7.328125 8.296875 
Q 12.9375 14.109375 22.625 23.890625 
Q 32.328125 33.6875 34.8125 36.53125 
Q 39.546875 41.84375 41.421875 45.53125 
Q 43.3125 49.21875 43.3125 52.78125 
Q 43.3125 58.59375 39.234375 62.25 
Q 35.15625 65.921875 28.609375 65.921875 
Q 23.96875 65.921875 18.8125 64.3125 
Q 13.671875 62.703125 7.8125 59.421875 
L 7.8125 69.390625 
Q 13.765625 71.78125 18.9375 73 
Q 24.125 74.21875 28.421875 74.21875 
Q 39.75 74.21875 46.484375 68.546875 
Q 53.21875 62.890625 53.21875 53.421875 
Q 53.21875 48.921875 51.53125 44.890625 
Q 49.859375 40.875 45.40625 35.40625 
Q 44.1875 33.984375 37.640625 27.21875 
Q 31.109375 20.453125 19.1875 8.296875 
z
" id="DejaVuSans-50"/>
       <path d="M 10.796875 72.90625 
L 49.515625 72.90625 
L 49.515625 64.59375 
L 19.828125 64.59375 
L 19.828125 46.734375 
Q 21.96875 47.46875 24.109375 47.828125 
Q 26.265625 48.1875 28.421875 48.1875 
Q 40.625 48.1875 47.75 41.5 
Q 54.890625 34.8125 54.890625 23.390625 
Q 54.890625 11.625 47.5625 5.09375 
Q 40.234375 -1.421875 26.90625 -1.421875 
Q 22.3125 -1.421875 17.546875 -0.640625 
Q 12.796875 0.140625 7.71875 1.703125 
L 7.71875 11.625 
Q 12.109375 9.234375 16.796875 8.0625 
Q 21.484375 6.890625 26.703125 6.890625 
Q 35.15625 6.890625 40.078125 11.328125 
Q 45.015625 15.765625 45.015625 23.390625 
Q 45.015625 31 40.078125 35.4375 
Q 35.15625 39.890625 26.703125 39.890625 
Q 22.75 39.890625 18.8125 39.015625 
Q 14.890625 38.140625 10.796875 36.28125 
z
" id="DejaVuSans-53"/>
      </defs>
      <g transform="translate(102.398438 152.416563)scale(0.1 -0.1)">
       <use xlink:href="#DejaVuSans-48"/>
       <use x="63.623047" xlink:href="#DejaVuSans-46"/>
       <use x="95.410156" xlink:href="#DejaVuSans-50"/>
       <use x="159.033203" xlink:href="#DejaVuSans-53"/>
      </g>
     </g>
    </g>
    <g id="xtick_3">
     <g id="line2d_3">
      <g>
       <use style="stroke:#000000;stroke-width:0.8;" x="183.28125" xlink:href="#m0d2f44da60" y="137.818125"/>
      </g>
     </g>
     <g id="text_3">
      <!-- 0.50 -->
      <g transform="translate(172.148438 152.416563)scale(0.1 -0.1)">
       <use xlink:href="#DejaVuSans-48"/>
       <use x="63.623047" xlink:href="#DejaVuSans-46"/>
       <use x="95.410156" xlink:href="#DejaVuSans-53"/>
       <use x="159.033203" xlink:href="#DejaVuSans-48"/>
      </g>
     </g>
    </g>
    <g id="xtick_4">
     <g id="line2d_4">
      <g>
       <use style="stroke:#000000;stroke-width:0.8;" x="253.03125" xlink:href="#m0d2f44da60" y="137.818125"/>
      </g>
     </g>
     <g id="text_4">
      <!-- 0.75 -->
      <defs>
       <path d="M 8.203125 72.90625 
L 55.078125 72.90625 
L 55.078125 68.703125 
L 28.609375 0 
L 18.3125 0 
L 43.21875 64.59375 
L 8.203125 64.59375 
z
" id="DejaVuSans-55"/>
      </defs>
      <g transform="translate(241.898438 152.416563)scale(0.1 -0.1)">
       <use xlink:href="#DejaVuSans-48"/>
       <use x="63.623047" xlink:href="#DejaVuSans-46"/>
       <use x="95.410156" xlink:href="#DejaVuSans-55"/>
       <use x="159.033203" xlink:href="#DejaVuSans-53"/>
      </g>
     </g>
    </g>
    <g id="xtick_5">
     <g id="line2d_5">
      <g>
       <use style="stroke:#000000;stroke-width:0.8;" x="322.78125" xlink:href="#m0d2f44da60" y="137.818125"/>
      </g>
     </g>
     <g id="text_5">
      <!-- 1.00 -->
      <defs>
       <path d="M 12.40625 8.296875 
L 28.515625 8.296875 
L 28.515625 63.921875 
L 10.984375 60.40625 
L 10.984375 69.390625 
L 28.421875 72.90625 
L 38.28125 72.90625 
L 38.28125 8.296875 
L 54.390625 8.296875 
L 54.390625 0 
L 12.40625 0 
z
" id="DejaVuSans-49"/>
      </defs>
      <g transform="translate(311.648438 152.416563)scale(0.1 -0.1)">
       <use xlink:href="#DejaVuSans-49"/>
       <use x="63.623047" xlink:href="#DejaVuSans-46"/>
       <use x="95.410156" xlink:href="#DejaVuSans-48"/>
       <use x="159.033203" xlink:href="#DejaVuSans-48"/>
      </g>
     </g>
    </g>
    <g id="xtick_6">
     <g id="line2d_6">
      <g>
       <use style="stroke:#000000;stroke-width:0.8;" x="392.53125" xlink:href="#m0d2f44da60" y="137.818125"/>
      </g>
     </g>
     <g id="text_6">
      <!-- 1.25 -->
      <g transform="translate(381.398438 152.416563)scale(0.1 -0.1)">
       <use xlink:href="#DejaVuSans-49"/>
       <use x="63.623047" xlink:href="#DejaVuSans-46"/>
       <use x="95.410156" xlink:href="#DejaVuSans-50"/>
       <use x="159.033203" xlink:href="#DejaVuSans-53"/>
      </g>
     </g>
    </g>
    <g id="xtick_7">
     <g id="line2d_7">
      <g>
       <use style="stroke:#000000;stroke-width:0.8;" x="462.28125" xlink:href="#m0d2f44da60" y="137.818125"/>
      </g>
     </g>
     <g id="text_7">
      <!-- 1.50 -->
      <g transform="translate(451.148438 152.416563)scale(0.1 -0.1)">
       <use xlink:href="#DejaVuSans-49"/>
       <use x="63.623047" xlink:href="#DejaVuSans-46"/>
       <use x="95.410156" xlink:href="#DejaVuSans-53"/>
       <use x="159.033203" xlink:href="#DejaVuSans-48"/>
      </g>
     </g>
    </g>
    <g id="xtick_8">
     <g id="line2d_8">
      <g>
       <use style="stroke:#000000;stroke-width:0.8;" x="532.03125" xlink:href="#m0d2f44da60" y="137.818125"/>
      </g>
     </g>
     <g id="text_8">
      <!-- 1.75 -->
      <g transform="translate(520.898438 152.416563)scale(0.1 -0.1)">
       <use xlink:href="#DejaVuSans-49"/>
       <use x="63.623047" xlink:href="#DejaVuSans-46"/>
       <use x="95.410156" xlink:href="#DejaVuSans-55"/>
       <use x="159.033203" xlink:href="#DejaVuSans-53"/>
      </g>
     </g>
    </g>
    <g id="xtick_9">
     <g id="line2d_9">
      <g>
       <use style="stroke:#000000;stroke-width:0.8;" x="601.78125" xlink:href="#m0d2f44da60" y="137.818125"/>
      </g>
     </g>
     <g id="text_9">
      <!-- 2.00 -->
      <g transform="translate(590.648438 152.416563)scale(0.1 -0.1)">
       <use xlink:href="#DejaVuSans-50"/>
       <use x="63.623047" xlink:href="#DejaVuSans-46"/>
       <use x="95.410156" xlink:href="#DejaVuSans-48"/>
       <use x="159.033203" xlink:href="#DejaVuSans-48"/>
      </g>
     </g>
    </g>
   </g>
   <g id="matplotlib.axis_2">
    <g id="ytick_1">
     <g id="line2d_10">
      <defs>
       <path d="M 0 0 
L -3.5 0 
" id="ma589d0f7f2" style="stroke:#000000;stroke-width:0.8;"/>
      </defs>
      <g>
       <use style="stroke:#000000;stroke-width:0.8;" x="43.78125" xlink:href="#ma589d0f7f2" y="137.818125"/>
      </g>
     </g>
     <g id="text_10">
      <!-- 0.5 -->
      <g transform="translate(20.878125 141.617344)scale(0.1 -0.1)">
       <use xlink:href="#DejaVuSans-48"/>
       <use x="63.623047" xlink:href="#DejaVuSans-46"/>
       <use x="95.410156" xlink:href="#DejaVuSans-53"/>
      </g>
     </g>
    </g>
    <g id="ytick_2">
     <g id="line2d_11">
      <g>
       <use style="stroke:#000000;stroke-width:0.8;" x="43.78125" xlink:href="#ma589d0f7f2" y="108.943125"/>
      </g>
     </g>
     <g id="text_11">
      <!-- 1.0 -->
      <g transform="translate(20.878125 112.742344)scale(0.1 -0.1)">
       <use xlink:href="#DejaVuSans-49"/>
       <use x="63.623047" xlink:href="#DejaVuSans-46"/>
       <use x="95.410156" xlink:href="#DejaVuSans-48"/>
      </g>
     </g>
    </g>
    <g id="ytick_3">
     <g id="line2d_12">
      <g>
       <use style="stroke:#000000;stroke-width:0.8;" x="43.78125" xlink:href="#ma589d0f7f2" y="80.068125"/>
      </g>
     </g>
     <g id="text_12">
      <!-- 1.5 -->
      <g transform="translate(20.878125 83.867344)scale(0.1 -0.1)">
       <use xlink:href="#DejaVuSans-49"/>
       <use x="63.623047" xlink:href="#DejaVuSans-46"/>
       <use x="95.410156" xlink:href="#DejaVuSans-53"/>
      </g>
     </g>
    </g>
    <g id="ytick_4">
     <g id="line2d_13">
      <g>
       <use style="stroke:#000000;stroke-width:0.8;" x="43.78125" xlink:href="#ma589d0f7f2" y="51.193125"/>
      </g>
     </g>
     <g id="text_13">
      <!-- 2.0 -->
      <g transform="translate(20.878125 54.992344)scale(0.1 -0.1)">
       <use xlink:href="#DejaVuSans-50"/>
       <use x="63.623047" xlink:href="#DejaVuSans-46"/>
       <use x="95.410156" xlink:href="#DejaVuSans-48"/>
      </g>
     </g>
    </g>
    <g id="ytick_5">
     <g id="line2d_14">
      <g>
       <use style="stroke:#000000;stroke-width:0.8;" x="43.78125" xlink:href="#ma589d0f7f2" y="22.318125"/>
      </g>
     </g>
     <g id="text_14">
      <!-- 2.5 -->
      <g transform="translate(20.878125 26.117344)scale(0.1 -0.1)">
       <use xlink:href="#DejaVuSans-50"/>
       <use x="63.623047" xlink:href="#DejaVuSans-46"/>
       <use x="95.410156" xlink:href="#DejaVuSans-53"/>
      </g>
     </g>
    </g>
    <g id="text_15">
     <!-- Amplitude -->
     <defs>
      <path d="M 34.1875 63.1875 
L 20.796875 26.90625 
L 47.609375 26.90625 
z
M 28.609375 72.90625 
L 39.796875 72.90625 
L 67.578125 0 
L 57.328125 0 
L 50.6875 18.703125 
L 17.828125 18.703125 
L 11.1875 0 
L 0.78125 0 
z
" id="DejaVuSans-65"/>
      <path d="M 52 44.1875 
Q 55.375 50.25 60.0625 53.125 
Q 64.75 56 71.09375 56 
Q 79.640625 56 84.28125 50.015625 
Q 88.921875 44.046875 88.921875 33.015625 
L 88.921875 0 
L 79.890625 0 
L 79.890625 32.71875 
Q 79.890625 40.578125 77.09375 44.375 
Q 74.3125 48.1875 68.609375 48.1875 
Q 61.625 48.1875 57.5625 43.546875 
Q 53.515625 38.921875 53.515625 30.90625 
L 53.515625 0 
L 44.484375 0 
L 44.484375 32.71875 
Q 44.484375 40.625 41.703125 44.40625 
Q 38.921875 48.1875 33.109375 48.1875 
Q 26.21875 48.1875 22.15625 43.53125 
Q 18.109375 38.875 18.109375 30.90625 
L 18.109375 0 
L 9.078125 0 
L 9.078125 54.6875 
L 18.109375 54.6875 
L 18.109375 46.1875 
Q 21.1875 51.21875 25.484375 53.609375 
Q 29.78125 56 35.6875 56 
Q 41.65625 56 45.828125 52.96875 
Q 50 49.953125 52 44.1875 
z
" id="DejaVuSans-109"/>
      <path d="M 18.109375 8.203125 
L 18.109375 -20.796875 
L 9.078125 -20.796875 
L 9.078125 54.6875 
L 18.109375 54.6875 
L 18.109375 46.390625 
Q 20.953125 51.265625 25.265625 53.625 
Q 29.59375 56 35.59375 56 
Q 45.5625 56 51.78125 48.09375 
Q 58.015625 40.1875 58.015625 27.296875 
Q 58.015625 14.40625 51.78125 6.484375 
Q 45.5625 -1.421875 35.59375 -1.421875 
Q 29.59375 -1.421875 25.265625 0.953125 
Q 20.953125 3.328125 18.109375 8.203125 
z
M 48.6875 27.296875 
Q 48.6875 37.203125 44.609375 42.84375 
Q 40.53125 48.484375 33.40625 48.484375 
Q 26.265625 48.484375 22.1875 42.84375 
Q 18.109375 37.203125 18.109375 27.296875 
Q 18.109375 17.390625 22.1875 11.75 
Q 26.265625 6.109375 33.40625 6.109375 
Q 40.53125 6.109375 44.609375 11.75 
Q 48.6875 17.390625 48.6875 27.296875 
z
" id="DejaVuSans-112"/>
      <path d="M 9.421875 75.984375 
L 18.40625 75.984375 
L 18.40625 0 
L 9.421875 0 
z
" id="DejaVuSans-108"/>
      <path d="M 9.421875 54.6875 
L 18.40625 54.6875 
L 18.40625 0 
L 9.421875 0 
z
M 9.421875 75.984375 
L 18.40625 75.984375 
L 18.40625 64.59375 
L 9.421875 64.59375 
z
" id="DejaVuSans-105"/>
      <path d="M 18.3125 70.21875 
L 18.3125 54.6875 
L 36.8125 54.6875 
L 36.8125 47.703125 
L 18.3125 47.703125 
L 18.3125 18.015625 
Q 18.3125 11.328125 20.140625 9.421875 
Q 21.96875 7.515625 27.59375 7.515625 
L 36.8125 7.515625 
L 36.8125 0 
L 27.59375 0 
Q 17.1875 0 13.234375 3.875 
Q 9.28125 7.765625 9.28125 18.015625 
L 9.28125 47.703125 
L 2.6875 47.703125 
L 2.6875 54.6875 
L 9.28125 54.6875 
L 9.28125 70.21875 
z
" id="DejaVuSans-116"/>
      <path d="M 8.5 21.578125 
L 8.5 54.6875 
L 17.484375 54.6875 
L 17.484375 21.921875 
Q 17.484375 14.15625 20.5 10.265625 
Q 23.53125 6.390625 29.59375 6.390625 
Q 36.859375 6.390625 41.078125 11.03125 
Q 45.3125 15.671875 45.3125 23.6875 
L 45.3125 54.6875 
L 54.296875 54.6875 
L 54.296875 0 
L 45.3125 0 
L 45.3125 8.40625 
Q 42.046875 3.421875 37.71875 1 
Q 33.40625 -1.421875 27.6875 -1.421875 
Q 18.265625 -1.421875 13.375 4.4375 
Q 8.5 10.296875 8.5 21.578125 
z
M 31.109375 56 
z
" id="DejaVuSans-117"/>
      <path d="M 45.40625 46.390625 
L 45.40625 75.984375 
L 54.390625 75.984375 
L 54.390625 0 
L 45.40625 0 
L 45.40625 8.203125 
Q 42.578125 3.328125 38.25 0.953125 
Q 33.9375 -1.421875 27.875 -1.421875 
Q 17.96875 -1.421875 11.734375 6.484375 
Q 5.515625 14.40625 5.515625 27.296875 
Q 5.515625 40.1875 11.734375 48.09375 
Q 17.96875 56 27.875 56 
Q 33.9375 56 38.25 53.625 
Q 42.578125 51.265625 45.40625 46.390625 
z
M 14.796875 27.296875 
Q 14.796875 17.390625 18.875 11.75 
Q 22.953125 6.109375 30.078125 6.109375 
Q 37.203125 6.109375 41.296875 11.75 
Q 45.40625 17.390625 45.40625 27.296875 
Q 45.40625 37.203125 41.296875 42.84375 
Q 37.203125 48.484375 30.078125 48.484375 
Q 22.953125 48.484375 18.875 42.84375 
Q 14.796875 37.203125 14.796875 27.296875 
z
" id="DejaVuSans-100"/>
      <path d="M 56.203125 29.59375 
L 56.203125 25.203125 
L 14.890625 25.203125 
Q 15.484375 15.921875 20.484375 11.0625 
Q 25.484375 6.203125 34.421875 6.203125 
Q 39.59375 6.203125 44.453125 7.46875 
Q 49.3125 8.734375 54.109375 11.28125 
L 54.109375 2.78125 
Q 49.265625 0.734375 44.1875 -0.34375 
Q 39.109375 -1.421875 33.890625 -1.421875 
Q 20.796875 -1.421875 13.15625 6.1875 
Q 5.515625 13.8125 5.515625 26.8125 
Q 5.515625 40.234375 12.765625 48.109375 
Q 20.015625 56 32.328125 56 
Q 43.359375 56 49.78125 48.890625 
Q 56.203125 41.796875 56.203125 29.59375 
z
M 47.21875 32.234375 
Q 47.125 39.59375 43.09375 43.984375 
Q 39.0625 48.390625 32.421875 48.390625 
Q 24.90625 48.390625 20.390625 44.140625 
Q 15.875 39.890625 15.1875 32.171875 
z
" id="DejaVuSans-101"/>
     </defs>
     <g transform="translate(14.798438 105.690781)rotate(-90)scale(0.1 -0.1)">
      <use xlink:href="#DejaVuSans-65"/>
      <use x="68.408203" xlink:href="#DejaVuSans-109"/>
      <use x="165.820312" xlink:href="#DejaVuSans-112"/>
      <use x="229.296875" xlink:href="#DejaVuSans-108"/>
      <use x="257.080078" xlink:href="#DejaVuSans-105"/>
      <use x="284.863281" xlink:href="#DejaVuSans-116"/>
      <use x="324.072266" xlink:href="#DejaVuSans-117"/>
      <use x="387.451172" xlink:href="#DejaVuSans-100"/>
      <use x="450.927734" xlink:href="#DejaVuSans-101"/>
     </g>
    </g>
   </g>
   <g id="line2d_15">
    <path clip-path="url(#p7cd2fe6e8d)" d="M 43.78125 51.193125 
L 71.40225 51.193125 
L 71.68125 108.943125 
L 183.00225 108.943125 
L 183.28125 51.193125 
L 210.90225 51.193125 
L 211.18125 108.943125 
L 266.70225 108.943125 
L 266.98125 51.193125 
L 322.50225 51.193125 
L 322.78125 108.943125 
L 350.40225 108.943125 
L 350.68125 51.193125 
L 378.30225 51.193125 
L 378.58125 108.943125 
L 406.20225 108.943125 
L 406.48125 51.193125 
L 545.70225 51.193125 
L 545.98125 108.943125 
L 573.60225 108.943125 
L 573.88125 51.193125 
L 601.50225 51.193125 
L 601.50225 51.193125 
" style="fill:none;stroke:#1f77b4;stroke-linecap:square;stroke-width:1.5;"/>
   </g>
   <g id="patch_3">
    <path d="M 43.78125 137.818125 
L 43.78125 22.318125 
" style="fill:none;stroke:#000000;stroke-linecap:square;stroke-linejoin:miter;stroke-width:0.8;"/>
   </g>
   <g id="patch_4">
    <path d="M 601.78125 137.818125 
L 601.78125 22.318125 
" style="fill:none;stroke:#000000;stroke-linecap:square;stroke-linejoin:miter;stroke-width:0.8;"/>
   </g>
   <g id="patch_5">
    <path d="M 43.78125 137.818125 
L 601.78125 137.818125 
" style="fill:none;stroke:#000000;stroke-linecap:square;stroke-linejoin:miter;stroke-width:0.8;"/>
   </g>
   <g id="patch_6">
    <path d="M 43.78125 22.318125 
L 601.78125 22.318125 
" style="fill:none;stroke:#000000;stroke-linecap:square;stroke-linejoin:miter;stroke-width:0.8;"/>
   </g>
   <g id="text_16">
    <!-- 1 -->
    <g style="fill:#ff0000;" transform="translate(53.54625 45.418125)scale(0.14 -0.14)">
     <use xlink:href="#DejaVuSans-49"/>
    </g>
   </g>
   <g id="text_17">
    <!-- 0 -->
    <g style="fill:#ff0000;" transform="translate(81.44625 45.418125)scale(0.14 -0.14)">
     <use xlink:href="#DejaVuSans-48"/>
    </g>
   </g>
   <g id="text_18">
    <!-- 0 -->
    <g style="fill:#ff0000;" transform="translate(109.34625 45.418125)scale(0.14 -0.14)">
     <use xlink:href="#DejaVuSans-48"/>
    </g>
   </g>
   <g id="text_19">
    <!-- 0 -->
    <g style="fill:#ff0000;" transform="translate(137.24625 45.418125)scale(0.14 -0.14)">
     <use xlink:href="#DejaVuSans-48"/>
    </g>
   </g>
   <g id="text_20">
    <!-- 0 -->
    <g style="fill:#ff0000;" transform="translate(165.14625 45.418125)scale(0.14 -0.14)">
     <use xlink:href="#DejaVuSans-48"/>
    </g>
   </g>
   <g id="text_21">
    <!-- 1 -->
    <g style="fill:#ff0000;" transform="translate(193.04625 45.418125)scale(0.14 -0.14)">
     <use xlink:href="#DejaVuSans-49"/>
    </g>
   </g>
   <g id="text_22">
    <!-- 0 -->
    <g style="fill:#ff0000;" transform="translate(220.94625 45.418125)scale(0.14 -0.14)">
     <use xlink:href="#DejaVuSans-48"/>
    </g>
   </g>
   <g id="text_23">
    <!-- 0 -->
    <g style="fill:#ff0000;" transform="translate(248.84625 45.418125)scale(0.14 -0.14)">
     <use xlink:href="#DejaVuSans-48"/>
    </g>
   </g>
   <g id="text_24">
    <!-- 1 -->
    <g style="fill:#ff0000;" transform="translate(276.74625 45.418125)scale(0.14 -0.14)">
     <use xlink:href="#DejaVuSans-49"/>
    </g>
   </g>
   <g id="text_25">
    <!-- 1 -->
    <g style="fill:#ff0000;" transform="translate(304.64625 45.418125)scale(0.14 -0.14)">
     <use xlink:href="#DejaVuSans-49"/>
    </g>
   </g>
   <g id="text_26">
    <!-- 0 -->
    <g style="fill:#ff0000;" transform="translate(332.54625 45.418125)scale(0.14 -0.14)">
     <use xlink:href="#DejaVuSans-48"/>
    </g>
   </g>
   <g id="text_27">
    <!-- 1 -->
    <g style="fill:#ff0000;" transform="translate(360.44625 45.418125)scale(0.14 -0.14)">
     <use xlink:href="#DejaVuSans-49"/>
    </g>
   </g>
   <g id="text_28">
    <!-- 0 -->
    <g style="fill:#ff0000;" transform="translate(388.34625 45.418125)scale(0.14 -0.14)">
     <use xlink:href="#DejaVuSans-48"/>
    </g>
   </g>
   <g id="text_29">
    <!-- 1 -->
    <g style="fill:#ff0000;" transform="translate(416.24625 45.418125)scale(0.14 -0.14)">
     <use xlink:href="#DejaVuSans-49"/>
    </g>
   </g>
   <g id="text_30">
    <!-- 1 -->
    <g style="fill:#ff0000;" transform="translate(444.14625 45.418125)scale(0.14 -0.14)">
     <use xlink:href="#DejaVuSans-49"/>
    </g>
   </g>
   <g id="text_31">
    <!-- 1 -->
    <g style="fill:#ff0000;" transform="translate(472.04625 45.418125)scale(0.14 -0.14)">
     <use xlink:href="#DejaVuSans-49"/>
    </g>
   </g>
   <g id="text_32">
    <!-- 1 -->
    <g style="fill:#ff0000;" transform="translate(499.94625 45.418125)scale(0.14 -0.14)">
     <use xlink:href="#DejaVuSans-49"/>
    </g>
   </g>
   <g id="text_33">
    <!-- 1 -->
    <g style="fill:#ff0000;" transform="translate(527.84625 45.418125)scale(0.14 -0.14)">
     <use xlink:href="#DejaVuSans-49"/>
    </g>
   </g>
   <g id="text_34">
    <!-- 0 -->
    <g style="fill:#ff0000;" transform="translate(555.74625 45.418125)scale(0.14 -0.14)">
     <use xlink:href="#DejaVuSans-48"/>
    </g>
   </g>
   <g id="text_35">
    <!-- 1 -->
    <g style="fill:#ff0000;" transform="translate(583.64625 45.418125)scale(0.14 -0.14)">
     <use xlink:href="#DejaVuSans-49"/>
    </g>
   </g>
   <g id="text_36">
    <!-- Our Data -->
    <defs>
     <path d="M 39.40625 66.21875 
Q 28.65625 66.21875 22.328125 58.203125 
Q 16.015625 50.203125 16.015625 36.375 
Q 16.015625 22.609375 22.328125 14.59375 
Q 28.65625 6.59375 39.40625 6.59375 
Q 50.140625 6.59375 56.421875 14.59375 
Q 62.703125 22.609375 62.703125 36.375 
Q 62.703125 50.203125 56.421875 58.203125 
Q 50.140625 66.21875 39.40625 66.21875 
z
M 39.40625 74.21875 
Q 54.734375 74.21875 63.90625 63.9375 
Q 73.09375 53.65625 73.09375 36.375 
Q 73.09375 19.140625 63.90625 8.859375 
Q 54.734375 -1.421875 39.40625 -1.421875 
Q 24.03125 -1.421875 14.8125 8.828125 
Q 5.609375 19.09375 5.609375 36.375 
Q 5.609375 53.65625 14.8125 63.9375 
Q 24.03125 74.21875 39.40625 74.21875 
z
" id="DejaVuSans-79"/>
     <path d="M 41.109375 46.296875 
Q 39.59375 47.171875 37.8125 47.578125 
Q 36.03125 48 33.890625 48 
Q 26.265625 48 22.1875 43.046875 
Q 18.109375 38.09375 18.109375 28.8125 
L 18.109375 0 
L 9.078125 0 
L 9.078125 54.6875 
L 18.109375 54.6875 
L 18.109375 46.1875 
Q 20.953125 51.171875 25.484375 53.578125 
Q 30.03125 56 36.53125 56 
Q 37.453125 56 38.578125 55.875 
Q 39.703125 55.765625 41.0625 55.515625 
z
" id="DejaVuSans-114"/>
     <path id="DejaVuSans-32"/>
     <path d="M 19.671875 64.796875 
L 19.671875 8.109375 
L 31.59375 8.109375 
Q 46.6875 8.109375 53.6875 14.9375 
Q 60.6875 21.78125 60.6875 36.53125 
Q 60.6875 51.171875 53.6875 57.984375 
Q 46.6875 64.796875 31.59375 64.796875 
z
M 9.8125 72.90625 
L 30.078125 72.90625 
Q 51.265625 72.90625 61.171875 64.09375 
Q 71.09375 55.28125 71.09375 36.53125 
Q 71.09375 17.671875 61.125 8.828125 
Q 51.171875 0 30.078125 0 
L 9.8125 0 
z
" id="DejaVuSans-68"/>
     <path d="M 34.28125 27.484375 
Q 23.390625 27.484375 19.1875 25 
Q 14.984375 22.515625 14.984375 16.5 
Q 14.984375 11.71875 18.140625 8.90625 
Q 21.296875 6.109375 26.703125 6.109375 
Q 34.1875 6.109375 38.703125 11.40625 
Q 43.21875 16.703125 43.21875 25.484375 
L 43.21875 27.484375 
z
M 52.203125 31.203125 
L 52.203125 0 
L 43.21875 0 
L 43.21875 8.296875 
Q 40.140625 3.328125 35.546875 0.953125 
Q 30.953125 -1.421875 24.3125 -1.421875 
Q 15.921875 -1.421875 10.953125 3.296875 
Q 6 8.015625 6 15.921875 
Q 6 25.140625 12.171875 29.828125 
Q 18.359375 34.515625 30.609375 34.515625 
L 43.21875 34.515625 
L 43.21875 35.40625 
Q 43.21875 41.609375 39.140625 45 
Q 35.0625 48.390625 27.6875 48.390625 
Q 23 48.390625 18.546875 47.265625 
Q 14.109375 46.140625 10.015625 43.890625 
L 10.015625 52.203125 
Q 14.9375 54.109375 19.578125 55.046875 
Q 24.21875 56 28.609375 56 
Q 40.484375 56 46.34375 49.84375 
Q 52.203125 43.703125 52.203125 31.203125 
z
" id="DejaVuSans-97"/>
    </defs>
    <g transform="translate(295.55625 16.318125)scale(0.12 -0.12)">
     <use xlink:href="#DejaVuSans-79"/>
     <use x="78.710938" xlink:href="#DejaVuSans-117"/>
     <use x="142.089844" xlink:href="#DejaVuSans-114"/>
     <use x="183.203125" xlink:href="#DejaVuSans-32"/>
     <use x="214.990234" xlink:href="#DejaVuSans-68"/>
     <use x="291.992188" xlink:href="#DejaVuSans-97"/>
     <use x="353.271484" xlink:href="#DejaVuSans-116"/>
     <use x="392.480469" xlink:href="#DejaVuSans-97"/>
    </g>
   </g>
  </g>
  <g id="axes_2">
   <g id="patch_7">
    <path d="M 43.78125 299.518125 
L 601.78125 299.518125 
L 601.78125 184.018125 
L 43.78125 184.018125 
z
" style="fill:#ffffff;"/>
   </g>
   <g id="matplotlib.axis_3">
    <g id="xtick_10">
     <g id="line2d_16">
      <g>
       <use style="stroke:#000000;stroke-width:0.8;" x="43.78125" xlink:href="#m0d2f44da60" y="299.518125"/>
      </g>
     </g>
     <g id="text_37">
      <!-- 0.00 -->
      <g transform="translate(32.648438 314.116563)scale(0.1 -0.1)">
       <use xlink:href="#DejaVuSans-48"/>
       <use x="63.623047" xlink:href="#DejaVuSans-46"/>
       <use x="95.410156" xlink:href="#DejaVuSans-48"/>
       <use x="159.033203" xlink:href="#DejaVuSans-48"/>
      </g>
     </g>
    </g>
    <g id="xtick_11">
     <g id="line2d_17">
      <g>
       <use style="stroke:#000000;stroke-width:0.8;" x="113.53125" xlink:href="#m0d2f44da60" y="299.518125"/>
      </g>
     </g>
     <g id="text_38">
      <!-- 0.25 -->
      <g transform="translate(102.398438 314.116563)scale(0.1 -0.1)">
       <use xlink:href="#DejaVuSans-48"/>
       <use x="63.623047" xlink:href="#DejaVuSans-46"/>
       <use x="95.410156" xlink:href="#DejaVuSans-50"/>
       <use x="159.033203" xlink:href="#DejaVuSans-53"/>
      </g>
     </g>
    </g>
    <g id="xtick_12">
     <g id="line2d_18">
      <g>
       <use style="stroke:#000000;stroke-width:0.8;" x="183.28125" xlink:href="#m0d2f44da60" y="299.518125"/>
      </g>
     </g>
     <g id="text_39">
      <!-- 0.50 -->
      <g transform="translate(172.148438 314.116563)scale(0.1 -0.1)">
       <use xlink:href="#DejaVuSans-48"/>
       <use x="63.623047" xlink:href="#DejaVuSans-46"/>
       <use x="95.410156" xlink:href="#DejaVuSans-53"/>
       <use x="159.033203" xlink:href="#DejaVuSans-48"/>
      </g>
     </g>
    </g>
    <g id="xtick_13">
     <g id="line2d_19">
      <g>
       <use style="stroke:#000000;stroke-width:0.8;" x="253.03125" xlink:href="#m0d2f44da60" y="299.518125"/>
      </g>
     </g>
     <g id="text_40">
      <!-- 0.75 -->
      <g transform="translate(241.898438 314.116563)scale(0.1 -0.1)">
       <use xlink:href="#DejaVuSans-48"/>
       <use x="63.623047" xlink:href="#DejaVuSans-46"/>
       <use x="95.410156" xlink:href="#DejaVuSans-55"/>
       <use x="159.033203" xlink:href="#DejaVuSans-53"/>
      </g>
     </g>
    </g>
    <g id="xtick_14">
     <g id="line2d_20">
      <g>
       <use style="stroke:#000000;stroke-width:0.8;" x="322.78125" xlink:href="#m0d2f44da60" y="299.518125"/>
      </g>
     </g>
     <g id="text_41">
      <!-- 1.00 -->
      <g transform="translate(311.648438 314.116563)scale(0.1 -0.1)">
       <use xlink:href="#DejaVuSans-49"/>
       <use x="63.623047" xlink:href="#DejaVuSans-46"/>
       <use x="95.410156" xlink:href="#DejaVuSans-48"/>
       <use x="159.033203" xlink:href="#DejaVuSans-48"/>
      </g>
     </g>
    </g>
    <g id="xtick_15">
     <g id="line2d_21">
      <g>
       <use style="stroke:#000000;stroke-width:0.8;" x="392.53125" xlink:href="#m0d2f44da60" y="299.518125"/>
      </g>
     </g>
     <g id="text_42">
      <!-- 1.25 -->
      <g transform="translate(381.398438 314.116563)scale(0.1 -0.1)">
       <use xlink:href="#DejaVuSans-49"/>
       <use x="63.623047" xlink:href="#DejaVuSans-46"/>
       <use x="95.410156" xlink:href="#DejaVuSans-50"/>
       <use x="159.033203" xlink:href="#DejaVuSans-53"/>
      </g>
     </g>
    </g>
    <g id="xtick_16">
     <g id="line2d_22">
      <g>
       <use style="stroke:#000000;stroke-width:0.8;" x="462.28125" xlink:href="#m0d2f44da60" y="299.518125"/>
      </g>
     </g>
     <g id="text_43">
      <!-- 1.50 -->
      <g transform="translate(451.148438 314.116563)scale(0.1 -0.1)">
       <use xlink:href="#DejaVuSans-49"/>
       <use x="63.623047" xlink:href="#DejaVuSans-46"/>
       <use x="95.410156" xlink:href="#DejaVuSans-53"/>
       <use x="159.033203" xlink:href="#DejaVuSans-48"/>
      </g>
     </g>
    </g>
    <g id="xtick_17">
     <g id="line2d_23">
      <g>
       <use style="stroke:#000000;stroke-width:0.8;" x="532.03125" xlink:href="#m0d2f44da60" y="299.518125"/>
      </g>
     </g>
     <g id="text_44">
      <!-- 1.75 -->
      <g transform="translate(520.898438 314.116563)scale(0.1 -0.1)">
       <use xlink:href="#DejaVuSans-49"/>
       <use x="63.623047" xlink:href="#DejaVuSans-46"/>
       <use x="95.410156" xlink:href="#DejaVuSans-55"/>
       <use x="159.033203" xlink:href="#DejaVuSans-53"/>
      </g>
     </g>
    </g>
    <g id="xtick_18">
     <g id="line2d_24">
      <g>
       <use style="stroke:#000000;stroke-width:0.8;" x="601.78125" xlink:href="#m0d2f44da60" y="299.518125"/>
      </g>
     </g>
     <g id="text_45">
      <!-- 2.00 -->
      <g transform="translate(590.648438 314.116563)scale(0.1 -0.1)">
       <use xlink:href="#DejaVuSans-50"/>
       <use x="63.623047" xlink:href="#DejaVuSans-46"/>
       <use x="95.410156" xlink:href="#DejaVuSans-48"/>
       <use x="159.033203" xlink:href="#DejaVuSans-48"/>
      </g>
     </g>
    </g>
    <g id="text_46">
     <!-- Time -->
     <defs>
      <path d="M -0.296875 72.90625 
L 61.375 72.90625 
L 61.375 64.59375 
L 35.5 64.59375 
L 35.5 0 
L 25.59375 0 
L 25.59375 64.59375 
L -0.296875 64.59375 
z
" id="DejaVuSans-84"/>
     </defs>
     <g transform="translate(310.39375 327.794688)scale(0.1 -0.1)">
      <use xlink:href="#DejaVuSans-84"/>
      <use x="61.037109" xlink:href="#DejaVuSans-105"/>
      <use x="88.820312" xlink:href="#DejaVuSans-109"/>
      <use x="186.232422" xlink:href="#DejaVuSans-101"/>
     </g>
    </g>
   </g>
   <g id="matplotlib.axis_4">
    <g id="ytick_6">
     <g id="line2d_25">
      <g>
       <use style="stroke:#000000;stroke-width:0.8;" x="43.78125" xlink:href="#ma589d0f7f2" y="294.268125"/>
      </g>
     </g>
     <g id="text_47">
      <!-- −2 -->
      <defs>
       <path d="M 10.59375 35.5 
L 73.1875 35.5 
L 73.1875 27.203125 
L 10.59375 27.203125 
z
" id="DejaVuSans-8722"/>
      </defs>
      <g transform="translate(22.039063 298.067344)scale(0.1 -0.1)">
       <use xlink:href="#DejaVuSans-8722"/>
       <use x="83.789062" xlink:href="#DejaVuSans-50"/>
      </g>
     </g>
    </g>
    <g id="ytick_7">
     <g id="line2d_26">
      <g>
       <use style="stroke:#000000;stroke-width:0.8;" x="43.78125" xlink:href="#ma589d0f7f2" y="268.018125"/>
      </g>
     </g>
     <g id="text_48">
      <!-- −1 -->
      <g transform="translate(22.039063 271.817344)scale(0.1 -0.1)">
       <use xlink:href="#DejaVuSans-8722"/>
       <use x="83.789062" xlink:href="#DejaVuSans-49"/>
      </g>
     </g>
    </g>
    <g id="ytick_8">
     <g id="line2d_27">
      <g>
       <use style="stroke:#000000;stroke-width:0.8;" x="43.78125" xlink:href="#ma589d0f7f2" y="241.768125"/>
      </g>
     </g>
     <g id="text_49">
      <!-- 0 -->
      <g transform="translate(30.41875 245.567344)scale(0.1 -0.1)">
       <use xlink:href="#DejaVuSans-48"/>
      </g>
     </g>
    </g>
    <g id="ytick_9">
     <g id="line2d_28">
      <g>
       <use style="stroke:#000000;stroke-width:0.8;" x="43.78125" xlink:href="#ma589d0f7f2" y="215.518125"/>
      </g>
     </g>
     <g id="text_50">
      <!-- 1 -->
      <g transform="translate(30.41875 219.317344)scale(0.1 -0.1)">
       <use xlink:href="#DejaVuSans-49"/>
      </g>
     </g>
    </g>
    <g id="ytick_10">
     <g id="line2d_29">
      <g>
       <use style="stroke:#000000;stroke-width:0.8;" x="43.78125" xlink:href="#ma589d0f7f2" y="189.268125"/>
      </g>
     </g>
     <g id="text_51">
      <!-- 2 -->
      <g transform="translate(30.41875 193.067344)scale(0.1 -0.1)">
       <use xlink:href="#DejaVuSans-50"/>
      </g>
     </g>
    </g>
    <g id="text_52">
     <!-- Amplitude -->
     <g transform="translate(15.959375 267.390781)rotate(-90)scale(0.1 -0.1)">
      <use xlink:href="#DejaVuSans-65"/>
      <use x="68.408203" xlink:href="#DejaVuSans-109"/>
      <use x="165.820312" xlink:href="#DejaVuSans-112"/>
      <use x="229.296875" xlink:href="#DejaVuSans-108"/>
      <use x="257.080078" xlink:href="#DejaVuSans-105"/>
      <use x="284.863281" xlink:href="#DejaVuSans-116"/>
      <use x="324.072266" xlink:href="#DejaVuSans-117"/>
      <use x="387.451172" xlink:href="#DejaVuSans-100"/>
      <use x="450.927734" xlink:href="#DejaVuSans-101"/>
     </g>
    </g>
   </g>
   <g id="line2d_30">
    <path clip-path="url(#pd086b8f2a8)" d="M 43.78125 241.768125 
L 44.89725 210.909399 
L 45.45525 199.294733 
L 46.01325 191.837658 
L 46.29225 189.914487 
L 46.57125 189.268125 
L 46.85025 189.914487 
L 47.12925 191.837658 
L 47.68725 199.294733 
L 48.24525 210.909399 
L 49.36125 241.768125 
L 50.47725 272.626851 
L 51.03525 284.241517 
L 51.59325 291.698592 
L 51.87225 293.621763 
L 52.15125 294.268125 
L 52.43025 293.621763 
L 52.70925 291.698592 
L 53.26725 284.241517 
L 53.82525 272.626851 
L 54.94125 241.768125 
L 56.05725 210.909399 
L 56.61525 199.294733 
L 57.17325 191.837658 
L 57.45225 189.914487 
L 57.73125 189.268125 
L 58.01025 189.914487 
L 58.28925 191.837658 
L 58.84725 199.294733 
L 59.40525 210.909399 
L 60.52125 241.768125 
L 61.63725 272.626851 
L 62.19525 284.241517 
L 62.75325 291.698592 
L 63.03225 293.621763 
L 63.31125 294.268125 
L 63.59025 293.621763 
L 63.86925 291.698592 
L 64.42725 284.241517 
L 64.98525 272.626851 
L 66.10125 241.768125 
L 67.21725 210.909399 
L 67.77525 199.294733 
L 68.33325 191.837658 
L 68.61225 189.914487 
L 68.89125 189.268125 
L 69.17025 189.914487 
L 69.44925 191.837658 
L 70.00725 199.294733 
L 70.56525 210.909399 
L 71.96025 245.87453 
L 73.07625 260.329678 
L 73.63425 265.157046 
L 74.19225 267.694944 
L 74.47125 268.018125 
L 74.75025 267.694944 
L 75.02925 266.733359 
L 75.58725 263.004821 
L 76.14525 257.197488 
L 77.26125 241.768125 
L 78.37725 226.338762 
L 78.93525 220.531429 
L 79.49325 216.802891 
L 79.77225 215.841306 
L 80.05125 215.518125 
L 80.33025 215.841306 
L 80.60925 216.802891 
L 81.16725 220.531429 
L 81.72525 226.338762 
L 82.84125 241.768125 
L 83.95725 257.197488 
L 84.51525 263.004821 
L 85.07325 266.733359 
L 85.35225 267.694944 
L 85.63125 268.018125 
L 85.91025 267.694944 
L 86.18925 266.733359 
L 86.74725 263.004821 
L 87.30525 257.197488 
L 88.42125 241.768125 
L 89.53725 226.338762 
L 90.09525 220.531429 
L 90.65325 216.802891 
L 90.93225 215.841306 
L 91.21125 215.518125 
L 91.49025 215.841306 
L 91.76925 216.802891 
L 92.32725 220.531429 
L 92.88525 226.338762 
L 94.00125 241.768125 
L 95.11725 257.197488 
L 95.67525 263.004821 
L 96.23325 266.733359 
L 96.51225 267.694944 
L 96.79125 268.018125 
L 97.07025 267.694944 
L 97.34925 266.733359 
L 97.90725 263.004821 
L 98.46525 257.197488 
L 99.58125 241.768125 
L 100.69725 226.338762 
L 101.25525 220.531429 
L 101.81325 216.802891 
L 102.09225 215.841306 
L 102.37125 215.518125 
L 102.65025 215.841306 
L 102.92925 216.802891 
L 103.48725 220.531429 
L 104.04525 226.338762 
L 105.16125 241.768125 
L 106.27725 257.197488 
L 106.83525 263.004821 
L 107.39325 266.733359 
L 107.67225 267.694944 
L 107.95125 268.018125 
L 108.23025 267.694944 
L 108.50925 266.733359 
L 109.06725 263.004821 
L 109.62525 257.197488 
L 110.74125 241.768125 
L 111.85725 226.338762 
L 112.41525 220.531429 
L 112.97325 216.802891 
L 113.25225 215.841306 
L 113.53125 215.518125 
L 113.81025 215.841306 
L 114.08925 216.802891 
L 114.64725 220.531429 
L 115.20525 226.338762 
L 116.32125 241.768125 
L 117.43725 257.197488 
L 117.99525 263.004821 
L 118.55325 266.733359 
L 118.83225 267.694944 
L 119.11125 268.018125 
L 119.39025 267.694944 
L 119.66925 266.733359 
L 120.22725 263.004821 
L 120.78525 257.197488 
L 121.90125 241.768125 
L 123.01725 226.338762 
L 123.57525 220.531429 
L 124.13325 216.802891 
L 124.41225 215.841306 
L 124.69125 215.518125 
L 124.97025 215.841306 
L 125.24925 216.802891 
L 125.80725 220.531429 
L 126.36525 226.338762 
L 127.48125 241.768125 
L 128.59725 257.197488 
L 129.15525 263.004821 
L 129.71325 266.733359 
L 129.99225 267.694944 
L 130.27125 268.018125 
L 130.55025 267.694944 
L 130.82925 266.733359 
L 131.38725 263.004821 
L 131.94525 257.197488 
L 133.06125 241.768125 
L 134.17725 226.338762 
L 134.73525 220.531429 
L 135.29325 216.802891 
L 135.57225 215.841306 
L 135.85125 215.518125 
L 136.13025 215.841306 
L 136.40925 216.802891 
L 136.96725 220.531429 
L 137.52525 226.338762 
L 138.64125 241.768125 
L 139.75725 257.197488 
L 140.31525 263.004821 
L 140.87325 266.733359 
L 141.15225 267.694944 
L 141.43125 268.018125 
L 141.71025 267.694944 
L 141.98925 266.733359 
L 142.54725 263.004821 
L 143.10525 257.197488 
L 144.22125 241.768125 
L 145.33725 226.338762 
L 145.89525 220.531429 
L 146.45325 216.802891 
L 146.73225 215.841306 
L 147.01125 215.518125 
L 147.29025 215.841306 
L 147.56925 216.802891 
L 148.12725 220.531429 
L 148.68525 226.338762 
L 149.80125 241.768125 
L 150.91725 257.197488 
L 151.47525 263.004821 
L 152.03325 266.733359 
L 152.31225 267.694944 
L 152.59125 268.018125 
L 152.87025 267.694944 
L 153.14925 266.733359 
L 153.70725 263.004821 
L 154.26525 257.197488 
L 155.38125 241.768125 
L 156.49725 226.338762 
L 157.05525 220.531429 
L 157.61325 216.802891 
L 157.89225 215.841306 
L 158.17125 215.518125 
L 158.45025 215.841306 
L 158.72925 216.802891 
L 159.28725 220.531429 
L 159.84525 226.338762 
L 160.96125 241.768125 
L 162.07725 257.197488 
L 162.63525 263.004821 
L 163.19325 266.733359 
L 163.47225 267.694944 
L 163.75125 268.018125 
L 164.03025 267.694944 
L 164.30925 266.733359 
L 164.86725 263.004821 
L 165.42525 257.197488 
L 166.54125 241.768125 
L 167.65725 226.338762 
L 168.21525 220.531429 
L 168.77325 216.802891 
L 169.05225 215.841306 
L 169.33125 215.518125 
L 169.61025 215.841306 
L 169.88925 216.802891 
L 170.44725 220.531429 
L 171.00525 226.338762 
L 172.12125 241.768125 
L 173.23725 257.197488 
L 173.79525 263.004821 
L 174.35325 266.733359 
L 174.63225 267.694944 
L 174.91125 268.018125 
L 175.19025 267.694944 
L 175.46925 266.733359 
L 176.02725 263.004821 
L 176.58525 257.197488 
L 177.70125 241.768125 
L 178.81725 226.338762 
L 179.37525 220.531429 
L 179.93325 216.802891 
L 180.21225 215.841306 
L 180.49125 215.518125 
L 180.77025 215.841306 
L 181.04925 216.802891 
L 181.60725 220.531429 
L 182.16525 226.338762 
L 183.28125 241.768125 
L 184.39725 272.626851 
L 184.95525 284.241517 
L 185.51325 291.698592 
L 185.79225 293.621763 
L 186.07125 294.268125 
L 186.35025 293.621763 
L 186.62925 291.698592 
L 187.18725 284.241517 
L 187.74525 272.626851 
L 188.86125 241.768125 
L 189.97725 210.909399 
L 190.53525 199.294733 
L 191.09325 191.837658 
L 191.37225 189.914487 
L 191.65125 189.268125 
L 191.93025 189.914487 
L 192.20925 191.837658 
L 192.76725 199.294733 
L 193.32525 210.909399 
L 194.44125 241.768125 
L 195.55725 272.626851 
L 196.11525 284.241517 
L 196.67325 291.698592 
L 196.95225 293.621763 
L 197.23125 294.268125 
L 197.51025 293.621763 
L 197.78925 291.698592 
L 198.34725 284.241517 
L 198.90525 272.626851 
L 200.02125 241.768125 
L 201.13725 210.909399 
L 201.69525 199.294733 
L 202.25325 191.837658 
L 202.53225 189.914487 
L 202.81125 189.268125 
L 203.09025 189.914487 
L 203.36925 191.837658 
L 203.92725 199.294733 
L 204.48525 210.909399 
L 205.60125 241.768125 
L 206.71725 272.626851 
L 207.27525 284.241517 
L 207.83325 291.698592 
L 208.11225 293.621763 
L 208.39125 294.268125 
L 208.67025 293.621763 
L 208.94925 291.698592 
L 209.50725 284.241517 
L 210.06525 272.626851 
L 211.46025 237.66172 
L 212.57625 223.206572 
L 213.13425 218.379204 
L 213.69225 215.841306 
L 213.97125 215.518125 
L 214.25025 215.841306 
L 214.52925 216.802891 
L 215.08725 220.531429 
L 215.64525 226.338762 
L 216.76125 241.768125 
L 217.87725 257.197488 
L 218.43525 263.004821 
L 218.99325 266.733359 
L 219.27225 267.694944 
L 219.55125 268.018125 
L 219.83025 267.694944 
L 220.10925 266.733359 
L 220.66725 263.004821 
L 221.22525 257.197488 
L 222.34125 241.768125 
L 223.45725 226.338762 
L 224.01525 220.531429 
L 224.57325 216.802891 
L 224.85225 215.841306 
L 225.13125 215.518125 
L 225.41025 215.841306 
L 225.68925 216.802891 
L 226.24725 220.531429 
L 226.80525 226.338762 
L 227.92125 241.768125 
L 229.03725 257.197488 
L 229.59525 263.004821 
L 230.15325 266.733359 
L 230.43225 267.694944 
L 230.71125 268.018125 
L 230.99025 267.694944 
L 231.26925 266.733359 
L 231.82725 263.004821 
L 232.38525 257.197488 
L 233.50125 241.768125 
L 234.61725 226.338762 
L 235.17525 220.531429 
L 235.73325 216.802891 
L 236.01225 215.841306 
L 236.29125 215.518125 
L 236.57025 215.841306 
L 236.84925 216.802891 
L 237.40725 220.531429 
L 237.96525 226.338762 
L 239.08125 241.768125 
L 240.19725 257.197488 
L 240.75525 263.004821 
L 241.31325 266.733359 
L 241.59225 267.694944 
L 241.87125 268.018125 
L 242.15025 267.694944 
L 242.42925 266.733359 
L 242.98725 263.004821 
L 243.54525 257.197488 
L 244.66125 241.768125 
L 245.77725 226.338762 
L 246.33525 220.531429 
L 246.89325 216.802891 
L 247.17225 215.841306 
L 247.45125 215.518125 
L 247.73025 215.841306 
L 248.00925 216.802891 
L 248.56725 220.531429 
L 249.12525 226.338762 
L 250.24125 241.768125 
L 251.35725 257.197488 
L 251.91525 263.004821 
L 252.47325 266.733359 
L 252.75225 267.694944 
L 253.03125 268.018125 
L 253.31025 267.694944 
L 253.58925 266.733359 
L 254.14725 263.004821 
L 254.70525 257.197488 
L 255.82125 241.768125 
L 256.93725 226.338762 
L 257.49525 220.531429 
L 258.05325 216.802891 
L 258.33225 215.841306 
L 258.61125 215.518125 
L 258.89025 215.841306 
L 259.16925 216.802891 
L 259.72725 220.531429 
L 260.28525 226.338762 
L 261.40125 241.768125 
L 262.51725 257.197488 
L 263.07525 263.004821 
L 263.63325 266.733359 
L 263.91225 267.694944 
L 264.19125 268.018125 
L 264.47025 267.694944 
L 264.74925 266.733359 
L 265.30725 263.004821 
L 265.86525 257.197488 
L 266.98125 241.768125 
L 268.09725 210.909399 
L 268.65525 199.294733 
L 269.21325 191.837658 
L 269.49225 189.914487 
L 269.77125 189.268125 
L 270.05025 189.914487 
L 270.32925 191.837658 
L 270.88725 199.294733 
L 271.44525 210.909399 
L 272.56125 241.768125 
L 273.67725 272.626851 
L 274.23525 284.241517 
L 274.79325 291.698592 
L 275.07225 293.621763 
L 275.35125 294.268125 
L 275.63025 293.621763 
L 275.90925 291.698592 
L 276.46725 284.241517 
L 277.02525 272.626851 
L 278.14125 241.768125 
L 279.25725 210.909399 
L 279.81525 199.294733 
L 280.37325 191.837658 
L 280.65225 189.914487 
L 280.93125 189.268125 
L 281.21025 189.914487 
L 281.48925 191.837658 
L 282.04725 199.294733 
L 282.60525 210.909399 
L 283.72125 241.768125 
L 284.83725 272.626851 
L 285.39525 284.241517 
L 285.95325 291.698592 
L 286.23225 293.621763 
L 286.51125 294.268125 
L 286.79025 293.621763 
L 287.06925 291.698592 
L 287.62725 284.241517 
L 288.18525 272.626851 
L 289.30125 241.768125 
L 290.41725 210.909399 
L 290.97525 199.294733 
L 291.53325 191.837658 
L 291.81225 189.914487 
L 292.09125 189.268125 
L 292.37025 189.914487 
L 292.64925 191.837658 
L 293.20725 199.294733 
L 293.76525 210.909399 
L 294.88125 241.768125 
L 295.99725 272.626851 
L 296.55525 284.241517 
L 297.11325 291.698592 
L 297.39225 293.621763 
L 297.67125 294.268125 
L 297.95025 293.621763 
L 298.22925 291.698592 
L 298.78725 284.241517 
L 299.34525 272.626851 
L 300.46125 241.768125 
L 301.57725 210.909399 
L 302.13525 199.294733 
L 302.69325 191.837658 
L 302.97225 189.914487 
L 303.25125 189.268125 
L 303.53025 189.914487 
L 303.80925 191.837658 
L 304.36725 199.294733 
L 304.92525 210.909399 
L 306.04125 241.768125 
L 307.15725 272.626851 
L 307.71525 284.241517 
L 308.27325 291.698592 
L 308.55225 293.621763 
L 308.83125 294.268125 
L 309.11025 293.621763 
L 309.38925 291.698592 
L 309.94725 284.241517 
L 310.50525 272.626851 
L 311.62125 241.768125 
L 312.73725 210.909399 
L 313.29525 199.294733 
L 313.85325 191.837658 
L 314.13225 189.914487 
L 314.41125 189.268125 
L 314.69025 189.914487 
L 314.96925 191.837658 
L 315.52725 199.294733 
L 316.08525 210.909399 
L 317.20125 241.768125 
L 318.31725 272.626851 
L 318.87525 284.241517 
L 319.43325 291.698592 
L 319.71225 293.621763 
L 319.99125 294.268125 
L 320.27025 293.621763 
L 320.54925 291.698592 
L 321.10725 284.241517 
L 321.66525 272.626851 
L 323.06025 237.66172 
L 324.17625 223.206572 
L 324.73425 218.379204 
L 325.29225 215.841306 
L 325.57125 215.518125 
L 325.85025 215.841306 
L 326.12925 216.802891 
L 326.68725 220.531429 
L 327.24525 226.338762 
L 328.36125 241.768125 
L 329.47725 257.197488 
L 330.03525 263.004821 
L 330.59325 266.733359 
L 330.87225 267.694944 
L 331.15125 268.018125 
L 331.43025 267.694944 
L 331.70925 266.733359 
L 332.26725 263.004821 
L 332.82525 257.197488 
L 333.94125 241.768125 
L 335.05725 226.338762 
L 335.61525 220.531429 
L 336.17325 216.802891 
L 336.45225 215.841306 
L 336.73125 215.518125 
L 337.01025 215.841306 
L 337.28925 216.802891 
L 337.84725 220.531429 
L 338.40525 226.338762 
L 339.52125 241.768125 
L 340.63725 257.197488 
L 341.19525 263.004821 
L 341.75325 266.733359 
L 342.03225 267.694944 
L 342.31125 268.018125 
L 342.59025 267.694944 
L 342.86925 266.733359 
L 343.42725 263.004821 
L 343.98525 257.197488 
L 345.10125 241.768125 
L 346.21725 226.338762 
L 346.77525 220.531429 
L 347.33325 216.802891 
L 347.61225 215.841306 
L 347.89125 215.518125 
L 348.17025 215.841306 
L 348.44925 216.802891 
L 349.00725 220.531429 
L 349.56525 226.338762 
L 350.68125 241.768125 
L 351.79725 272.626851 
L 352.35525 284.241517 
L 352.91325 291.698592 
L 353.19225 293.621763 
L 353.47125 294.268125 
L 353.75025 293.621763 
L 354.02925 291.698592 
L 354.58725 284.241517 
L 355.14525 272.626851 
L 356.26125 241.768125 
L 357.37725 210.909399 
L 357.93525 199.294733 
L 358.49325 191.837658 
L 358.77225 189.914487 
L 359.05125 189.268125 
L 359.33025 189.914487 
L 359.60925 191.837658 
L 360.16725 199.294733 
L 360.72525 210.909399 
L 361.84125 241.768125 
L 362.95725 272.626851 
L 363.51525 284.241517 
L 364.07325 291.698592 
L 364.35225 293.621763 
L 364.63125 294.268125 
L 364.91025 293.621763 
L 365.18925 291.698592 
L 365.74725 284.241517 
L 366.30525 272.626851 
L 367.42125 241.768125 
L 368.53725 210.909399 
L 369.09525 199.294733 
L 369.65325 191.837658 
L 369.93225 189.914487 
L 370.21125 189.268125 
L 370.49025 189.914487 
L 370.76925 191.837658 
L 371.32725 199.294733 
L 371.88525 210.909399 
L 373.00125 241.768125 
L 374.11725 272.626851 
L 374.67525 284.241517 
L 375.23325 291.698592 
L 375.51225 293.621763 
L 375.79125 294.268125 
L 376.07025 293.621763 
L 376.34925 291.698592 
L 376.90725 284.241517 
L 377.46525 272.626851 
L 378.86025 237.66172 
L 379.97625 223.206572 
L 380.53425 218.379204 
L 381.09225 215.841306 
L 381.37125 215.518125 
L 381.65025 215.841306 
L 381.92925 216.802891 
L 382.48725 220.531429 
L 383.04525 226.338762 
L 384.16125 241.768125 
L 385.27725 257.197488 
L 385.83525 263.004821 
L 386.39325 266.733359 
L 386.67225 267.694944 
L 386.95125 268.018125 
L 387.23025 267.694944 
L 387.50925 266.733359 
L 388.06725 263.004821 
L 388.62525 257.197488 
L 389.74125 241.768125 
L 390.85725 226.338762 
L 391.41525 220.531429 
L 391.97325 216.802891 
L 392.25225 215.841306 
L 392.53125 215.518125 
L 392.81025 215.841306 
L 393.08925 216.802891 
L 393.64725 220.531429 
L 394.20525 226.338762 
L 395.32125 241.768125 
L 396.43725 257.197488 
L 396.99525 263.004821 
L 397.55325 266.733359 
L 397.83225 267.694944 
L 398.11125 268.018125 
L 398.39025 267.694944 
L 398.66925 266.733359 
L 399.22725 263.004821 
L 399.78525 257.197488 
L 400.90125 241.768125 
L 402.01725 226.338762 
L 402.57525 220.531429 
L 403.13325 216.802891 
L 403.41225 215.841306 
L 403.69125 215.518125 
L 403.97025 215.841306 
L 404.24925 216.802891 
L 404.80725 220.531429 
L 405.36525 226.338762 
L 406.48125 241.768125 
L 407.59725 272.626851 
L 408.15525 284.241517 
L 408.71325 291.698592 
L 408.99225 293.621763 
L 409.27125 294.268125 
L 409.55025 293.621763 
L 409.82925 291.698592 
L 410.38725 284.241517 
L 410.94525 272.626851 
L 412.06125 241.768125 
L 413.17725 210.909399 
L 413.73525 199.294733 
L 414.29325 191.837658 
L 414.57225 189.914487 
L 414.85125 189.268125 
L 415.13025 189.914487 
L 415.40925 191.837658 
L 415.96725 199.294733 
L 416.52525 210.909399 
L 417.64125 241.768125 
L 418.75725 272.626851 
L 419.31525 284.241517 
L 419.87325 291.698592 
L 420.15225 293.621763 
L 420.43125 294.268125 
L 420.71025 293.621763 
L 420.98925 291.698592 
L 421.54725 284.241517 
L 422.10525 272.626851 
L 423.22125 241.768125 
L 424.33725 210.909399 
L 424.89525 199.294733 
L 425.45325 191.837658 
L 425.73225 189.914487 
L 426.01125 189.268125 
L 426.29025 189.914487 
L 426.56925 191.837658 
L 427.12725 199.294733 
L 427.68525 210.909399 
L 428.80125 241.768125 
L 429.91725 272.626851 
L 430.47525 284.241517 
L 431.03325 291.698592 
L 431.31225 293.621763 
L 431.59125 294.268125 
L 431.87025 293.621763 
L 432.14925 291.698592 
L 432.70725 284.241517 
L 433.26525 272.626851 
L 434.38125 241.768125 
L 435.49725 210.909399 
L 436.05525 199.294733 
L 436.61325 191.837658 
L 436.89225 189.914487 
L 437.17125 189.268125 
L 437.45025 189.914487 
L 437.72925 191.837658 
L 438.28725 199.294733 
L 438.84525 210.909399 
L 439.96125 241.768125 
L 441.07725 272.626851 
L 441.63525 284.241517 
L 442.19325 291.698592 
L 442.47225 293.621763 
L 442.75125 294.268125 
L 443.03025 293.621763 
L 443.30925 291.698592 
L 443.86725 284.241517 
L 444.42525 272.626851 
L 445.54125 241.768125 
L 446.65725 210.909399 
L 447.21525 199.294733 
L 447.77325 191.837658 
L 448.05225 189.914487 
L 448.33125 189.268125 
L 448.61025 189.914487 
L 448.88925 191.837658 
L 449.44725 199.294733 
L 450.00525 210.909399 
L 451.12125 241.768125 
L 452.23725 272.626851 
L 452.79525 284.241517 
L 453.35325 291.698592 
L 453.63225 293.621763 
L 453.91125 294.268125 
L 454.19025 293.621763 
L 454.46925 291.698592 
L 455.02725 284.241517 
L 455.58525 272.626851 
L 456.70125 241.768125 
L 457.81725 210.909399 
L 458.37525 199.294733 
L 458.93325 191.837658 
L 459.21225 189.914487 
L 459.49125 189.268125 
L 459.77025 189.914487 
L 460.04925 191.837658 
L 460.60725 199.294733 
L 461.16525 210.909399 
L 462.28125 241.768125 
L 463.39725 272.626851 
L 463.95525 284.241517 
L 464.51325 291.698592 
L 464.79225 293.621763 
L 465.07125 294.268125 
L 465.35025 293.621763 
L 465.62925 291.698592 
L 466.18725 284.241517 
L 466.74525 272.626851 
L 467.86125 241.768125 
L 468.97725 210.909399 
L 469.53525 199.294733 
L 470.09325 191.837658 
L 470.37225 189.914487 
L 470.65125 189.268125 
L 470.93025 189.914487 
L 471.20925 191.837658 
L 471.76725 199.294733 
L 472.32525 210.909399 
L 473.44125 241.768125 
L 474.55725 272.626851 
L 475.11525 284.241517 
L 475.67325 291.698592 
L 475.95225 293.621763 
L 476.23125 294.268125 
L 476.51025 293.621763 
L 476.78925 291.698592 
L 477.34725 284.241517 
L 477.90525 272.626851 
L 479.02125 241.768125 
L 480.13725 210.909399 
L 480.69525 199.294733 
L 481.25325 191.837658 
L 481.53225 189.914487 
L 481.81125 189.268125 
L 482.09025 189.914487 
L 482.36925 191.837658 
L 482.92725 199.294733 
L 483.48525 210.909399 
L 484.60125 241.768125 
L 485.71725 272.626851 
L 486.27525 284.241517 
L 486.83325 291.698592 
L 487.11225 293.621763 
L 487.39125 294.268125 
L 487.67025 293.621763 
L 487.94925 291.698592 
L 488.50725 284.241517 
L 489.06525 272.626851 
L 490.18125 241.768125 
L 491.29725 210.909399 
L 491.85525 199.294733 
L 492.41325 191.837658 
L 492.69225 189.914487 
L 492.97125 189.268125 
L 493.25025 189.914487 
L 493.52925 191.837658 
L 494.08725 199.294733 
L 494.64525 210.909399 
L 495.76125 241.768125 
L 496.87725 272.626851 
L 497.43525 284.241517 
L 497.99325 291.698592 
L 498.27225 293.621763 
L 498.55125 294.268125 
L 498.83025 293.621763 
L 499.10925 291.698592 
L 499.66725 284.241517 
L 500.22525 272.626851 
L 501.34125 241.768125 
L 502.45725 210.909399 
L 503.01525 199.294733 
L 503.57325 191.837658 
L 503.85225 189.914487 
L 504.13125 189.268125 
L 504.41025 189.914487 
L 504.68925 191.837658 
L 505.24725 199.294733 
L 505.80525 210.909399 
L 506.92125 241.768125 
L 508.03725 272.626851 
L 508.59525 284.241517 
L 509.15325 291.698592 
L 509.43225 293.621763 
L 509.71125 294.268125 
L 509.99025 293.621763 
L 510.26925 291.698592 
L 510.82725 284.241517 
L 511.38525 272.626851 
L 512.50125 241.768125 
L 513.61725 210.909399 
L 514.17525 199.294733 
L 514.73325 191.837658 
L 515.01225 189.914487 
L 515.29125 189.268125 
L 515.57025 189.914487 
L 515.84925 191.837658 
L 516.40725 199.294733 
L 516.96525 210.909399 
L 518.08125 241.768125 
L 519.19725 272.626851 
L 519.75525 284.241517 
L 520.31325 291.698592 
L 520.59225 293.621763 
L 520.87125 294.268125 
L 521.15025 293.621763 
L 521.42925 291.698592 
L 521.98725 284.241517 
L 522.54525 272.626851 
L 523.66125 241.768125 
L 524.77725 210.909399 
L 525.33525 199.294733 
L 525.89325 191.837658 
L 526.17225 189.914487 
L 526.45125 189.268125 
L 526.73025 189.914487 
L 527.00925 191.837658 
L 527.56725 199.294733 
L 528.12525 210.909399 
L 529.24125 241.768125 
L 530.35725 272.626851 
L 530.91525 284.241517 
L 531.47325 291.698592 
L 531.75225 293.621763 
L 532.03125 294.268125 
L 532.31025 293.621763 
L 532.58925 291.698592 
L 533.14725 284.241517 
L 533.70525 272.626851 
L 534.82125 241.768125 
L 535.93725 210.909399 
L 536.49525 199.294733 
L 537.05325 191.837658 
L 537.33225 189.914487 
L 537.61125 189.268125 
L 537.89025 189.914487 
L 538.16925 191.837658 
L 538.72725 199.294733 
L 539.28525 210.909399 
L 540.40125 241.768125 
L 541.51725 272.626851 
L 542.07525 284.241517 
L 542.63325 291.698592 
L 542.91225 293.621763 
L 543.19125 294.268125 
L 543.47025 293.621763 
L 543.74925 291.698592 
L 544.30725 284.241517 
L 544.86525 272.626851 
L 546.26025 237.66172 
L 547.37625 223.206572 
L 547.93425 218.379204 
L 548.49225 215.841306 
L 548.77125 215.518125 
L 549.05025 215.841306 
L 549.32925 216.802891 
L 549.88725 220.531429 
L 550.44525 226.338762 
L 551.56125 241.768125 
L 552.67725 257.197488 
L 553.23525 263.004821 
L 553.79325 266.733359 
L 554.07225 267.694944 
L 554.35125 268.018125 
L 554.63025 267.694944 
L 554.90925 266.733359 
L 555.46725 263.004821 
L 556.02525 257.197488 
L 557.14125 241.768125 
L 558.25725 226.338762 
L 558.81525 220.531429 
L 559.37325 216.802891 
L 559.65225 215.841306 
L 559.93125 215.518125 
L 560.21025 215.841306 
L 560.48925 216.802891 
L 561.04725 220.531429 
L 561.60525 226.338762 
L 562.72125 241.768125 
L 563.83725 257.197488 
L 564.39525 263.004821 
L 564.95325 266.733359 
L 565.23225 267.694944 
L 565.51125 268.018125 
L 565.79025 267.694944 
L 566.06925 266.733359 
L 566.62725 263.004821 
L 567.18525 257.197488 
L 568.30125 241.768125 
L 569.41725 226.338762 
L 569.97525 220.531429 
L 570.53325 216.802891 
L 570.81225 215.841306 
L 571.09125 215.518125 
L 571.37025 215.841306 
L 571.64925 216.802891 
L 572.20725 220.531429 
L 572.76525 226.338762 
L 573.88125 241.768125 
L 574.99725 272.626851 
L 575.55525 284.241517 
L 576.11325 291.698592 
L 576.39225 293.621763 
L 576.67125 294.268125 
L 576.95025 293.621763 
L 577.22925 291.698592 
L 577.78725 284.241517 
L 578.34525 272.626851 
L 579.46125 241.768125 
L 580.57725 210.909399 
L 581.13525 199.294733 
L 581.69325 191.837658 
L 581.97225 189.914487 
L 582.25125 189.268125 
L 582.53025 189.914487 
L 582.80925 191.837658 
L 583.36725 199.294733 
L 583.92525 210.909399 
L 585.04125 241.768125 
L 586.15725 272.626851 
L 586.71525 284.241517 
L 587.27325 291.698592 
L 587.55225 293.621763 
L 587.83125 294.268125 
L 588.11025 293.621763 
L 588.38925 291.698592 
L 588.94725 284.241517 
L 589.50525 272.626851 
L 590.62125 241.768125 
L 591.73725 210.909399 
L 592.29525 199.294733 
L 592.85325 191.837658 
L 593.13225 189.914487 
L 593.41125 189.268125 
L 593.69025 189.914487 
L 593.96925 191.837658 
L 594.52725 199.294733 
L 595.08525 210.909399 
L 596.20125 241.768125 
L 597.31725 272.626851 
L 597.87525 284.241517 
L 598.43325 291.698592 
L 598.71225 293.621763 
L 598.99125 294.268125 
L 599.27025 293.621763 
L 599.54925 291.698592 
L 600.10725 284.241517 
L 600.66525 272.626851 
L 601.50225 249.980934 
L 601.50225 249.980934 
" style="fill:none;stroke:#1f77b4;stroke-linecap:square;stroke-width:1.5;"/>
   </g>
   <g id="patch_8">
    <path d="M 43.78125 299.518125 
L 43.78125 184.018125 
" style="fill:none;stroke:#000000;stroke-linecap:square;stroke-linejoin:miter;stroke-width:0.8;"/>
   </g>
   <g id="patch_9">
    <path d="M 601.78125 299.518125 
L 601.78125 184.018125 
" style="fill:none;stroke:#000000;stroke-linecap:square;stroke-linejoin:miter;stroke-width:0.8;"/>
   </g>
   <g id="patch_10">
    <path d="M 43.78125 299.518125 
L 601.78125 299.518125 
" style="fill:none;stroke:#000000;stroke-linecap:square;stroke-linejoin:miter;stroke-width:0.8;"/>
   </g>
   <g id="patch_11">
    <path d="M 43.78125 184.018125 
L 601.78125 184.018125 
" style="fill:none;stroke:#000000;stroke-linecap:square;stroke-linejoin:miter;stroke-width:0.8;"/>
   </g>
   <g id="text_53">
    <!-- Wireless Signal -->
    <defs>
     <path d="M 3.328125 72.90625 
L 13.28125 72.90625 
L 28.609375 11.28125 
L 43.890625 72.90625 
L 54.984375 72.90625 
L 70.3125 11.28125 
L 85.59375 72.90625 
L 95.609375 72.90625 
L 77.296875 0 
L 64.890625 0 
L 49.515625 63.28125 
L 33.984375 0 
L 21.578125 0 
z
" id="DejaVuSans-87"/>
     <path d="M 44.28125 53.078125 
L 44.28125 44.578125 
Q 40.484375 46.53125 36.375 47.5 
Q 32.28125 48.484375 27.875 48.484375 
Q 21.1875 48.484375 17.84375 46.4375 
Q 14.5 44.390625 14.5 40.28125 
Q 14.5 37.15625 16.890625 35.375 
Q 19.28125 33.59375 26.515625 31.984375 
L 29.59375 31.296875 
Q 39.15625 29.25 43.1875 25.515625 
Q 47.21875 21.78125 47.21875 15.09375 
Q 47.21875 7.46875 41.1875 3.015625 
Q 35.15625 -1.421875 24.609375 -1.421875 
Q 20.21875 -1.421875 15.453125 -0.5625 
Q 10.6875 0.296875 5.421875 2 
L 5.421875 11.28125 
Q 10.40625 8.6875 15.234375 7.390625 
Q 20.0625 6.109375 24.8125 6.109375 
Q 31.15625 6.109375 34.5625 8.28125 
Q 37.984375 10.453125 37.984375 14.40625 
Q 37.984375 18.0625 35.515625 20.015625 
Q 33.0625 21.96875 24.703125 23.78125 
L 21.578125 24.515625 
Q 13.234375 26.265625 9.515625 29.90625 
Q 5.8125 33.546875 5.8125 39.890625 
Q 5.8125 47.609375 11.28125 51.796875 
Q 16.75 56 26.8125 56 
Q 31.78125 56 36.171875 55.265625 
Q 40.578125 54.546875 44.28125 53.078125 
z
" id="DejaVuSans-115"/>
     <path d="M 53.515625 70.515625 
L 53.515625 60.890625 
Q 47.90625 63.578125 42.921875 64.890625 
Q 37.9375 66.21875 33.296875 66.21875 
Q 25.25 66.21875 20.875 63.09375 
Q 16.5 59.96875 16.5 54.203125 
Q 16.5 49.359375 19.40625 46.890625 
Q 22.3125 44.4375 30.421875 42.921875 
L 36.375 41.703125 
Q 47.40625 39.59375 52.65625 34.296875 
Q 57.90625 29 57.90625 20.125 
Q 57.90625 9.515625 50.796875 4.046875 
Q 43.703125 -1.421875 29.984375 -1.421875 
Q 24.8125 -1.421875 18.96875 -0.25 
Q 13.140625 0.921875 6.890625 3.21875 
L 6.890625 13.375 
Q 12.890625 10.015625 18.65625 8.296875 
Q 24.421875 6.59375 29.984375 6.59375 
Q 38.421875 6.59375 43.015625 9.90625 
Q 47.609375 13.234375 47.609375 19.390625 
Q 47.609375 24.75 44.3125 27.78125 
Q 41.015625 30.8125 33.5 32.328125 
L 27.484375 33.5 
Q 16.453125 35.6875 11.515625 40.375 
Q 6.59375 45.0625 6.59375 53.421875 
Q 6.59375 63.09375 13.40625 68.65625 
Q 20.21875 74.21875 32.171875 74.21875 
Q 37.3125 74.21875 42.625 73.28125 
Q 47.953125 72.359375 53.515625 70.515625 
z
" id="DejaVuSans-83"/>
     <path d="M 45.40625 27.984375 
Q 45.40625 37.75 41.375 43.109375 
Q 37.359375 48.484375 30.078125 48.484375 
Q 22.859375 48.484375 18.828125 43.109375 
Q 14.796875 37.75 14.796875 27.984375 
Q 14.796875 18.265625 18.828125 12.890625 
Q 22.859375 7.515625 30.078125 7.515625 
Q 37.359375 7.515625 41.375 12.890625 
Q 45.40625 18.265625 45.40625 27.984375 
z
M 54.390625 6.78125 
Q 54.390625 -7.171875 48.1875 -13.984375 
Q 42 -20.796875 29.203125 -20.796875 
Q 24.46875 -20.796875 20.265625 -20.09375 
Q 16.0625 -19.390625 12.109375 -17.921875 
L 12.109375 -9.1875 
Q 16.0625 -11.328125 19.921875 -12.34375 
Q 23.78125 -13.375 27.78125 -13.375 
Q 36.625 -13.375 41.015625 -8.765625 
Q 45.40625 -4.15625 45.40625 5.171875 
L 45.40625 9.625 
Q 42.625 4.78125 38.28125 2.390625 
Q 33.9375 0 27.875 0 
Q 17.828125 0 11.671875 7.65625 
Q 5.515625 15.328125 5.515625 27.984375 
Q 5.515625 40.671875 11.671875 48.328125 
Q 17.828125 56 27.875 56 
Q 33.9375 56 38.28125 53.609375 
Q 42.625 51.21875 45.40625 46.390625 
L 45.40625 54.6875 
L 54.390625 54.6875 
z
" id="DejaVuSans-103"/>
     <path d="M 54.890625 33.015625 
L 54.890625 0 
L 45.90625 0 
L 45.90625 32.71875 
Q 45.90625 40.484375 42.875 44.328125 
Q 39.84375 48.1875 33.796875 48.1875 
Q 26.515625 48.1875 22.3125 43.546875 
Q 18.109375 38.921875 18.109375 30.90625 
L 18.109375 0 
L 9.078125 0 
L 9.078125 54.6875 
L 18.109375 54.6875 
L 18.109375 46.1875 
Q 21.34375 51.125 25.703125 53.5625 
Q 30.078125 56 35.796875 56 
Q 45.21875 56 50.046875 50.171875 
Q 54.890625 44.34375 54.890625 33.015625 
z
" id="DejaVuSans-110"/>
    </defs>
    <g transform="translate(277.079063 178.018125)scale(0.12 -0.12)">
     <use xlink:href="#DejaVuSans-87"/>
     <use x="98.845703" xlink:href="#DejaVuSans-105"/>
     <use x="126.628906" xlink:href="#DejaVuSans-114"/>
     <use x="167.710938" xlink:href="#DejaVuSans-101"/>
     <use x="229.234375" xlink:href="#DejaVuSans-108"/>
     <use x="257.017578" xlink:href="#DejaVuSans-101"/>
     <use x="318.541016" xlink:href="#DejaVuSans-115"/>
     <use x="370.640625" xlink:href="#DejaVuSans-115"/>
     <use x="422.740234" xlink:href="#DejaVuSans-32"/>
     <use x="454.527344" xlink:href="#DejaVuSans-83"/>
     <use x="518.003906" xlink:href="#DejaVuSans-105"/>
     <use x="545.787109" xlink:href="#DejaVuSans-103"/>
     <use x="609.263672" xlink:href="#DejaVuSans-110"/>
     <use x="672.642578" xlink:href="#DejaVuSans-97"/>
     <use x="733.921875" xlink:href="#DejaVuSans-108"/>
    </g>
   </g>
  </g>
 </g>
 <defs>
  <clipPath id="p7cd2fe6e8d">
   <rect height="115.5" width="558" x="43.78125" y="22.318125"/>
  </clipPath>
  <clipPath id="pd086b8f2a8">
   <rect height="115.5" width="558" x="43.78125" y="184.018125"/>
  </clipPath>
 </defs>
</svg>
