<?xml version="1.0" encoding="utf-8"?>
<!-- Generator: Adobe Illustrator 25.2.3, SVG Export Plug-In . SVG Version: 6.00 Build 0)  -->
<svg version="1.1" id="Layer_1" xmlns="http://www.w3.org/2000/svg" xmlns:xlink="http://www.w3.org/1999/xlink" x="0px" y="0px"
	 viewBox="0 0 900 900" style="enable-background:new 0 0 900 900;" xml:space="preserve">
<style type="text/css">
	.st0{clip-path:url(#SVGID_2_);fill:#FBBC05;}
	.st1{clip-path:url(#SVGID_4_);fill:#EA4335;}
	.st2{clip-path:url(#SVGID_6_);fill:#34A853;}
	.st3{clip-path:url(#SVGID_8_);fill:#4285F4;}
</style>
<g>
	<g>
		<defs>
			<path id="SVGID_1_" d="M868.1,373.2H462.6v168.2h233.5c-21.8,106.8-112.8,168.2-233.5,168.2c-142.4,0-257.2-114.8-257.2-257.2
				s114.8-257.2,257.2-257.2c61.3,0,116.7,21.8,160.2,57.3l126.6-126.6C672.3,58.5,573.3,17,462.6,17
				C221.2,17,27.4,210.9,27.4,452.2s193.9,435.2,435.2,435.2c217.7,0,415.4-158.2,415.4-435.2C878,426.7,874,399,868.1,373.2z"/>
		</defs>
		<clipPath id="SVGID_2_">
			<use xlink:href="#SVGID_1_"  style="overflow:visible;"/>
		</clipPath>
		<path class="st0" d="M-12.3,709.6V195.3L324,452.5L-12.3,709.6z"/>
	</g>
</g>
<g>
	<g>
		<defs>
			<path id="SVGID_3_" d="M868.1,373.2H462.6v168.2h233.5c-21.8,106.8-112.8,168.2-233.5,168.2c-142.4,0-257.2-114.8-257.2-257.2
				s114.8-257.2,257.2-257.2c61.3,0,116.7,21.8,160.2,57.3l126.6-126.6C672.3,58.5,573.3,17,462.6,17
				C221.2,17,27.4,210.9,27.4,452.2s193.9,435.2,435.2,435.2c217.7,0,415.4-158.2,415.4-435.2C878,426.7,874,399,868.1,373.2z"/>
		</defs>
		<clipPath id="SVGID_4_">
			<use xlink:href="#SVGID_3_"  style="overflow:visible;"/>
		</clipPath>
		<path class="st1" d="M-12.3,195.3L324,452.5l138.4-120.6l474.8-77.1V-22.4H-12.3V195.3z"/>
	</g>
</g>
<g>
	<g>
		<defs>
			<path id="SVGID_5_" d="M868.1,373.2H462.6v168.2h233.5c-21.8,106.8-112.8,168.2-233.5,168.2c-142.4,0-257.2-114.8-257.2-257.2
				s114.8-257.2,257.2-257.2c61.3,0,116.7,21.8,160.2,57.3l126.6-126.6C672.3,58.5,573.3,17,462.6,17
				C221.2,17,27.4,210.9,27.4,452.2s193.9,435.2,435.2,435.2c217.7,0,415.4-158.2,415.4-435.2C878,426.7,874,399,868.1,373.2z"/>
		</defs>
		<clipPath id="SVGID_6_">
			<use xlink:href="#SVGID_5_"  style="overflow:visible;"/>
		</clipPath>
		<path class="st2" d="M-12.3,709.6l593.5-455l156.4,19.8L937.5-22.4v949.6H-12.3V709.6z"/>
	</g>
</g>
<g>
	<g>
		<defs>
			<path id="SVGID_7_" d="M868.1,373.2H462.6v168.2h233.5c-21.8,106.8-112.8,168.2-233.5,168.2c-142.4,0-257.2-114.8-257.2-257.2
				s114.8-257.2,257.2-257.2c61.3,0,116.7,21.8,160.2,57.3l126.6-126.6C672.3,58.5,573.3,17,462.6,17
				C221.2,17,27.4,210.9,27.4,452.2s193.9,435.2,435.2,435.2c217.7,0,415.4-158.2,415.4-435.2C878,426.7,874,399,868.1,373.2z"/>
		</defs>
		<clipPath id="SVGID_8_">
			<use xlink:href="#SVGID_7_"  style="overflow:visible;"/>
		</clipPath>
		<path class="st3" d="M937.3,927.2L324,452.5l-79.1-59.3l692.4-197.9L937.3,927.2L937.3,927.2z"/>
	</g>
</g>
</svg>
