<?xml version="1.0" encoding="utf-8"?>
<!-- Generator: Adobe Illustrator 25.2.3, SVG Export Plug-In . SVG Version: 6.00 Build 0)  -->
<svg version="1.1" id="Layer_1" xmlns="http://www.w3.org/2000/svg" xmlns:xlink="http://www.w3.org/1999/xlink" x="0px" y="0px"
	 viewBox="0 0 900 900" style="enable-background:new 0 0 900 900;" xml:space="preserve">
<style type="text/css">
	.st0{fill:#FFFFFF;}
	.st1{fill:#A51C30;}
</style>
<g>
	<path class="st0" d="M830.2,11.3H77.1L77.4,221h0l0.2,81.4c2.9,49.6,8.6,90.9,18.6,133.2h-0.6l8.7,31.3
		c11.8,42.2,27.2,82.8,46.1,120.8l3.5,7C229.2,742.5,340.9,823.9,401,859.3l7.7,4.5c22,12.5,37.1,18.9,38.2,19.3l11.7,4.9l10.8-6.7
		c28.9-17.9,56.5-37,82-56.8l1.8-1.4c84.4-65.7,151-142.1,198.5-228.1l22.6-45.2c18.1-39.9,31.9-81.2,41.2-122.7l1-4.6
		c11.2-51.7,13.6-94.5,13.6-121.5l-0.4-60.2L830.2,11.3z"/>
	<path class="st1" d="M755.3,541.2L755.3,541.2c-0.8,1.7-1.6,3.5-2.4,5.2L755.3,541.2z"/>
	<path d="M105.6,274l-7.2,1.7c0,4.6,0,25.4,0,25.4c3.4,57.5,10.7,104.4,24.6,155.3l7.8,0c-14.1-51.4-21.8-98-25.3-155.5L105.6,274z"
		/>
	<path class="st1" d="M801.7,280.8l-0.3,0.1l0,0c-2.7,1.1-5.2,1.5-7.5,1.5h0c-5.2,0-9-2.6-11.2-4.9c-1-1.1-1.7-2.1-2.2-2.9
		c-8.1,2.5-16.5,4.5-21.3,6.4c-2.7,1.1-5.2,1.5-7.5,1.5h0c-5.2,0-9-2.6-11.2-4.9c-1-1.1-1.7-2.1-2.2-2.9c-8,2.5-16.4,4.4-21.2,6.3
		c-2.7,1.1-5.2,1.5-7.4,1.5h-0.1c-5.2,0-9-2.6-11.2-4.9c-1.1-1.2-1.9-2.3-2.4-3.2c-8.4,2.6-17.2,4.7-22.2,6.7
		c-2.7,1.1-5.2,1.5-7.4,1.5h-0.1c-5.2,0-9-2.6-11.2-4.9c-0.9-0.9-1.5-1.8-2-2.6l-0.4,0.1l0,0c-7.6,2.3-15.4,4.2-19.8,6
		c-2.7,1.1-5.2,1.5-7.5,1.5h0c-5.2,0-9-2.6-11.2-4.9c-0.9-1-1.5-1.9-2.1-2.7l-0.5,0.1l0,0c-7.7,2.3-15.6,4.2-20.2,6
		c-2.7,1.1-5.2,1.5-7.5,1.5h0c-5.2,0-9-2.5-11.2-4.9c-1-1.1-1.7-2.1-2.2-2.9c-8,2.5-16.4,4.4-21.2,6.3c-2.7,1.1-5.2,1.5-7.5,1.5
		h-0.1c-1.9,0-3.6-0.3-5.1-0.9c-4.2,3.1-8.5,6.3-12.7,9.4c-9.7,7.2-18.3,13.7-21.7,16.2v16v33.4v23.9c4.1-2,9.8-4.7,14.2-6.6
		c3.2-1.4,6.5-2.4,10.1-2.5c3.3,0,7,1.1,9.5,4.1c2.5,2.9,3.9,7,4.3,12.3c0.4,5.9,0.7,10.7,0.7,14.9c0,7.9-0.9,13.6-3.7,18.4
		c-2.8,4.8-7,8.1-12.6,12.2c-10.8,7.7-19.1,13.9-22.4,16.3v6.7l79.2,0h16c2.4-3.3,8.6-11.6,16.3-22.4c4-5.6,7.4-9.9,12.2-12.6
		c4.8-2.8,10.5-3.7,18.5-3.7c4.2,0,9,0.3,14.8,0.7c5.3,0.4,9.4,1.7,12.3,4.3c2.9,2.5,4.1,6.2,4.1,9.5c0,3.5-1.1,6.9-2.5,10.1
		c-1.9,4.4-4.6,10-6.6,14.2h23.9h30.7h16c2.5-3.3,8.6-11.6,16.3-22.4c4.1-5.6,7.4-9.9,12.2-12.6c4.8-2.8,10.6-3.6,18.5-3.6
		c1.3,0,2.6,0,4,0.1h0.2c10-45.7,13.2-85.8,13.2-116.7V280.8z"/>
	<path class="st1" d="M663.1,676.3c24-29.9,44-59.8,60.6-89.3c-4.8,0.3-8.9,0.5-12.4,0.5c-7.9,0-13.6-0.9-18.4-3.6
		c-0.1-0.1-0.2-0.2-0.3-0.2c-4.5-2.7-7.8-6.7-11.6-12.1c-0.1-0.1-0.1-0.2-0.2-0.3c-7.7-10.8-13.9-19.2-16.3-22.5h-15.9h-23.2h-23.9
		c0,0.1,0.1,0.3,0.2,0.4c1.8,3.7,4.1,8.4,5.8,12.4c0.2,0.5,0.4,0.9,0.6,1.4c0.1,0.2,0.2,0.4,0.3,0.7c1.2,3,2.1,6.2,2.2,9.4
		c0,3.3-1.1,7-4.1,9.5c0,0,0,0,0,0c-0.3,0.2-0.5,0.4-0.8,0.6c-0.1,0.1-0.3,0.2-0.4,0.3c-0.1,0.1-0.2,0.2-0.3,0.2
		c-2.6,1.7-6,2.7-10.3,3.1c-0.2,0-0.4,0-0.6,0c-5.9,0.4-10.8,0.7-14.9,0.7c-7.9,0-13.6-0.9-18.4-3.6c-1.2-0.7-2.3-1.5-3.3-2.4
		c-1.2-1-2.4-2.1-3.5-3.4c-1.8-2-3.5-4.2-5.3-6.8c-2.1-3-4.2-5.8-6-8.4c-4.8-6.6-8.5-11.7-10.3-14.1h-15.9h-13.8v38.4v69.3
		c4.1-2,9.8-4.7,14.2-6.6c0.3-0.1,0.6-0.3,1-0.4c2.9-1.1,5.9-2,9-2c2.8,0,5.7,0.8,8.1,2.7c0.1,0.1,0.3,0.2,0.4,0.4
		c0,0,0.1,0.1,0.1,0.1c0.3,0.3,0.6,0.6,0.9,0.9c0.7,0.7,1.2,1.5,1.7,2.4c0.9,1.5,1.5,3.3,1.9,5.3c0.3,1.4,0.5,3,0.7,4.6
		c0.4,5.9,0.7,10.7,0.7,14.9c0,1.8,0,3.6-0.2,5.2c-0.4,5.3-1.4,9.5-3.5,13.2c-2.8,4.8-7,8.1-12.6,12.2c-9.5,6.8-17.2,12.4-21.1,15.3
		c-0.5,0.4-0.9,0.7-1.3,1v16V775V799c4.1-2,9.8-4.7,14.2-6.6c2.2-1,4.4-1.7,6.7-2.1c1.1-0.2,2.1-0.3,3.2-0.3c3.2,0,6.6,1,9.1,3.6
		c0,0,0,0.1,0.1,0.1c1.2,1.3,2.2,2.9,3,4.7C588.8,758.9,629.8,717.7,663.1,676.3"/>
	<path class="st1" d="M411.4,832.4v-50.1c-1.6-1.2-4.5-3.3-8.2-6c-3.9-2.8-8.7-6.4-14.2-10.3h0c-4.2-3.1-7.7-5.7-10.3-8.9
		c-0.9-1.1-1.7-2.1-2.3-3.3c-1.6-2.7-2.5-5.7-3.1-9.2c-0.3-2-0.5-4.2-0.6-6.6c0-0.8,0-1.7,0-2.7c0-0.4,0-0.8,0-1.2
		c0-3.9,0.3-8.4,0.6-13.7c0-0.5,0.1-1,0.1-1.5c0.5-4.6,1.8-8.2,4.2-10.8c1.7-1.9,3.8-3.1,6-3.7c1.2-0.3,2.4-0.4,3.6-0.4
		c3.5,0,6.9,1.1,10,2.5c1,0.4,2,0.9,3.1,1.4c1.1,0.5,2.3,1.1,3.5,1.6c2.7,1.3,5.4,2.6,7.7,3.7v-24v-23.8v-16
		c-1.8-1.4-5.2-3.9-9.8-7.2c-3.6-2.6-7.9-5.7-12.7-9.1c-1.5-1.1-2.9-2.1-4.2-3.1c-3.6-2.8-6.3-5.5-8.4-9c-1.5-2.7-2.5-5.6-3-9
		c-0.4-2-0.6-4.2-0.6-6.7c0-0.9,0-1.8,0-2.8v-1.2c0-3.9,0.3-8.4,0.7-13.7c0-0.6,0.1-1.1,0.2-1.6c0.5-4.6,1.8-8.1,4.1-10.7
		c2.5-2.9,6.2-4.1,9.5-4.1c0.4,0,0.9,0,1.3,0c0,0,0,0,0,0h0.1c2.8,0.2,5.4,1.1,8,2.1c0.3,0.1,0.5,0.2,0.7,0.3
		c4.3,1.9,10,4.6,14.2,6.6v-31.4h-59.7h-15.9c-1.7,2.3-5.2,6.9-9.6,13.1c-2.1,2.8-4.3,6-6.7,9.3c-4,5.6-7.3,9.8-12.1,12.6
		c-4.8,2.8-10.5,3.7-18.4,3.6c-2.1,0-4.4,0-6.9-0.2c-2.5-0.1-5.1-0.3-8.1-0.5c-0.4,0-0.8-0.1-1.2-0.1c-4.7-0.5-8.4-1.8-11.1-4.1
		c-1.1-1-2-2.1-2.6-3.3c-1.1-2-1.5-4.2-1.5-6.3c0-0.6,0-1.1,0.1-1.7c0.3-2.5,1-5,2-7.4c0.1-0.3,0.3-0.7,0.4-1c1-2.2,2.1-4.7,3.3-7.3
		c1.2-2.4,2.3-4.8,3.3-6.9h-23.9h-23.9h-16c-1.1,1.4-2.8,3.9-5.2,7c-0.3,0.4-0.7,0.9-1,1.4c-2.8,3.9-6.3,8.7-10.2,14.1
		c0,0.1-0.1,0.2-0.2,0.3c-0.5,0.7-1,1.4-1.5,2c-0.2,0.2-0.3,0.5-0.5,0.7c-0.6,0.7-1.1,1.5-1.7,2.1c-0.1,0.1-0.1,0.2-0.2,0.3
		c-0.5,0.6-1,1.2-1.5,1.7c-0.1,0.2-0.3,0.3-0.4,0.5c-0.6,0.6-1.1,1.2-1.8,1.8c0,0,0,0-0.1,0.1C248.8,719.1,352.1,796.8,411.4,832.4"
		/>
	<path d="M419,845.6L419,845.6c-1.7-1-3.5-2-5.3-3.1L419,845.6z"/>
	<path d="M169,578.4l1.5,2.9C170,580.4,169.5,579.4,169,578.4L169,578.4z"/>
	<path d="M387.2,704.1c-1.2,0-2.4,0.1-3.6,0.4C384.8,704.2,386,704.1,387.2,704.1c3.5,0,6.9,1.1,10,2.5c1,0.4,2,0.9,3.1,1.4
		c-1.1-0.5-2.1-1-3.1-1.4C394,705.2,390.7,704.1,387.2,704.1"/>
	<path d="M403.2,776.3c-3.9-2.8-8.7-6.4-14.2-10.3C394.5,769.9,399.3,773.4,403.2,776.3"/>
	<path d="M372.7,734.2c0-3.9,0.3-8.4,0.6-13.7c0-0.5,0.1-1,0.2-1.5c-0.1,0.5-0.1,1-0.2,1.5C373,725.8,372.7,730.3,372.7,734.2"/>
	<path d="M411.4,665.3v23.9v23.9c-2.2-1.1-4.9-2.4-7.7-3.6c2.7,1.3,5.4,2.5,7.7,3.6v-23.9V665.3v-15.9c-1.8-1.4-5.2-3.9-9.8-7.2
		c4.5,3.3,7.9,5.8,9.8,7.2V665.3z"/>
	<path d="M389,766L389,766c-4.2-3.1-7.7-5.7-10.3-8.9C381.3,760.3,384.7,762.9,389,766"/>
	<path d="M384.8,629.9c-3.6-2.8-6.3-5.5-8.4-9C378.4,624.4,381.2,627.1,384.8,629.9"/>
	<path d="M196.6,557.2c-2.8,3.9-6.3,8.7-10.2,14.1c0,0.1-0.1,0.2-0.2,0.3c0.1-0.1,0.2-0.2,0.2-0.3
		C190.4,565.8,193.8,561,196.6,557.2"/>
	<path d="M372.7,738.1c0,2.4,0.3,4.6,0.6,6.5C373,742.6,372.8,740.4,372.7,738.1"/>
	<path d="M307.3,583.8c4.8-2.8,8.1-7,12.1-12.6C315.4,576.8,312.1,581,307.3,583.8c-4.8,2.8-10.5,3.6-18.4,3.6c-2.1,0-4.4,0-6.9-0.2
		c2.5,0.1,4.8,0.2,6.9,0.2C296.8,587.5,302.5,586.6,307.3,583.8"/>
	<path d="M372.7,601.2c0-3.9,0.3-8.4,0.7-13.7c0-0.6,0.1-1.1,0.2-1.6c-0.1,0.5-0.1,1.1-0.2,1.6C373,592.8,372.7,597.3,372.7,601.2"
		/>
	<path d="M261.6,582.6c2.7,2.4,6.4,3.7,11.1,4.1C268,586.2,264.3,584.9,261.6,582.6c-1.1-1-2-2.1-2.6-3.2
		C259.7,580.5,260.5,581.6,261.6,582.6"/>
	<path d="M180.9,578.4c-0.1,0.2-0.3,0.3-0.4,0.5C180.6,578.7,180.7,578.5,180.9,578.4"/>
	<path d="M184.3,574.2c0.2-0.2,0.4-0.5,0.5-0.7C184.6,573.8,184.5,574,184.3,574.2"/>
	<path d="M266.6,548.8c-1,2.1-2.1,4.4-3.3,6.9C264.5,553.2,265.6,550.8,266.6,548.8"/>
	<path d="M182.4,576.7c0.1-0.1,0.1-0.2,0.2-0.3C182.5,576.5,182.4,576.5,182.4,576.7"/>
	<path d="M259.6,563.9c-1,2.4-1.7,4.9-2,7.4C257.9,568.8,258.6,566.3,259.6,563.9"/>
	<path d="M372.7,605.2c0,2.4,0.3,4.6,0.6,6.7C373,609.9,372.8,607.6,372.7,605.2"/>
	<path d="M396.5,573.3c-2.5-1.1-5.2-1.9-8-2.1C391.3,571.4,394,572.2,396.5,573.3"/>
	<path d="M335.8,548.8c-1.7,2.3-5.1,6.9-9.6,13.1C330.6,555.7,334.1,551,335.8,548.8"/>
	<path d="M388.5,571.2C388.5,571.2,388.5,571.2,388.5,571.2C388.5,571.2,388.5,571.2,388.5,571.2"/>
</g>
<path d="M411.4,580.2v-31.4V580.2z"/>
<g>
	<path d="M726.1,586.8c-0.9,0.1-1.7,0.1-2.5,0.2c-16.6,29.5-36.6,59.5-60.6,89.4c-33.3,41.4-74.2,82.6-124.5,122.1
		c0.7,1.8,1.2,3.8,1.5,6.1l0.3,2.1l-0.1,0.1c90.8-70.7,152.3-147.8,192.8-221l-1.7,0.4C729.9,586.4,728.1,586.7,726.1,586.8"/>
	<path d="M765.8,421.5c-4.8,2.8-8.1,7-12.2,12.6c-7.7,10.8-13.9,19.2-16.3,22.5h-16h-30.7h-23.9c2-4.2,4.7-9.9,6.6-14.2
		c1.4-3.2,2.4-6.6,2.5-10.1c0-3.3-1.1-7-4.1-9.5c-2.9-2.5-7-3.9-12.3-4.3c-5.9-0.4-10.7-0.7-14.8-0.7c-8,0-13.6,0.9-18.5,3.7
		c-4.8,2.8-8.1,7-12.2,12.6c-7.7,10.8-13.9,19.2-16.3,22.5h-16l-79.2-0.1v-6.7c3.3-2.4,11.6-8.6,22.4-16.3c5.6-4,9.8-7.3,12.6-12.1
		c2.8-4.8,3.7-10.5,3.7-18.5c0-4.2-0.2-9-0.7-14.9c-0.4-5.4-1.8-9.4-4.3-12.3c-2.5-2.9-6.2-4.1-9.5-4.1c-3.5,0-6.9,1.1-10.1,2.5
		c-4.4,1.9-10.1,4.6-14.2,6.6v-23.9v-33.4v-16c3.4-2.5,12-9,21.7-16.2c4.2-3.1,8.4-6.3,12.7-9.4c-2.6-1-4.7-2.5-6.1-4.1
		c-1.1-1.2-1.8-2.3-2.4-3.2l-0.6,0.2v-0.1c-8.2,2.5-16.8,4.5-21.6,6.5c-2.7,1.1-5.2,1.5-7.5,1.5h0c-5.2,0-9-2.6-11.2-5
		c-0.9-0.9-1.5-1.8-2-2.6l-0.4,0.1l0,0c-7.6,2.3-15.4,4.2-19.9,5.9c-2.7,1.1-5.2,1.5-7.5,1.5h0c-5.2,0-9-2.6-11.2-5
		c-1.2-1.2-1.9-2.4-2.5-3.4l-0.6,0.2l0,0c-8.3,2.6-17.1,4.6-22,6.6c-2.7,1.1-5.2,1.5-7.4,1.5h-0.1c-0.8,0-1.5-0.1-2.2-0.2v18.4v23.9
		c-1.2-0.6-2.5-1.2-3.8-1.8c-3.4-1.7-7.3-3.4-10.4-4.8c-3.2-1.4-6.5-2.4-10-2.5c0,0-0.1,0-0.1,0c-3.3,0-6.9,1.2-9.4,4c0,0,0,0,0,0
		c-2.1,2.4-3.3,5.5-4,9.5c-0.1,0.9-0.3,1.8-0.3,2.8c-0.4,4.8-0.6,8.9-0.7,12.5c0,0.8,0,1.6,0,2.4c0,7.9,0.9,13.6,3.7,18.4
		c1.7,3,4,5.4,6.9,7.8c0.7,0.6,1.5,1.2,2.3,1.8c1.1,0.8,2.2,1.7,3.4,2.5c3.2,2.3,6.2,4.4,8.9,6.4c0.2,0.2,0.4,0.3,0.7,0.5
		c6,4.4,10.6,7.8,12.9,9.5v15.9v46.8h-19.7c-2.5-3.3-8.6-11.6-16.3-22.5c-1.4-2-2.7-3.7-4-5.3c-2.5-3-5-5.5-8.1-7.3
		c-2.8-1.6-5.8-2.5-9.4-3.1c-2.7-0.4-5.7-0.6-9.1-0.6c-1.6,0-3.2,0-5,0.1c-3,0.1-6.2,0.3-9.9,0.6c-5.3,0.4-9.4,1.8-12.3,4.3
		c-1.4,1.2-2.4,2.7-3.1,4.2c-0.7,1.7-1,3.5-1,5.2v0v0.2c0,3.4,1.1,6.7,2.4,9.9c0.5,1.2,1.1,2.5,1.8,3.9c1.6,3.5,3.4,7.3,4.9,10.3
		h-23.9h-33.4h-16c-2.4-3.3-8.6-11.6-16.3-22.5c-0.3-0.4-0.6-0.9-0.9-1.3c-2.6-3.5-4.9-6.4-7.6-8.8c-0.1-0.1-0.2-0.1-0.3-0.2
		c0,0,0,0,0,0c-1.1-0.9-2.1-1.6-3.3-2.3c-0.7-0.4-1.4-0.7-2.2-1.1c-2.5-1.1-5.3-1.8-8.6-2.2c-2.4-0.3-4.9-0.4-7.7-0.4
		c-1.5,0-3.1,0-4.8,0.1c-3,0.1-6.3,0.3-10,0.6c-5.3,0.4-9.4,1.8-12.3,4.3c-2.1,1.8-3.3,4.3-3.8,6.8c-0.2,0.9-0.3,1.8-0.3,2.8
		c0,3.5,1.1,6.9,2.5,10.1c1.9,4.4,4.6,10,6.6,14.2h-49.1H123l1.3,4.8c12,43,27.2,82,44.6,117.1c0.5,1,1,2,1.4,2.9l2,3.9v0l3.6-2.5
		c0.9-0.7,1.8-1.4,2.7-2.2c0.6-0.6,1.2-1.1,1.8-1.7c0.1-0.2,0.3-0.3,0.4-0.5c0.5-0.6,1-1.1,1.5-1.7c0.1-0.1,0.1-0.2,0.2-0.3
		c0.6-0.7,1.1-1.4,1.7-2.1c0.2-0.3,0.4-0.5,0.5-0.7c0.5-0.6,1-1.3,1.5-2c0.1-0.1,0.2-0.2,0.2-0.3c3.9-5.4,7.4-10.2,10.2-14.1
		c0.4-0.5,0.7-0.9,1-1.4c2.3-3.2,4.1-5.6,5.2-7h15.9h23.9h23.9c-1,2.1-2.1,4.4-3.3,6.9c-1.2,2.5-2.4,5.1-3.3,7.3
		c-0.1,0.3-0.3,0.6-0.4,1c-1,2.4-1.7,4.9-2,7.4c0,0.5-0.1,1.1-0.1,1.7c0,2.1,0.5,4.3,1.5,6.3c0.6,1.2,1.5,2.3,2.6,3.2
		c2.7,2.4,6.4,3.7,11.1,4.2c0.4,0,0.8,0.1,1.2,0.1c2.9,0.2,5.6,0.4,8.1,0.5c2.5,0.1,4.8,0.2,6.9,0.2c7.9,0,13.6-0.9,18.4-3.6
		c4.8-2.8,8.1-7,12.1-12.6c2.4-3.4,4.6-6.5,6.7-9.3c4.5-6.2,8-10.9,9.6-13.1h15.9h59.7v31.4c-4.2-2-9.8-4.7-14.2-6.6
		c-0.2-0.1-0.5-0.2-0.7-0.3c-2.5-1.1-5.2-1.9-8-2.1h-0.1c0,0,0,0,0,0c-0.4,0-0.8,0-1.3,0c-3.3,0-7,1.1-9.5,4.1
		c-2.3,2.6-3.6,6.1-4.1,10.7c-0.1,0.5-0.1,1.1-0.2,1.6c-0.4,5.3-0.6,9.8-0.7,13.7v1.2c0,1,0,1.9,0,2.8c0,2.4,0.3,4.6,0.6,6.7
		c0.6,3.4,1.5,6.3,3,9c2.1,3.5,4.8,6.3,8.4,9c1.3,1,2.7,2.1,4.2,3.2c4.8,3.4,9.1,6.5,12.7,9.1c4.5,3.3,7.9,5.8,9.8,7.2v15.9v23.9
		v23.9c-2.2-1.1-4.9-2.4-7.7-3.6c-1.1-0.5-2.3-1.1-3.4-1.6c-1.1-0.5-2.1-1-3.1-1.4c-3.2-1.4-6.5-2.4-10-2.5c-1.2,0-2.4,0.1-3.6,0.4
		c-2.2,0.6-4.3,1.8-6,3.6c-2.3,2.6-3.6,6.2-4.2,10.9c0,0.5-0.1,1-0.1,1.5c-0.4,5.3-0.6,9.8-0.7,13.7c0,0.4,0,0.8,0,1.2
		c0,0.9,0,1.8,0,2.7c0,2.4,0.3,4.6,0.5,6.5c0.6,3.5,1.5,6.5,3.1,9.2c0.7,1.2,1.4,2.2,2.3,3.3c2.6,3.2,6,5.8,10.3,8.9h0
		c5.5,3.9,10.4,7.4,14.2,10.3c3.7,2.8,6.6,4.8,8.2,6v0v58.9l1.9,1.1c0.1,0.1,0.2,0.1,0.4,0.2c1.8,1.1,3.6,2.1,5.3,3.1
		c22.1,12.5,35.9,18.1,36,18.2l1.8,0.7l1.6-1c29.1-18,55.7-36.6,80.2-55.6l1.6-1.2l0.1-0.1l-0.3-2.1c-0.3-2.3-0.8-4.3-1.5-6.1
		c-0.7-1.8-1.7-3.4-3-4.7c0,0-0.1,0-0.1-0.1c-2.5-2.6-5.9-3.6-9.1-3.6c-1.1,0-2.1,0.1-3.2,0.3c-2.3,0.4-4.6,1.1-6.7,2.1
		c-4.4,1.9-10.1,4.6-14.2,6.6V775v-33.4v-16c0.4-0.3,0.8-0.6,1.3-1c3.9-2.9,11.6-8.5,21.1-15.3c5.6-4,9.8-7.4,12.6-12.2
		c2.1-3.7,3.1-7.9,3.5-13.2c0.1-1.6,0.1-3.4,0.1-5.2c0-4.2-0.2-9.1-0.7-14.9c-0.1-1.7-0.4-3.2-0.7-4.6c-0.4-2-1.1-3.8-1.9-5.3
		c-0.5-0.9-1.1-1.7-1.7-2.4c-0.3-0.3-0.6-0.6-1-0.9c0,0,0,0-0.1-0.1c-0.1-0.1-0.3-0.2-0.4-0.4c-2.4-1.9-5.3-2.7-8.1-2.7
		c-3.1,0-6.2,0.9-9.1,2c-0.4,0.1-0.7,0.3-1,0.4c-4.4,1.9-10.1,4.6-14.2,6.6v-69.3v-38.4h13.8h16c1.8,2.4,5.5,7.4,10.3,14.1
		c1.8,2.6,3.9,5.4,6,8.4c1.8,2.6,3.5,4.8,5.3,6.8c1.1,1.3,2.2,2.4,3.5,3.4c1.1,0.9,2.1,1.7,3.3,2.4c4.8,2.7,10.5,3.7,18.4,3.6
		c4.2,0,9-0.2,14.9-0.7c0.2,0,0.4,0,0.6,0c4.2-0.4,7.7-1.4,10.3-3.1c0.1-0.1,0.3-0.1,0.4-0.2c0.1-0.1,0.3-0.2,0.4-0.3
		c0.3-0.2,0.5-0.4,0.8-0.6c0,0,0,0,0,0c2.9-2.5,4.1-6.2,4.1-9.5c0-3.3-1-6.4-2.2-9.4c-0.1-0.2-0.2-0.4-0.3-0.7
		c-0.2-0.4-0.4-0.9-0.6-1.4c-1.8-4-4-8.7-5.8-12.4c-0.1-0.1-0.1-0.3-0.2-0.4h23.9h23.2h16c2.5,3.3,8.6,11.7,16.3,22.5
		c0.1,0.1,0.1,0.2,0.2,0.3c3.9,5.3,7.1,9.3,11.6,12.1c0.1,0.1,0.2,0.1,0.3,0.2c4.8,2.7,10.5,3.7,18.4,3.6c3.6,0,7.7-0.2,12.5-0.5
		c0.8,0,1.6-0.1,2.5-0.2c2-0.1,3.8-0.4,5.2-0.7l1.7-0.4l0.8-1.5c1-1.8,2-3.7,3-5.5c1.5-2.9,3.1-5.7,4.5-8.6l0.7-1.3l-0.4-1.4
		c-0.4-1.4-0.9-2.9-1.5-4.4c-1.9-4.3-4.6-10-6.6-14.2h18.3l1-2.2c0,0,0-0.1,0.1-0.2c0.8-1.8,1.6-3.5,2.4-5.2
		c19-41.8,31.7-81.9,39.9-118.6l1-4.4l-3.9-0.2l-0.6,0c-1.2,0-2.3-0.1-3.4-0.1c-1.4,0-2.7-0.1-4-0.1
		C776.4,417.8,770.7,418.7,765.8,421.5"/>
	<path d="M124.8,251.1L124.8,251.1L124.8,251.1C124.8,251,124.8,251.1,124.8,251.1"/>
	<path d="M146.8,263.2c0.2-0.3,0.4-0.6,0.6-0.8C147.2,262.7,146.9,262.9,146.8,263.2"/>
	<path d="M146.6,263.5c-0.2,0.3-0.3,0.5-0.4,0.8C146.3,264,146.4,263.8,146.6,263.5"/>
	<path d="M146,264.6c-0.1,0.2-0.2,0.5-0.3,0.7C145.8,265.1,145.8,264.9,146,264.6"/>
	<path d="M145.5,265.7c-0.1,0.2-0.2,0.4-0.2,0.7C145.4,266.2,145.4,266,145.5,265.7"/>
	<path d="M121.9,266.9c-0.4,0.3-0.7,0.6-1.1,0.8c0,0,0,0-0.1,0c0,0,0,0,0.1,0C121.2,267.4,121.5,267.1,121.9,266.9"/>
	<path d="M145.2,266.8c0,0.2-0.1,0.4-0.1,0.6C145.2,267.2,145.2,267,145.2,266.8"/>
	<path d="M116.9,269.9c0.1,0,0.1-0.1,0.2-0.1C117,269.8,116.9,269.9,116.9,269.9"/>
	<path d="M114.5,270.9c0.1,0,0.3-0.1,0.4-0.2C114.8,270.9,114.7,270.9,114.5,270.9"/>
	<path d="M118.7,269c0.1-0.1,0.3-0.2,0.4-0.3C119,268.8,118.8,268.9,118.7,269"/>
	<path d="M148.4,261.3c-0.3,0.3-0.6,0.6-0.9,0.9C147.8,261.9,148.1,261.6,148.4,261.3"/>
	<path d="M148.5,261.2c0.4-0.3,0.7-0.6,1.1-0.9C149.2,260.6,148.8,260.9,148.5,261.2"/>
	<path d="M126.9,257.9L126.9,257.9v0.2c0,1.1-0.2,2.1-0.5,3c0.3-0.9,0.5-1.9,0.5-3C126.9,258,126.9,257.9,126.9,257.9"/>
	<path d="M159.4,254.5c-0.6,0.4-1.2,0.7-1.8,1C158.2,255.2,158.8,254.8,159.4,254.5"/>
	<path d="M149.7,260.2c0.8-0.6,2.1-1.3,3.9-2.4C151.7,258.9,150.4,259.7,149.7,260.2"/>
	<path d="M157,255.8c-0.5,0.3-1.1,0.6-1.6,0.9C156,256.4,156.5,256.1,157,255.8"/>
	<path d="M105.8,263.2c0.2-0.3,0.4-0.6,0.7-0.9C106.2,262.6,106,262.9,105.8,263.2"/>
	<path d="M107.5,261.2c0.4-0.3,0.7-0.6,1.1-0.9C108.2,260.6,107.8,260.9,107.5,261.2"/>
	<path d="M107.5,261.2c-0.3,0.3-0.6,0.6-0.9,1C106.8,261.8,107.1,261.5,107.5,261.2"/>
	<path d="M114.9,256.5c-0.5,0.3-1,0.6-1.5,0.8C113.9,257,114.4,256.8,114.9,256.5"/>
	<path d="M189.3,264.5c-0.1,0.2-0.2,0.4-0.3,0.7C189.1,265,189.2,264.7,189.3,264.5"/>
	<path d="M188.9,265.5c-0.1,0.3-0.2,0.6-0.3,0.9C188.7,266.1,188.8,265.8,188.9,265.5"/>
	<path d="M189.9,263.5c-0.1,0.2-0.3,0.4-0.4,0.6C189.7,263.9,189.8,263.7,189.9,263.5"/>
	<path d="M190.2,263.1c0.1-0.2,0.3-0.4,0.5-0.6C190.5,262.7,190.3,262.9,190.2,263.1"/>
	<path d="M159.1,270.6c0.1,0,0.2-0.1,0.3-0.1C159.3,270.5,159.2,270.5,159.1,270.6"/>
	<path d="M156.4,271.7c0.2-0.1,0.4-0.1,0.5-0.2C156.7,271.6,156.5,271.6,156.4,271.7"/>
	<path d="M161.2,269.5c0.2-0.1,0.4-0.2,0.5-0.3C161.5,269.4,161.4,269.4,161.2,269.5"/>
	<path d="M190.9,262.1c0.2-0.2,0.4-0.5,0.7-0.7C191.4,261.6,191.1,261.9,190.9,262.1"/>
	<path d="M193.3,260L193.3,260L193.3,260z"/>
	<path d="M195.6,258.6c0.6-0.4,1.4-0.8,2.2-1.3c0.6-0.3,1.2-0.7,1.8-1.1c-0.7,0.4-1.3,0.7-1.8,1.1
		C196.9,257.8,196.2,258.2,195.6,258.6"/>
	<path d="M192.9,260.3c-0.4,0.3-0.7,0.6-1.1,0.9C192.2,260.8,192.6,260.6,192.9,260.3c0.1,0,0.2-0.1,0.2-0.2
		C193.1,260.1,193,260.2,192.9,260.3"/>
	<path d="M204.4,253.6c0.4-0.2,0.8-0.5,1.3-0.7L204.4,253.6z"/>
	<path d="M231.9,263.6c-0.1,0.2-0.2,0.4-0.4,0.6C231.7,264,231.8,263.8,231.9,263.6"/>
	<path d="M230.9,265.7c0,0.2-0.1,0.4-0.2,0.6C230.8,266.1,230.9,265.9,230.9,265.7"/>
	<path d="M231.4,264.6c-0.1,0.2-0.2,0.4-0.3,0.6C231.2,265,231.3,264.8,231.4,264.6"/>
	<path d="M232.2,263.1c0.1-0.2,0.3-0.4,0.4-0.6C232.5,262.7,232.4,262.9,232.2,263.1"/>
	<path d="M199,271c0.1,0,0.2-0.1,0.3-0.1C199.2,270.9,199.1,271,199,271"/>
	<path d="M203.3,268.9c0.1-0.1,0.2-0.1,0.3-0.2C203.5,268.8,203.4,268.9,203.3,268.9"/>
	<path d="M201.4,269.9C201.4,269.9,201.5,269.9,201.4,269.9C201.5,269.9,201.4,269.9,201.4,269.9"/>
	<path d="M230.6,267.3c0-0.2,0-0.4,0.1-0.6C230.6,266.9,230.6,267.1,230.6,267.3"/>
	<path d="M234,261.1c0.3-0.2,0.5-0.4,0.8-0.7C234.5,260.7,234.2,260.9,234,261.1"/>
	<path d="M243.7,255.1c-0.3,0.2-0.6,0.4-0.9,0.5C243.1,255.5,243.4,255.3,243.7,255.1"/>
	<path d="M233.5,261.6c-0.2,0.2-0.4,0.4-0.5,0.5C233.2,261.9,233.3,261.7,233.5,261.6"/>
	<path d="M237,259c0.9-0.5,1.9-1.1,3.2-1.9c0.5-0.3,1.1-0.6,1.7-0.9c-0.6,0.3-1.1,0.6-1.7,0.9C238.9,257.8,237.9,258.4,237,259"/>
	<path d="M252.3,250.5c-0.7,0.4-1.4,0.7-2.1,1.1L252.3,250.5z"/>
	<path d="M272.4,265.7c0,0.2-0.1,0.4-0.2,0.6C272.3,266.2,272.3,265.9,272.4,265.7"/>
	<path d="M273.6,263.2c0.2-0.3,0.4-0.6,0.7-0.9C274.1,262.6,273.8,262.9,273.6,263.2"/>
	<path d="M273.5,263.5c-0.2,0.3-0.3,0.5-0.4,0.8C273.1,264,273.3,263.7,273.5,263.5"/>
	<path d="M272.8,264.6c-0.1,0.2-0.2,0.5-0.3,0.7C272.6,265.1,272.7,264.9,272.8,264.6"/>
	<path d="M241.4,271.4c0.2-0.1,0.4-0.2,0.6-0.2C241.7,271.3,241.5,271.4,241.4,271.4"/>
	<path d="M246,269.2c0.2-0.1,0.3-0.1,0.4-0.2C246.3,269.1,246.2,269.2,246,269.2"/>
	<path d="M244,270.3c0.1,0,0.2-0.1,0.3-0.1C244.2,270.2,244.1,270.2,244,270.3"/>
	<path d="M272.1,266.8c0,0.2-0.1,0.4-0.1,0.6C272.1,267.2,272.1,267,272.1,266.8"/>
	<path d="M285.8,254.8c-0.5,0.3-1,0.6-1.5,0.8C284.8,255.3,285.3,255,285.8,254.8"/>
	<path d="M283.7,255.9c-0.5,0.3-1,0.5-1.4,0.8C282.8,256.5,283.2,256.2,283.7,255.9"/>
	<path d="M274.4,262.2c0.6-0.7,1.3-1.3,2.1-1.9v0C275.7,260.9,275,261.5,274.4,262.2"/>
	<path d="M254.3,253.9c0,0.1,0.1,0.2,0.1,0.3l0.1,0.2l0.1,0.2c0.4,1.1,0.6,2.1,0.6,3.2c0-0.3,0-0.6,0-0.9c5.7-3.1,11.6-6,15-7.3
		c2.4-1,5.1-1.5,7.7-1.5c2.6,0,4.9,0.6,6.9,1.8c1.3,0.8,2.5,1.9,3.5,3.5l2.9-1.5c0.1,0,0.1-0.1,0.2-0.1l3.1-1.7v0c0,0,0,0,0,0
		c-1.6-2.7-3.7-4.8-6.1-6.2c-3.3-2-7-2.8-10.6-2.8c-3.6,0-7.1,0.8-10.3,2c-3.7,1.4-9.1,4.1-14.6,7L254.3,253.9z"/>
	<path d="M254,262.1c0.7-1.3,1.1-2.8,1.1-4.3C255.1,259.3,254.7,260.8,254,262.1"/>
	<path d="M276.5,260.2c0.1-0.1,0.2-0.1,0.3-0.2C276.7,260.1,276.6,260.2,276.5,260.2z"/>
	<path d="M286.4,254.4c0.6-0.3,1.2-0.7,1.8-1C287.6,253.8,287,254.1,286.4,254.4"/>
	<path d="M288.2,253.4L288.2,253.4c0.9-0.5,1.9-1,2.9-1.5L288.2,253.4L288.2,253.4z"/>
	<path d="M296,253.2c0.2,0.4,0.4,0.8,0.5,1.2l0,0.1v0.1c0.4,1.1,0.6,2.1,0.6,3.2c0-0.4,0-0.8-0.1-1.2c5.6-2.9,11.2-5.7,14.4-7
		c2.5-1,5.2-1.6,7.8-1.5c4.2,0.1,7.8,1.3,10.4,5.1c-0.7,0.4-1.4,0.8-2.1,1.1c0.7-0.4,1.4-0.8,2.1-1.2v0l2.9-1.6
		c0.1-0.1,0.3-0.1,0.4-0.2l2.7-1.5c-3.9-6.3-10.6-8.9-16.5-8.8c-3.6,0-7.1,0.8-10.3,2c-3.7,1.4-9.1,4.1-14.5,7c0,0,0,0,0,0
		L296,253.2z"/>
	<path d="M313.8,264.7c-0.1,0.2-0.2,0.4-0.3,0.7C313.6,265.1,313.7,264.9,313.8,264.7"/>
	<path d="M314.4,263.5c-0.2,0.2-0.3,0.5-0.4,0.7C314.1,264,314.3,263.8,314.4,263.5"/>
	<path d="M295.3,263.4c-0.1,0.2-0.2,0.3-0.3,0.5c-0.3,0.4-0.6,0.7-0.9,1.1c0.3-0.3,0.6-0.7,0.9-1.1
		C295.1,263.7,295.2,263.6,295.3,263.4"/>
	<path d="M314.6,263.2c0.2-0.3,0.4-0.5,0.6-0.8C315,262.7,314.8,262.9,314.6,263.2"/>
	<path d="M294,265.1c-0.1,0.1-0.1,0.1-0.2,0.2C293.8,265.2,293.9,265.1,294,265.1"/>
	<path d="M313.4,265.8c0,0.2-0.1,0.4-0.2,0.6C313.2,266.2,313.3,266,313.4,265.8"/>
	<path d="M285.7,270.4c0.1,0,0.2-0.1,0.3-0.1C285.9,270.4,285.8,270.4,285.7,270.4"/>
	<path d="M313.1,266.8c0,0.2-0.1,0.4-0.1,0.6C313,267.2,313.1,267,313.1,266.8"/>
	<path d="M283.1,271.6c0.2-0.1,0.4-0.1,0.5-0.2C283.4,271.4,283.2,271.5,283.1,271.6"/>
	<path d="M287.8,269.4c0.1-0.1,0.3-0.2,0.4-0.3C288.1,269.2,288,269.3,287.8,269.4"/>
	<path d="M296.9,260c0.1-0.4,0.2-0.9,0.2-1.3C297.1,259.1,297,259.5,296.9,260"/>
	<path d="M327.4,254.5c-0.7,0.4-1.3,0.7-1.9,1.1C326.1,255.2,326.7,254.8,327.4,254.5"/>
	<path d="M316.3,261.3c-0.3,0.3-0.6,0.6-0.9,0.9C315.7,261.9,316,261.6,316.3,261.3"/>
	<path d="M319.5,259c1-0.6,2.1-1.3,3.5-2.1c0.7-0.4,1.3-0.7,2-1.1c-0.7,0.4-1.4,0.7-2,1.1C321.6,257.7,320.5,258.4,319.5,259"/>
	<path d="M297.2,257.8c0,0.2,0,0.4,0,0.7C297.2,258.3,297.2,258,297.2,257.8"/>
	<path d="M316.4,261.2c0.3-0.3,0.7-0.6,1.1-0.9C317.1,260.6,316.7,260.9,316.4,261.2"/>
	<path d="M337.5,253.1c0.2,0.4,0.4,0.8,0.6,1.4c0,0,0,0.1,0,0.1c0.2,0.6,0.3,1.2,0.4,1.8v-0.1c5.4-2.9,10.8-5.6,14-6.7
		c2.5-1,5.2-1.6,7.8-1.6c2.7,0,5.1,0.6,7.2,1.9c1.4,0.9,2.8,2.2,3.8,4.2c-2.1,1.2-4,2.2-5.6,3.2c-1,0.6-1.8,1-2.5,1.5
		c0.7-0.4,1.5-0.9,2.5-1.5c2.3-1.3,5.3-3,8.4-4.7l1.2-0.7c0.6-0.3,1.2-0.7,1.8-1l0.3-0.2c-1.6-2.9-3.7-5.2-6.2-6.7
		c-3.4-2.2-7.3-3-10.9-3c-3.6,0-7.2,0.8-10.4,2c-3.6,1.4-8.8,3.9-14.1,6.7L337.5,253.1z"/>
	<path d="M332.7,251.6l-2.9,1.6v0C330.7,252.6,331.7,252.1,332.7,251.6l0.4-0.2C332.9,251.4,332.8,251.5,332.7,251.6"/>
	<path d="M357.2,264.5c-0.1,0.2-0.2,0.5-0.3,0.7C357,265,357.1,264.7,357.2,264.5"/>
	<path d="M357.8,263.5c-0.1,0.2-0.3,0.4-0.4,0.7C357.5,263.9,357.7,263.7,357.8,263.5"/>
	<path d="M356.8,265.5c-0.1,0.4-0.2,0.7-0.3,1C356.6,266.2,356.7,265.9,356.8,265.5"/>
	<path d="M358,263.1c0.2-0.2,0.3-0.4,0.5-0.7C358.4,262.6,358.2,262.9,358,263.1"/>
	<path d="M324.3,271.7c0.1-0.1,0.3-0.1,0.4-0.2C324.6,271.6,324.4,271.6,324.3,271.7"/>
	<path d="M356.4,267.5c-8.1,2.6-17.2,4.6-23.1,7c-2,0.8-3.6,1.1-4.9,1.1c-2.9,0-4.7-1.3-6.1-2.7c0-0.1-0.1-0.1-0.1-0.2
		c0.1,0,0.2-0.1,0.3-0.1c-1.4,0.5-2.9,1-4.4,1.5l-2.8,0.9c0.5,0.8,1.2,1.7,2,2.6c2.2,2.4,6,5,11.2,5h0.1c2.3,0,4.8-0.5,7.4-1.5
		c4.9-2,13.6-4,21.8-6.5C357.6,274.4,356.8,268.1,356.4,267.5"/>
	<path d="M327,270.6c0.1,0,0.1-0.1,0.2-0.1C327.1,270.5,327,270.5,327,270.6"/>
	<path d="M329.1,269.5c0.1-0.1,0.3-0.2,0.4-0.3C329.4,269.4,329.2,269.4,329.1,269.5"/>
	<path d="M358.8,262.1c0.2-0.2,0.4-0.5,0.7-0.7C359.2,261.6,359,261.8,358.8,262.1"/>
	<path d="M359.8,261.1c0.3-0.3,0.7-0.6,1.1-0.9C360.5,260.5,360.1,260.8,359.8,261.1"/>
	<path d="M377.1,251c-0.6,0.3-1.2,0.6-1.8,1L377.1,251z"/>
	<path d="M399.3,264.6c-0.1,0.2-0.2,0.5-0.3,0.7C399,265,399.2,264.8,399.3,264.6"/>
	<path d="M400.1,263.2c0.1-0.3,0.4-0.5,0.5-0.7C400.4,262.7,400.2,262.9,400.1,263.2"/>
	<path d="M398.9,265.6c-0.1,0.2-0.2,0.5-0.2,0.7C398.7,266.1,398.8,265.9,398.9,265.6"/>
	<path d="M399.8,263.5c-0.1,0.3-0.3,0.5-0.4,0.7C399.6,264,399.7,263.7,399.8,263.5"/>
	<path d="M369.2,269.9c0.1,0,0.1-0.1,0.2-0.1C369.4,269.9,369.3,269.9,369.2,269.9"/>
	<path d="M366.8,271.1c0.2-0.1,0.4-0.1,0.5-0.2C367.1,270.9,366.9,271,366.8,271.1"/>
	<path d="M371.1,269c0.1-0.1,0.3-0.2,0.4-0.3C371.4,268.8,371.3,268.9,371.1,269"/>
	<path d="M398.4,267.4c0-0.2,0.1-0.4,0.1-0.7C398.5,266.9,398.5,267.1,398.4,267.4"/>
	<path d="M402.9,260.2c0.1-0.1,0.4-0.2,0.5-0.4C403.3,260,403.1,260.1,402.9,260.2"/>
	<path d="M401.8,261.2c0.4-0.3,0.7-0.6,1.1-0.9C402.5,260.5,402.2,260.8,401.8,261.2"/>
	<path d="M379.3,255.2c0.3,0.9,0.4,1.8,0.4,2.6c0,1.8-0.6,3.5-1.4,4.9c0.8-1.4,1.4-3.2,1.4-4.9v-0.3c6.1-3.3,12.6-6.5,16.2-7.9
		c2.4-0.9,5.2-1.5,7.8-1.5c2.6,0,5,0.6,7,1.8c1.4,0.9,2.6,2.1,3.7,3.7c-0.6,0.4-1.3,0.7-1.9,1c1-0.6,2.1-1.1,3.2-1.7l1.6-0.9
		c0.9-0.5,1.9-1,2.8-1.5l0.4-0.2c-1.6-2.7-3.7-4.9-6.1-6.3c-3.3-2.1-7.1-2.9-10.7-2.9c-3.6,0-7.2,0.8-10.3,2
		c-3.5,1.4-8.8,3.9-14,6.7V255.2z"/>
	<path d="M401.6,261.4c-0.3,0.3-0.5,0.5-0.7,0.8C401.1,261.9,401.3,261.6,401.6,261.4"/>
	<path d="M412.1,254.8c-0.6,0.3-1.1,0.6-1.6,0.9C411,255.4,411.6,255.1,412.1,254.8"/>
	<path d="M409.7,256.2c-0.2,0.1-0.4,0.2-0.6,0.4C409.3,256.4,409.5,256.3,409.7,256.2"/>
	<path d="M361.1,273.2c1.4-0.5,2.8-1,4.1-1.5c0.5-0.2,1.1-0.4,1.6-0.7c0.2-0.1,0.4-0.1,0.5-0.2c0.7-0.3,1.4-0.6,2-0.9
		c0.1,0,0.1-0.1,0.2-0.1c0.6-0.3,1.1-0.6,1.7-0.9c0.1-0.1,0.3-0.2,0.4-0.3c0.6-0.3,1.2-0.7,1.7-1.1c1.7-1.2,3.2-2.5,4.4-4.1
		c0.2-0.3,0.4-0.5,0.5-0.8c0.8-1.4,1.4-3.2,1.4-4.9c0-0.9-0.1-1.8-0.4-2.6v-5.4l-1.8,1l-0.3,0.2l-1.8,1l-1.2,0.7
		c-3.2,1.7-6.1,3.4-8.4,4.7c-1,0.6-1.8,1.1-2.5,1.5c-1.1,0.6-1.8,1.1-2.4,1.5c-0.4,0.3-0.7,0.6-1.1,0.9c-0.1,0.1-0.2,0.2-0.3,0.3
		c-0.3,0.2-0.5,0.4-0.7,0.7c-0.1,0.1-0.2,0.2-0.3,0.3c-0.2,0.2-0.4,0.4-0.5,0.7c-0.1,0.1-0.2,0.3-0.2,0.4c-0.2,0.2-0.3,0.4-0.4,0.7
		c-0.1,0.1-0.1,0.2-0.2,0.4c-0.1,0.3-0.2,0.5-0.3,0.7c0,0.1-0.1,0.2-0.1,0.3c-0.1,0.4-0.2,0.7-0.3,1c-0.1,0.3-0.1,0.6-0.1,1
		c0,0.4-0.1,0.7-0.1,1.1c0,0.8,0.1,1.6,0.2,2.2l0.9,3.7v0.1l0.7-0.2L361.1,273.2z"/>
	<path d="M417.2,252.1l-1.6,0.9C416.1,252.6,416.6,252.3,417.2,252.1l2.8-1.5C419.1,251,418.1,251.6,417.2,252.1"/>
	<path d="M409.2,271.4c0.2-0.1,0.4-0.2,0.6-0.2C409.6,271.3,409.4,271.4,409.2,271.4"/>
	<path d="M413.8,269.3c0.1-0.1,0.3-0.2,0.5-0.3C414.2,269.1,414,269.2,413.8,269.3"/>
	<path d="M411.8,270.3c0.1,0,0.2-0.1,0.3-0.2C412,270.2,411.9,270.2,411.8,270.3"/>
	<path d="M443.6,263.5c-0.1,0.2-0.2,0.4-0.3,0.5C443.4,263.8,443.5,263.7,443.6,263.5"/>
	<path d="M443.1,264.5c-0.1,0.2-0.2,0.5-0.3,0.7C442.9,264.9,443,264.7,443.1,264.5"/>
	<path d="M442.7,265.5c-0.1,0.3-0.2,0.7-0.3,1C442.4,266.1,442.5,265.8,442.7,265.5"/>
	<path d="M447.1,260c0.9-0.7,2.3-1.5,4.3-2.6c0.5-0.3,1.1-0.6,1.7-1c-0.6,0.4-1.1,0.7-1.7,1C449.4,258.5,448,259.3,447.1,260"/>
	<path d="M422.2,254L422.2,254c0,0.1,0.2,0.4,0.2,0.7c0.4,1,0.5,2.1,0.5,3.2c0-0.3,0-0.6,0-0.9c5.7-3.1,11.7-6,15-7.3
		c2.4-1,5.2-1.5,7.8-1.5c2.7,0,5.1,0.6,7.1,1.9c1.5,1,2.8,2.3,3.9,4.3c-1.2,0.7-2.3,1.3-3.4,1.9c1.1-0.7,2.4-1.3,3.7-2.1v0l2.4-1.3
		c0,0,0,0,0.1,0l3.4-1.8c-1.6-3-3.8-5.3-6.2-6.8c-3.4-2.2-7.2-3.1-10.9-3.1c-3.7,0-7.2,0.8-10.4,2.1c-3.6,1.4-9,4.1-14.4,6.9
		L422.2,254z"/>
	<path d="M422.9,257.8L422.9,257.8c0,1.2-0.3,2.5-0.7,3.5C422.6,260.3,422.9,259.1,422.9,257.8"/>
	<path d="M444.3,262.5c-0.1,0.2-0.3,0.3-0.4,0.5C444.1,262.8,444.2,262.7,444.3,262.5"/>
	<path d="M447,260"/>
	<path d="M446.6,260.3c-0.4,0.3-0.7,0.5-1,0.8C445.9,260.9,446.2,260.6,446.6,260.3"/>
	<path d="M444.7,262c0.1-0.2,0.3-0.3,0.5-0.5C445,261.7,444.9,261.9,444.7,262"/>
	<path d="M398.8,271.4L398.8,271.4c-0.2-0.8-0.4-1.7-0.4-2.8c0-0.2,0-0.4,0-0.6c-1.6,0.4-16.5,4.4-21.9,6.5
		c-1.9,0.8-3.5,1.1-4.9,1.1c-2.9,0-4.7-1.3-6.1-2.7c-0.2-0.3-0.5-0.6-0.7-0.8c0.1,0,0.3-0.1,0.4-0.2c-1.4,0.5-2.7,1.1-4.1,1.5l-3,1
		c0.5,0.9,1.3,2,2.4,3.2c2.1,2.4,6,4.9,11.2,4.9h0c2.3,0,4.8-0.5,7.4-1.5c4.6-1.8,12.9-3.8,20.7-6.1l0-0.1L398.8,271.4z"/>
	<path d="M422.4,254.7c-0.1-0.3-0.2-0.6-0.2-0.7h0l-1.2-4l-0.5,0.3l-0.4,0.2l-2.8,1.5c-0.6,0.3-1.1,0.6-1.6,0.9
		c-1.1,0.6-2.1,1.2-3.2,1.7c-0.1,0-0.2,0.1-0.3,0.2c-0.6,0.3-1.1,0.6-1.6,0.9c-0.3,0.1-0.6,0.3-0.8,0.5c-0.2,0.1-0.4,0.2-0.6,0.3
		c-0.4,0.2-0.7,0.4-1,0.6c-2.1,1.2-3.7,2.1-4.7,2.8c-0.2,0.1-0.4,0.2-0.5,0.4c-0.4,0.3-0.8,0.6-1.1,0.9c-0.1,0.1-0.1,0.1-0.2,0.2
		c-0.3,0.3-0.5,0.5-0.7,0.8c-0.1,0.1-0.1,0.2-0.2,0.3c-0.2,0.3-0.4,0.5-0.5,0.7c-0.1,0.1-0.2,0.2-0.2,0.3c-0.1,0.3-0.3,0.5-0.4,0.7
		c0,0.1-0.1,0.2-0.2,0.4c-0.1,0.2-0.2,0.5-0.3,0.7c0,0.1-0.1,0.3-0.1,0.4c-0.1,0.2-0.2,0.5-0.2,0.7c0,0.1-0.1,0.2-0.1,0.3
		c0,0.3-0.1,0.5-0.1,0.7c0,0.1,0,0.2,0,0.3c0,0.1,0,0.1,0,0.2v0c0,0.2,0,0.4,0,0.6c0,1.1,0.2,2,0.4,2.8l0,0.1l1,3.3l0,0l0.5-0.2
		l2.9-1c1.5-0.5,2.9-1,4.3-1.5c0.6-0.2,1.1-0.4,1.7-0.7c0.2-0.1,0.4-0.2,0.5-0.2c0.7-0.3,1.4-0.6,2.1-0.9c0.1,0,0.2-0.1,0.3-0.2
		c0.6-0.3,1.1-0.5,1.7-0.8c0.1-0.1,0.3-0.2,0.5-0.3c0.6-0.4,1.2-0.7,1.8-1.1c1.8-1.2,3.5-2.5,4.7-4.2c0.5-0.7,1-1.5,1.4-2.4
		c0.4-1.1,0.7-2.3,0.7-3.6C422.9,256.8,422.8,255.7,422.4,254.7"/>
	<path d="M457,254.2c0.8-0.4,1.6-0.9,2.4-1.4L457,254.2L457,254.2z"/>
	<path d="M454.9,269.8c0.1,0,0.1-0.1,0.3-0.1C455,269.7,455,269.8,454.9,269.8"/>
	<path d="M452.5,270.9c0.1-0.1,0.3-0.1,0.5-0.2C452.8,270.8,452.6,270.8,452.5,270.9"/>
	<path d="M456.7,268.8c0.1-0.1,0.3-0.2,0.5-0.3C457,268.6,456.9,268.7,456.7,268.8"/>
	<path d="M459.2,267.3c-0.1,0.1-0.2,0.2-0.4,0.2c0,0,0,0,0,0s0,0,0,0C459,267.5,459.1,267.4,459.2,267.3"/>
	<path d="M484,264.6c-0.1,0.3-0.2,0.5-0.4,0.8C483.8,265.1,483.9,264.8,484,264.6"/>
	<path d="M483.3,266.8c0,0.2-0.1,0.4-0.1,0.6C483.2,267.2,483.2,267,483.3,266.8"/>
	<path d="M484.7,263.4c-0.2,0.3-0.4,0.6-0.5,0.9C484.3,264,484.5,263.7,484.7,263.4"/>
	<path d="M483.6,265.7c-0.1,0.2-0.1,0.5-0.2,0.7C483.4,266.2,483.5,266,483.6,265.7"/>
	<path d="M489.1,259.3c1-0.6,2.4-1.4,4.1-2.4c0.6-0.4,1.3-0.7,2-1.1c-0.7,0.4-1.4,0.8-2,1.1C491.5,257.9,490.2,258.7,489.1,259.3"/>
	<path d="M464.6,254.8c0.3,1,0.5,2,0.5,3c0,2.1-0.7,4.1-1.9,5.7c-0.4,0.6-0.8,1.1-1.3,1.5c0.5-0.5,0.9-1,1.3-1.5
		c1.1-1.6,1.9-3.6,1.9-5.7v0c6.3-3.3,13-6.7,16.7-8.1c2.4-1,5.2-1.5,7.7-1.5c4.2,0.1,7.8,1.3,10.4,5.1c-0.6,0.4-1.2,0.7-1.9,1
		c1.6-0.8,3.2-1.8,4.9-2.7l0,0l0.1,0c0.8-0.4,1.6-0.9,2.4-1.3l0.7-0.4c-4-6.3-10.6-8.9-16.6-8.8c-3.6,0-7.2,0.8-10.3,2
		c-3.9,1.5-10,4.6-15.8,7.7L464.6,254.8z"/>
	<path d="M497.2,254.6c-0.6,0.3-1.1,0.6-1.6,0.9C496.2,255.2,496.7,254.9,497.2,254.6"/>
	<path d="M484.8,263.2c0.7-1.1,1.7-2.1,2.9-3C486.4,261.1,485.5,262.2,484.8,263.2"/>
	<path d="M442.3,270.5c-0.1-0.6-0.2-1.2-0.2-1.9c0-0.4,0-0.8,0.1-1.2c-1.5,0.4-17.8,4.8-23.6,7.1c-1.9,0.8-3.5,1-4.9,1
		c-2.9,0-4.7-1.3-6.1-2.7c-0.2-0.1-0.3-0.3-0.4-0.5c0.1,0,0.3-0.1,0.4-0.1c-1.4,0.5-2.9,1.1-4.3,1.5l-2.9,1c0.5,0.8,1.2,1.8,2.2,2.9
		c1.9,2,4.9,4.2,8.9,4.8c0.7,0.1,1.5,0.2,2.2,0.2h0.1c2.3,0,4.8-0.5,7.5-1.5c4.9-2,13.7-4,22-6.6L442.3,270.5L442.3,270.5z"/>
	<path d="M464.6,254.8l-1.3-4l0-0.1l-0.4,0.2l-3.4,1.8c0,0,0,0-0.1,0c-0.8,0.5-1.6,0.9-2.4,1.4c-1.3,0.7-2.5,1.4-3.6,2.1
		c-0.1,0.1-0.2,0.1-0.4,0.2c-0.6,0.4-1.1,0.7-1.6,1c-2,1.1-3.4,2-4.3,2.6c0,0,0,0,0,0c-0.1,0.1-0.2,0.2-0.4,0.3
		c-0.1,0-0.1,0-0.1,0.1c-0.4,0.2-0.7,0.5-1,0.8c-0.2,0.1-0.3,0.3-0.4,0.4c-0.2,0.2-0.3,0.3-0.5,0.5c-0.1,0.2-0.3,0.3-0.4,0.5
		c-0.1,0.2-0.3,0.3-0.4,0.5c-0.1,0.1-0.2,0.3-0.4,0.5c-0.1,0.2-0.2,0.4-0.3,0.5c-0.1,0.2-0.2,0.3-0.3,0.4c-0.1,0.3-0.2,0.5-0.3,0.7
		c0,0.1-0.1,0.2-0.1,0.3c-0.1,0.3-0.2,0.7-0.3,1c0,0.1-0.1,0.2-0.1,0.3c0,0.2-0.1,0.4-0.1,0.5v0c0,0.4-0.1,0.8-0.1,1.2
		c0,0.7,0.1,1.4,0.2,1.9v0.1l0.9,3.7l0,0l0.6-0.2l3.1-1.1c1.4-0.5,2.7-1,3.9-1.4c0.6-0.2,1.1-0.5,1.7-0.7c0.2-0.1,0.3-0.1,0.5-0.2
		c0.7-0.3,1.3-0.6,1.9-0.9c0.1,0,0.1-0.1,0.2-0.1c0.5-0.3,1.1-0.6,1.6-0.8c0.2-0.1,0.3-0.2,0.5-0.3c0.6-0.3,1.1-0.7,1.7-1
		c0,0,0,0,0,0c0.1-0.1,0.2-0.2,0.4-0.3c1-0.7,1.8-1.4,2.6-2.2c0.5-0.5,0.9-1,1.3-1.5c1.1-1.6,1.9-3.6,1.9-5.7
		C465,256.8,464.8,255.8,464.6,254.8"/>
	<path d="M505.3,250.2c-0.8,0.4-1.6,0.8-2.4,1.3L505.3,250.2z"/>
	<path d="M507.7,253.1c0.2,0.4,0.4,0.9,0.5,1.2v0.1l0.1,0.1c0.4,1.1,0.5,2.1,0.5,3.2c0-0.5,0-1-0.1-1.5c5.4-2.8,10.9-5.5,14-6.7
		c2.5-1,5.2-1.6,7.8-1.6c2.7,0,5.1,0.6,7.1,1.9c1.4,0.9,2.7,2.2,3.8,4.2c-0.5,0.3-1,0.6-1.5,0.9c1.4-0.8,2.8-1.6,4.3-2.4l0.8-0.4h0
		c0.8-0.4,1.7-0.9,2.5-1.4c-1.6-2.9-3.7-5.2-6.1-6.7c-3.4-2.2-7.3-3-10.9-3c-3.6,0-7.2,0.8-10.3,2c-3.5,1.4-8.8,3.9-14.1,6.7
		L507.7,253.1z"/>
	<path d="M502.8,251.6C502.8,251.6,502.8,251.6,502.8,251.6L502.8,251.6L502.8,251.6z"/>
	<path d="M507.1,263.3c-0.1,0.2-0.3,0.4-0.5,0.7c-0.2,0.2-0.4,0.4-0.6,0.7c0.2-0.2,0.4-0.4,0.6-0.7
		C506.8,263.7,506.9,263.5,507.1,263.3"/>
	<path d="M528.2,263.1c0.1-0.2,0.3-0.5,0.5-0.7C528.5,262.6,528.3,262.9,528.2,263.1"/>
	<path d="M499.2,269.6c0.2-0.1,0.4-0.2,0.5-0.3C499.6,269.4,499.4,269.5,499.2,269.6"/>
	<path d="M528,263.4c-0.1,0.2-0.3,0.5-0.4,0.7C527.7,263.9,527.8,263.7,528,263.4"/>
	<path d="M494.4,271.7c0.1-0.1,0.4-0.1,0.5-0.2C494.7,271.6,494.5,271.6,494.4,271.7"/>
	<path d="M497.1,270.6c0.1,0,0.2-0.1,0.3-0.2C497.4,270.5,497.2,270.5,497.1,270.6"/>
	<path d="M527.4,264.5c-0.1,0.3-0.2,0.5-0.3,0.7C527.2,265,527.3,264.7,527.4,264.5"/>
	<path d="M539.2,255.4c-0.3,0.2-0.7,0.4-1.1,0.6C538.5,255.8,538.8,255.6,539.2,255.4"/>
	<path d="M537.3,256.4c-0.3,0.2-0.6,0.4-0.9,0.5C536.7,256.8,537,256.6,537.3,256.4"/>
</g>
<path d="M508.8,257.9L508.8,257.9L508.8,257.9z"/>
<g>
	<path d="M529,262.1c0.2-0.3,0.4-0.5,0.7-0.7C529.4,261.6,529.2,261.8,529,262.1"/>
	<path d="M531,260.2L531,260.2c0.6-0.4,1.5-1,2.8-1.8C532.5,259.2,531.6,259.8,531,260.2"/>
	<path d="M529.9,261.1c0.3-0.3,0.7-0.6,1.1-0.9C530.6,260.5,530.2,260.8,529.9,261.1"/>
	<path d="M483.7,271.8c-0.3-0.8-0.6-1.9-0.6-3.2c0-0.1,0-0.2,0-0.3c-1.7,0.4-15.7,4.2-20.8,6.2c-2,0.8-3.6,1.1-4.9,1.1
		c-2.9,0-4.7-1.3-6.1-2.7c-0.3-0.4-0.6-0.7-0.8-1c0.1,0,0.2-0.1,0.3-0.1c-1.3,0.5-2.6,1-3.9,1.4l-3.1,1.1c0.5,0.9,1.3,2.1,2.5,3.4
		c2.2,2.4,6,4.9,11.2,4.9h0c2.3,0,4.8-0.5,7.5-1.5c4.5-1.8,12.3-3.7,19.9-6L483.7,271.8L483.7,271.8z"/>
	<path d="M508.3,254.6L508.3,254.6l-0.1-0.2c-0.1-0.4-0.3-0.8-0.5-1.2l-1.6-3.3l-0.1,0l-0.7,0.4l-2.4,1.3l0,0c0,0,0,0,0,0
		c-1.7,0.9-3.4,1.8-4.9,2.7c-0.2,0.1-0.4,0.3-0.7,0.4c-0.6,0.3-1.1,0.6-1.6,0.9c-0.2,0.1-0.3,0.2-0.4,0.3c-0.7,0.4-1.4,0.7-2,1.1
		c-1.7,1-3.1,1.8-4.1,2.4c-0.6,0.4-1.1,0.7-1.5,0.9c0,0,0,0,0,0c-1.2,0.9-2.2,1.9-2.9,3c0,0,0,0.1-0.1,0.1c-0.2,0.3-0.4,0.6-0.6,0.9
		c0,0.1-0.1,0.2-0.1,0.3c-0.1,0.3-0.2,0.5-0.4,0.8c0,0.1,0,0.3-0.1,0.4c-0.1,0.2-0.1,0.5-0.2,0.7c0,0.1-0.1,0.3-0.1,0.4
		c0,0.2-0.1,0.4-0.1,0.6c0,0.2,0,0.3,0,0.4c0,0.1,0,0.2,0,0.4v0c0,0.1,0,0.2,0,0.3c0,1.4,0.3,2.5,0.6,3.2v0l1.1,3.1l0,0l0.4-0.1
		l2.8-0.9c1.5-0.5,3-1,4.4-1.5c0.7-0.2,1.3-0.5,2-0.7c0.1-0.1,0.4-0.1,0.5-0.2c0.7-0.3,1.5-0.6,2.2-0.9c0.1,0,0.2-0.1,0.3-0.1
		c0.6-0.3,1.2-0.6,1.8-0.9c0.2-0.1,0.4-0.2,0.5-0.3c0.7-0.4,1.4-0.7,2-1.1c1.7-1,3.1-2.2,4.3-3.5c0.2-0.2,0.4-0.4,0.6-0.7
		c0.2-0.2,0.3-0.4,0.5-0.7c1.1-1.5,1.8-3.4,1.8-5.4v0C508.8,256.7,508.6,255.6,508.3,254.6"/>
	<path class="st0" d="M575.2,263.1"/>
	<path d="M545.9,252.2c0.1,0,0.3,0,0.5,0c0.3,0.1,0.7,0,1.6,0.7c0.4,0.3,1,0.9,1.2,1.7c0.4,1,0.5,2.1,0.6,3.2c0-0.1,0-0.1,0-0.2
		c6.1-3.3,12.6-6.5,16.2-7.9c2.5-0.9,5.2-1.5,7.8-1.5c2.6,0,5,0.6,7,1.8c1.4,0.9,2.6,2,3.6,3.7l2.9-1.6c1.1-0.6,2.1-1.1,3.2-1.7
		c-1.6-2.8-3.7-4.9-6.1-6.4c-3.3-2.1-7.1-2.9-10.7-2.9c-3.7,0-7.2,0.8-10.3,2c-4,1.5-10,4.6-15.9,7.7c-0.9,0.4-1.7,0.9-2.5,1.4
		H545.9z"/>
	<path d="M548.2,263.1c-0.1,0.2-0.2,0.3-0.4,0.5c-0.1,0.1-0.2,0.2-0.3,0.3c0.1-0.1,0.2-0.2,0.3-0.3
		C548,263.4,548.1,263.3,548.2,263.1"/>
	<path d="M539.4,269.9c0,0,0.1,0,0.1-0.1C539.5,269.9,539.5,269.9,539.4,269.9"/>
	<path d="M537,271c0.1,0,0.3-0.1,0.4-0.2C537.3,270.9,537.2,271,537,271"/>
	<path d="M541.3,268.9c0.1-0.1,0.3-0.1,0.4-0.2C541.6,268.8,541.5,268.9,541.3,268.9"/>
	<path d="M611.7,263.2c0.1-0.2,0.3-0.4,0.4-0.6C612,262.8,611.9,263,611.7,263.2"/>
	<path d="M610.4,265.8c-0.1,0.2-0.1,0.4-0.2,0.6C610.3,266.1,610.4,265.9,610.4,265.8"/>
	<path d="M610.9,264.7c-0.1,0.2-0.2,0.4-0.3,0.6C610.7,265.1,610.8,264.9,610.9,264.7"/>
	<path d="M611.4,263.6c-0.1,0.2-0.3,0.4-0.4,0.6C611.2,264,611.3,263.8,611.4,263.6"/>
	<path d="M610.2,266.8c0,0.2-0.1,0.4-0.1,0.6C610.1,267.2,610.1,267,610.2,266.8"/>
	<path d="M614.6,260.3"/>
	<path d="M613.5,261.2c0.3-0.3,0.6-0.5,1-0.8C614.1,260.6,613.8,260.9,613.5,261.2"/>
	<path d="M624.1,254.6c-0.7,0.4-1.3,0.7-1.9,1.1C622.9,255.3,623.5,255,624.1,254.6"/>
	<path d="M618.1,258c-1.1,0.7-2,1.2-2.7,1.6C616.1,259.2,617,258.7,618.1,258"/>
	<path d="M621.9,255.9c-0.7,0.4-1.3,0.7-1.9,1.1C620.6,256.6,621.2,256.2,621.9,255.9"/>
	<path d="M618.4,257.8c-0.1,0.1-0.2,0.1-0.3,0.2C618.2,258,618.3,257.9,618.4,257.8"/>
	<path d="M613.1,261.5c-0.2,0.2-0.4,0.4-0.6,0.6C612.7,261.9,612.9,261.7,613.1,261.5"/>
	<path d="M629.3,251.8l-0.2,0.1C629.2,251.8,629.3,251.8,629.3,251.8l3.7-2l1.3,3.9c0,0,0.1,0.3,0.3,0.8l0,0.1
		c0.2,0.7,0.4,1.4,0.5,2.2v-0.1c5.5-2.9,11.2-5.8,14.4-7c2.4-0.9,5.2-1.5,7.8-1.5c4.2,0.1,7.8,1.3,10.4,5.1l2.1-1.2
		c0.3-0.1,0.6-0.3,0.9-0.4l3.1-1.7c0,0,0,0,0.1,0c-3.9-6.3-10.6-8.9-16.5-8.8c-3.6,0-7.2,0.8-10.3,2c-3.6,1.4-9.1,4.1-14.5,7
		C631.5,250.7,630.4,251.2,629.3,251.8"/>
	<path d="M652.6,263.3c-0.2,0.3-0.4,0.6-0.5,1C652.2,264,652.4,263.7,652.6,263.3"/>
	<path d="M625.9,269.4c0.2-0.1,0.3-0.2,0.4-0.3C626.2,269.3,626,269.3,625.9,269.4"/>
	<path d="M651.1,266.9c0,0.2-0.1,0.4-0.1,0.5C651.1,267.2,651.1,267,651.1,266.9"/>
	<path d="M651.9,264.6c-0.1,0.3-0.3,0.5-0.4,0.8C651.6,265.1,651.8,264.8,651.9,264.6"/>
	<path d="M621.1,271.6c0.2-0.1,0.3-0.1,0.5-0.2C621.4,271.4,621.3,271.5,621.1,271.6"/>
	<path d="M623.8,270.4c0.1,0,0.1-0.1,0.2-0.1C623.9,270.4,623.9,270.4,623.8,270.4"/>
	<path d="M651.4,265.7c-0.1,0.2-0.1,0.4-0.2,0.7C651.3,266.2,651.4,266,651.4,265.7"/>
	<path d="M633.1,263.9c1.1-1.4,1.9-3.2,2.1-5.2C635,260.6,634.1,262.4,633.1,263.9c-0.4,0.6-0.9,1.1-1.4,1.6
		C632.1,265,632.6,264.4,633.1,263.9"/>
	<path d="M635.2,257.8"/>
	<path d="M665.6,254.4c0.7-0.4,1.3-0.7,2.1-1.1C666.9,253.6,666.2,254,665.6,254.4"/>
	<path d="M652.6,263.2c0.7-1.1,1.7-2.1,2.9-3C654.3,261.1,653.3,262.2,652.6,263.2"/>
	<path d="M663.1,255.7c-0.7,0.4-1.4,0.8-2,1.1C661.7,256.5,662.4,256.1,663.1,255.7"/>
	<path d="M665.6,254.4c-0.7,0.4-1.5,0.8-2.2,1.2C664.1,255.2,664.8,254.8,665.6,254.4"/>
	<path d="M667.6,253.2L667.6,253.2L667.6,253.2c0.7-0.4,1.5-0.8,2.2-1.2L667.6,253.2L667.6,253.2z"/>
	<path d="M662.3,271.7c0.1-0.1,0.3-0.1,0.4-0.2C662.6,271.6,662.5,271.6,662.3,271.7"/>
	<path d="M665,270.6c0,0,0.1-0.1,0.2-0.1C665.1,270.5,665.1,270.5,665,270.6"/>
	<path d="M667.1,269.5c0.1-0.1,0.3-0.2,0.4-0.2C667.4,269.4,667.3,269.4,667.1,269.5"/>
	<path d="M676.7,257.8L676.7,257.8c0,1.4-0.3,2.6-0.8,3.8C676.4,260.4,676.7,259.1,676.7,257.8L676.7,257.8z"/>
	<path d="M765.8,176.2c0,0-14.4-0.3-13.3,3.7c0,0-1,9.4-1.7,11c0,0,1.4,7.7-0.3,9c0,0-1.1,4.3-10.3,3.7c0,0-58.8-0.4-68,0.3
		c0,0-5.5-0.7-4.1-5.4c0,0,4.1-2,6.8-1.3c2.8,0.7,42.8-0.3,42.8-0.3s17.4,1.3,20.1-1.1l4.1-1.3c0,0,1.7-2,1.7-4.7
		c0-2.7,0.4-11.7,0.4-11.7l1-3.4c0,0-0.3-3.3,0-92.6c0,0,1.4-7-3.1-11.3c0,0,0-2.7,1.4-2.3c0.7,0.1,0.9,0.2,0.9,0.3
		c0.9-0.2,6-1.4,7,0.7c0,0,2.7,8,0.3,12.7c0,0-0.7,9.7,4.5,9.7c0,0,2.1,2,6.2,1.1c0,0,8.8,1,8.8,3.7c0,0,0,6-6.1,5l-8.2,0.7
		c0,0-5.5,1-4.8,7.4c0.7,6.3-0.4,51.9-0.4,51.9s0,5.3,8.6,5c0,0,10.6-0.3,10.6,2.6C770.6,169.2,773.4,175.9,765.8,176.2
		 M664.3,189.4c0,0,6.1-4,8.5-3.3c0,0,31.1,2,40.7,0.4c9.5-1.7,3.8-0.4,3.8-0.4s8.2,0,10.6-3c0,0,2.4-2.6,3.8-0.3l5.1,7.4
		c0,0,0.3,3.3-5.5,3c0,0-55.7,0-57.4,0.4C673.9,193.5,663.3,195.1,664.3,189.4 M660.2,207.7c-3.4,0.7-7.2-0.4-8.2-4.7
		c-1-4.4,0.7-9.7,5.4-10.7c0,0,5.8,1,5.8,6.3C663.3,204,663.6,207,660.2,207.7 M645.1,193.1l-56-0.7l-6.1,0.4
		c-3.9-0.6-0.3-5.3,2.4-8.4l2.7-2.3c0,0,4.8,5,12.7,4.7l46.5,0.6c0,0,5.1,0.4,4.8,3C652,190.4,651.3,194.5,645.1,193.1 M646.2,201
		c0,0,0,2.4-3.7,1.7c0,0-28.4,2.7-54.1,1.7c0,0-17.1,1-18.1-1c0,0-2.8-0.3-2.8-10c0,0,0-9-0.7-10.7c0,0,0.7-4.7-7.9-5.6
		c0,0-11.9,2-12.3-5.1c0,0,1.7-5,13.3-4.3c0,0,8.6,1.4,6.8-5.3l1-49.5c0,0,1.1-8.7-4.8-9.1c0,0-5.5-0.3-7.2,0.4c0,0-9.9,0-9.2-5.7
		c0,0,3.4-6,13.3-4.6c0,0,7.5,1.4,7.8-7c0,0-0.3-17.1,3.8-17.7c0,0,8.5,0.3,6.2,2.6c0,0-4.1,7.4-3.8,9.1l-0.4,22.3
		c0,0-0.4,14.4,0,16.1c0.4,1.7-0.4,43.8-0.4,43.8s-0.4,8.1,0,10.7v18c0,0-0.7,8,5.5,6c0,0,60.2-1.3,64-0.3
		C642.8,197.3,648.2,198.3,646.2,201 M508.6,108.9l-1,48.5c0,0-0.7,8.4,7.5,8c0,0,8.6-0.3,10.2,2.4c0,0,5.8,8.3-6.8,7.7
		c0,0-7.9-0.4-9.6,1c0,0-1.4,1.7-2.4,17.4c0,0,0.7,9.4-6.5,8.4c0,0-47.6,0.6-52-0.4c0,0-4.7,1.4-5.5-2.4c0,0,0-2.6,4.8-2.6l47.8-0.3
		c0,0,4.5,2.3,4.5-5.7c0,0,1.7-36.4,1.9-76.6c0-11.9,0.6-24.4,0.1-36.1c0,0-1.1-5-2.4-6c0,0,0-5.3,5.8-3.3c0,0,5.1,0.4,3.7,8
		l0.3,11.7c0,0-1,5.1,8.3,3.7c0,0,9.2,1.4,9.6,4.7c0,0,2.7,6.7-8.3,6H511C511,102.9,507.5,104.9,508.6,108.9 M437.1,189.1
		c0,0,3.1-3.3,5.2-3.3c0,0,34.1,3,40-1.1c0,0,5.1-1,6.5,0c0,0,5.1,4,5.1,6.4c0,0-0.4,3-6.5,1.4c0,0-38.7,0.3-40.7,0.3
		C446.7,192.8,436.1,195.2,437.1,189.1 M432.7,209.1c-6.9,0-7.6-6.4-7.6-6.4c-0.4-8.3,6.1-8.3,6.1-8.3c3.1-1.4,6.9,7,6.9,7
		C438.8,208.1,432.7,209.1,432.7,209.1 M412.9,192h-35.3c-5.1,1.1-3.7-3.6-3.7-3.6c3.1-5.7,6.5-4.4,6.5-4.4c1.4,0.4,7.9,2,7.9,2
		c2.7,0.7,34.2,0.4,34.2,0.4c9.9,5.3,0,7.7,0,7.7L412.9,192z M418.6,201.9h-53.3c-6.8-0.3-6.1-5.3-6.1-5.3v-12.7
		c0.4-6.7-6.8-8-6.8-8c-9.9,2-12.3-4.1-12.3-4.1c-0.3-6.9,11.3-6.3,11.3-6.3c9.5,0,6.8-8.3,6.8-8.3l0.7-50.5c-0.7-5-13-5-13-5
		c-7.8,1.3-5.8-6-5.8-6c3.8-3.7,12-3.3,12-3.3c7.1,0.4,7.1-7.3,7.1-7.3l0.4-13.7c7.9-7,9.2-1.4,9.2-1.4c-4.5,6.7-3.4,23.1-3.4,23.1
		s-0.6-3-0.3-1.3c0.3,1.7-0.3,96-0.3,96c0.6,10.4,7.8,8.1,7.8,8.1l44.5,0.6c4.1,0,4.5,2.7,4.5,2.7
		C421.4,202.2,418.6,201.9,418.6,201.9 M304.2,109.7l-1.1,48.5c0,0-0.7,8.4,7.6,8c0,0,8.5-0.3,10.2,2.4c0,0,5.8,8.3-6.8,7.7
		c0,0-7.8-0.4-9.5,1c0,0-1.4,1.7-2.4,17.4c0,0,0.7,9.4-6.5,8.4c0,0-47.5,0.7-52-0.3c0,0-4.7,1.4-5.4-2.4c0,0,0-2.7,4.7-2.7l47.9-0.3
		c0,0,4.4,2.3,4.4-5.7c0,0,1.8-36.4,2-76.6c0-11.9,0.6-24.4,0.1-36.1c0,0-1.1-5-2.4-6c0,0,0-5.3,5.9-3.4c0,0,5.1,0.4,3.8,8.1
		l0.3,11.7c0,0-1,5,8.2,3.7c0,0,9.2,1.3,9.6,4.6c0,0,2.7,6.7-8.2,6h-7.9C306.5,103.7,303.1,105.8,304.2,109.7 M232.7,189.6
		c0,0,3.1-3.3,5.1-3.3c0,0,34.2,3,40-1c0,0,5.2-1,6.6,0c0,0,5.1,4,5.1,6.3c0,0-0.3,3-6.5,1.3c0,0-38.6,0.4-40.7,0.4
		C242.3,193.3,231.7,195.6,232.7,189.6 M228.9,209c-6.8,0-7.5-6.4-7.5-6.4c-0.3-8.4,6.2-8.4,6.2-8.4c3.1-1.3,6.8,7,6.8,7
		C235.1,208,228.9,209,228.9,209 M208.4,191.9h-35.2c-5.1,1-3.8-3.6-3.8-3.6c3.1-5.7,6.5-4.3,6.5-4.3c1.4,0.3,7.8,2,7.8,2
		c2.7,0.7,34.2,0.4,34.2,0.4c9.9,5.4,0,7.7,0,7.7L208.4,191.9z M214.2,202.7h-53.3c-6.8-0.4-6.1-5.3-6.1-5.3v-12.7
		c0.3-6.7-6.8-8-6.8-8c-9.9,2-12.3-4-12.3-4c-0.3-7,11.3-6.3,11.3-6.3c9.6,0,6.8-8.3,6.8-8.3l0.7-50.5c-0.7-5-13-5-13-5
		c-7.9,1.4-5.8-6-5.8-6c3.8-3.6,12-3.3,12-3.3c7.2,0.3,7.2-7.4,7.2-7.4l0.3-13.7c7.9-7,9.3-1.3,9.3-1.3c-4.4,6.7-3.5,23.1-3.5,23.1
		s-0.7-3-0.3-1.3c0.3,1.6-0.4,95.9-0.4,95.9c0.7,10.3,7.9,8,7.9,8l44.4,0.7c4.1,0,4.5,2.7,4.5,2.7C217,203,214.2,202.7,214.2,202.7
		 M171.5,71.3c0,0,0.7,6.7,0.7,8.4c0,1.7-1.1,96.6-1.1,96.6s1.1,7.4-5.4,11.1c0,0-1.7,0.7-2.1-4L164.3,83
		C164.3,83,165.1,70.6,171.5,71.3 M175.6,175.5l1-107.3c-0.4-2.7,3.8-3,3.8-3l10.2,2.7c2.4,2,28.4,0,28.4,0c5.8,0.3,6.2,8.1,6.2,8.1
		c1.4,18-1.4,104.9-1.4,104.9c-0.4,5.1-4.5,1-4.5,1c-16.7-0.6-23.2-0.3-23.2-0.3c-2.4,1-12.3,0-12.3,0
		C175.3,180.6,175.6,175.5,175.6,175.5 M229.3,167.8l0.7-42.5c-0.4-1.7,0.7-52.1,0.7-52.1c0.7-5.3,13-5,13-5
		c32.5,1,31.8-1.7,31.8-1.7c5.8-2.7,6.2,0.4,6.2,0.4c0.7,1.4-0.7,14.7-0.7,14.7c0.7,1.7-0.7,95.3-0.7,95.3c-1,5.3-4.5,3.7-4.5,3.7
		c-4.4,3.4-26.3,1.4-26.3,1.4c-6.9-1-17.8,1.7-17.8,1.7c-1.7,2-3.8-1-3.8-1L229.3,167.8z M285,72.3c5.8-8,9.2,8,9.2,8L292.8,181
		c-0.3,3.3-1,5.3-1,5.3c-4.4,1-7.2-8.4-7.2-8.4L285,72.3z M375.9,70.4c0,0,0.7,6.7,0.7,8.4c0,1.7-1.1,96.7-1.1,96.7s1.1,7.3-5.5,11
		c0,0-1.7,0.7-2.1-4l0.7-100.3C368.7,82.2,369.4,69.8,375.9,70.4 M380,174.8l1.1-107.3c-0.3-2.7,3.8-3.1,3.8-3.1l10.2,2.6
		c2.4,2,28.4,0,28.4,0c5.8,0.4,6.1,8.1,6.1,8.1c1.3,18.1-1.4,105-1.4,105c-0.4,5-4.5,1-4.5,1c-16.7-0.6-23.2-0.3-23.2-0.3
		c-2.4,1-12.3,0-12.3,0C379.7,179.8,380,174.8,380,174.8 M433.7,167.4l0.6-42.5c-0.3-1.7,0.7-52.2,0.7-52.2c0.7-5.3,12.9-5,12.9-5
		c32.5,1.1,31.8-1.7,31.8-1.7c5.9-2.7,6.2,0.3,6.2,0.3c0.7,1.3-0.7,14.7-0.7,14.7c0.7,1.7-0.7,95.3-0.7,95.3c-1,5.4-4.4,3.7-4.4,3.7
		c-4.4,3.3-26.3,1.3-26.3,1.3c-6.9-1-17.8,1.7-17.8,1.7c-1.8,2-3.8-1-3.8-1L433.7,167.4z M489.4,71.4c5.8-8,9.2,8.1,9.2,8.1
		l-1.4,100.6c-0.3,3.4-1,5.4-1,5.4c-4.5,1-7.1-8.3-7.1-8.3L489.4,71.4z M583.3,70.9c0,0,2.3,0,2,4l-0.7,101c0,0,1,6.7-4.8,11.1
		c0,0-3.1,3.6-3.1-2.1l1.4-102.9C578.1,81.9,578.5,74.3,583.3,70.9 M589.8,128.4c0,0-0.7-25,0-27.4c0,0,1-23.1,0.3-25.7
		c0,0,0.4-5.4-0.7-8.1c0,0,0-3.4,5.8-1.3c0,0,2.1,3.7,13.3,2c0,0,8.2,1.3,16.1,0.3c0,0,17.5-1.3,21.9,0c0,0,6.8-1.3,8.9,6L655.1,95
		l0.1,0.5c0.8-2.1,1.6-4.6,3.5-3.2c0.8,0.5,1.4,1.2,1.8,1.9l0.3-21.3c0,0,1.4-4,6.9-4.7c0,0,8.6-1,9.9-0.3
		c1.3,0.7,19.8,1.7,24.9,0.7c5.2-1.1,6.2,3.3,21.5-4.4c0,0,4.1,0.3,4.1,3c0,0-1.4,28.4,0,33.8c0,0,0,52.2-1,55.9l0.7,16.7
		c0,0,0.7,7.4-11.3,8.1c0,0,7.5,1-39.7-0.4c0,0-7.5-0.3-15.7,3.3c0,0-1.8-0.3-1.8-4.6c0,0,1.4-15.7,0-31.1l-0.5-13.5
		c-0.9,0.3-2.4,0.6-3.2,0.3c0,3.1-0.1,7.7-0.7,12.3c-0.6,4.1,1.3,23.8-0.4,33.8c0,0-0.3,3.3-7.5,0.3c0,0-43.8,1-45.1-0.3
		c0,0-12,0.3-13-5.7C589.1,175.9,590.8,130.1,589.8,128.4 M732,175.5l0.7-102.6c0-5.3,4.4-2,4.4-2l4.1,7.4c-1,5.3,0,8.7,0,8.7
		l-0.7,96.3c1,7.7-2.8,3.4-2.8,3.4c-2-1-6.1-8.7-6.1-8.7L732,175.5z M98.1,32.3V36v194.8h711.2V32.3H98.1z"/>
	<path class="st0" d="M368,182.5c0.4,4.7,2.1,4,2.1,4c6.5-3.7,5.5-11,5.5-11s1.1-95,1.1-96.7s-0.7-8.4-0.7-8.4
		c-6.5-0.6-7.1,11.7-7.1,11.7L368,182.5z"/>
	<path class="st0" d="M417,196.2l-44.4-0.6c0,0-7.2,2.3-7.8-8.1c0,0,0.7-94.3,0.3-96c-0.3-1.6,0.3,1.3,0.3,1.3s-1.1-16.4,3.4-23.1
		c0,0-1.4-5.6-9.2,1.4l-0.4,13.7c0,0,0,7.7-7.1,7.3c0,0-8.2-0.3-12,3.3c0,0-2,7.4,5.8,6c0,0,12.3,0,13,5l-0.7,50.5
		c0,0,2.7,8.3-6.8,8.3c0,0-11.6-0.6-11.3,6.3c0,0,2.5,6,12.3,4.1c0,0,7.2,1.4,6.8,8v12.7c0,0-0.7,5,6.2,5.3h53.3c0,0,2.8,0.4,2.8-3
		C421.4,198.9,421.1,196.2,417,196.2"/>
	<path class="st0" d="M511,102.9h7.8c11,0.7,8.3-6,8.3-6c-0.4-3.3-9.6-4.7-9.6-4.7c-9.2,1.4-8.2-3.7-8.2-3.7l-0.3-11.7
		c1.4-7.7-3.8-8-3.8-8c-5.8-2-5.8,3.3-5.8,3.3c1.3,1,2.4,6,2.4,6c0.4,11.6-0.1,24.2-0.1,36.1c-0.2,40.2-1.9,76.6-1.9,76.6
		c0,8-4.5,5.7-4.5,5.7l-47.8,0.3c-4.8,0-4.8,2.6-4.8,2.6c0.7,3.7,5.4,2.3,5.4,2.3c4.4,1,52,0.4,52,0.4c7.2,1,6.5-8.4,6.5-8.4
		c1-15.7,2.4-17.4,2.4-17.4c1.7-1.4,9.6-1,9.6-1c12.7,0.7,6.8-7.7,6.8-7.7c-1.7-2.7-10.3-2.4-10.3-2.4c-8.2,0.4-7.5-7.9-7.5-7.9
		l1.1-48.5C507.5,104.9,511,102.9,511,102.9"/>
	<path class="st0" d="M390,101.4c0.7-1.7,6.5-0.7,6.5-0.7h14.3c13.7,4.4,11.6,14.1,11.6,14.1c1.1,9.7-9.5,13.7-9.5,13.7l-0.7,5.4
		l9.9,15.4c1.7,1.3,1.4,2.6,1.4,2.6c-1.4,3.7-6.8,0-6.8,0l-12.3-18.7c-1.1-1.3-3.1,1-3.1,1l-0.7,10.4l3.1,5c2,2.6-1.4,4.7-1.4,4.7
		l-10.9-1.1c-2.1-1,0-4.4,0-4.4c2.7-1.6,3.1-6,3.1-6l-0.4-19.4l0.4-14.1c0-1.6-2.7-4.6-2.7-4.6C389.3,104.4,390,101.4,390,101.4
		 M388.2,180.8c0,0,9.9,1,12.3,0c0,0,6.5-0.4,23.2,0.3c0,0,4.1,4,4.5-1c0,0,2.7-86.9,1.4-105c0,0-0.4-7.7-6.1-8.1c0,0-26,2-28.4,0
		l-10.2-2.7c0,0-4.1,0.4-3.8,3.1L380,174.8C380,174.8,379.7,179.8,388.2,180.8"/>
	<path class="st0" d="M412.2,123.2c8.5-8.1,0-15.3-1.4-17.4c-1.4-2-8.2-0.3-8.2-0.3l-1,2.4c0.3,7.3,0.3,17.3,0.3,17.3
		C408.5,130.2,412.2,123.2,412.2,123.2"/>
	<path class="st0" d="M446.1,150.6c3.4-1.7,4.4-7.7,4.4-7.7v-33.1l-3-6.7c-1-2.7,5.8-3,5.8-3l3.4,0.7c2.4-0.3,4.8,0.7,4.8,0.7
		c2.4,3.7-1.7,5.7-1.7,5.7l-1.4,4.3c-0.3,3.7,0,35.4,0,35.4c0.7,1.7,3.4,4.7,3.4,4.7c0,3-3.8,2.4-3.8,2.4l-9.9,0.4
		C445.1,153.9,446.1,150.6,446.1,150.6 M436.1,183.1c0,0,10.9-2.7,17.8-1.7c0,0,21.9,2,26.3-1.3c0,0,3.4,1.7,4.4-3.7
		c0,0,1.4-93.6,0.7-95.3c0,0,1.4-13.4,0.7-14.7c0,0-0.4-3-6.2-0.3c0,0,0.7,2.7-31.8,1.6c0,0-12.3-0.3-12.9,5c0,0-1.1,50.5-0.7,52.2
		l-0.6,42.5l-1.4,14.7C432.3,182.1,434.3,185.1,436.1,183.1"/>
	<path class="st0" d="M496.2,185.5c0,0,0.7-2,1-5.4l1.4-100.6c0,0-3.4-16-9.2-8.1l-0.3,105.7C489.1,177.1,491.8,186.5,496.2,185.5"
		/>
	<path class="st0" d="M448.1,154.3l9.9-0.4c0,0,3.8,0.7,3.8-2.4c0,0-2.8-3-3.4-4.7c0,0-0.3-31.8,0-35.4l1.4-4.3c0,0,4.1-2,1.7-5.7
		c0,0-2.4-1-4.8-0.7l-3.4-0.7c0,0-6.8,0.4-5.8,3l3,6.7v33.1c0,0-1,6-4.4,7.7C446.1,150.6,445.1,153.9,448.1,154.3"/>
	<path d="M448.1,154.3l9.9-0.4c0,0,3.8,0.7,3.8-2.4c0,0-2.8-3-3.4-4.7c0,0-0.3-31.8,0-35.4l1.4-4.3c0,0,4.1-2,1.7-5.7
		c0,0-2.4-1-4.8-0.7l-3.4-0.7c0,0-6.8,0.4-5.8,3l3,6.7v33.1c0,0-1,6-4.4,7.7C446.1,150.6,445.1,153.9,448.1,154.3"/>
	<path class="st0" d="M402.7,105.5c0,0,6.8-1.7,8.2,0.3c1.4,2,9.9,9.3,1.4,17.4c0,0-3.8,7-10.2,2c0,0,0-10.1-0.3-17.4L402.7,105.5z
		 M391.7,104.8c0,0,2.7,3,2.7,4.6l-0.4,14.1l0.4,19.4c0,0-0.4,4.3-3.1,6c0,0-2.1,3.3,0,4.4l10.9,1.1c0,0,3.4-2.1,1.4-4.7l-3.1-5
		l0.7-10.4c0,0,2.1-2.4,3.1-1.1l12.3,18.7c0,0,5.5,3.7,6.8,0c0,0,0.4-1.3-1.4-2.6l-9.9-15.4l0.7-5.4c0,0,10.6-4,9.5-13.7
		c0,0,2.1-9.6-11.6-14.1h-14.3c0,0-5.8-1-6.5,0.7C390,101.4,389.3,104.4,391.7,104.8"/>
	<path d="M402.7,105.5c0,0,6.8-1.7,8.2,0.3c1.4,2,9.9,9.3,1.4,17.4c0,0-3.8,7-10.2,2c0,0,0-10.1-0.3-17.4L402.7,105.5z M391.7,104.8
		c0,0,2.7,3,2.7,4.6l-0.4,14.1l0.4,19.4c0,0-0.4,4.3-3.1,6c0,0-2.1,3.3,0,4.4l10.9,1.1c0,0,3.4-2.1,1.4-4.7l-3.1-5l0.7-10.4
		c0,0,2.1-2.4,3.1-1.1l12.3,18.7c0,0,5.5,3.7,6.8,0c0,0,0.4-1.3-1.4-2.6l-9.9-15.4l0.7-5.4c0,0,10.6-4,9.5-13.7
		c0,0,2.1-9.6-11.6-14.1h-14.3c0,0-5.8-1-6.5,0.7C390,101.4,389.3,104.4,391.7,104.8"/>
	<path class="st0" d="M163.6,183.3c0.4,4.7,2,4,2,4c6.5-3.7,5.5-11.1,5.5-11.1s1.1-94.9,1.1-96.6c0-1.7-0.7-8.4-0.7-8.4
		c-6.4-0.7-7.2,11.7-7.2,11.7L163.6,183.3z"/>
	<path class="st0" d="M212.5,197l-44.4-0.7c0,0-7.2,2.3-7.9-8c0,0,0.7-94.3,0.4-95.9c-0.4-1.7,0.3,1.3,0.3,1.3s-1-16.4,3.4-23.1
		c0,0-1.3-5.7-9.2,1.3l-0.3,13.7c0,0,0,7.7-7.2,7.4c0,0-8.2-0.4-12,3.3c0,0-2.1,7.4,5.8,6c0,0,12.3,0,13,5l-0.7,50.5
		c0,0,2.8,8.3-6.8,8.3c0,0-11.6-0.6-11.3,6.3c0,0,2.4,6,12.3,4c0,0,7.2,1.4,6.8,8.1v12.7c0,0-0.7,5,6.1,5.3h53.3c0,0,2.8,0.3,2.8-3
		C217,199.7,216.6,197,212.5,197"/>
	<path class="st0" d="M306.5,103.7h7.9c10.9,0.7,8.2-6,8.2-6c-0.4-3.3-9.6-4.6-9.6-4.6c-9.2,1.3-8.2-3.7-8.2-3.7l-0.3-11.7
		c1.4-7.7-3.8-8.1-3.8-8.1c-5.9-2-5.9,3.4-5.9,3.4c1.4,1,2.4,6,2.4,6c0.4,11.7-0.1,24.2-0.1,36.1c-0.2,40.1-2,76.6-2,76.6
		c0,8-4.4,5.7-4.4,5.7l-47.9,0.3c-4.7,0-4.7,2.7-4.7,2.7c0.7,3.7,5.4,2.4,5.4,2.4c4.4,1,52,0.3,52,0.3c7.2,1,6.5-8.4,6.5-8.4
		c1-15.6,2.4-17.3,2.4-17.3c1.7-1.4,9.5-1,9.5-1c12.7,0.7,6.8-7.7,6.8-7.7c-1.7-2.7-10.2-2.4-10.2-2.4c-8.2,0.4-7.6-8-7.6-8
		l1.1-48.5C303.1,105.7,306.5,103.7,306.5,103.7"/>
	<path class="st0" d="M182.5,101.4l12.6,0.4c0,0,4.1,3.3-1.3,7c0,0,0.7,5.3,7.8,25.7c0,0,2.1,7.7,4.4,2l6.9-23.7l-2.1-7
		c0,0-2.1-3.3,1-3.7c0,0,7.2-0.7,8.2,2l-3.1,6.3c0,0-7.5,32.5-11.6,39.1c0,0-0.7,6.7-6.5,1.3c0,0-13.4-41.1-14.1-42.5l-4.4-2.9
		C180.5,105.5,177.7,101.8,182.5,101.4 M183.8,181.6c0,0,9.9,1,12.3,0c0,0,6.5-0.3,23.2,0.3c0,0,4.1,4.1,4.5-1
		c0,0,2.8-86.9,1.4-104.9c0,0-0.4-7.7-6.2-8.1c0,0-26,2-28.4,0l-10.2-2.7c0,0-4.1,0.4-3.8,3l-1,107.3
		C175.6,175.5,175.3,180.6,183.8,181.6"/>
	<path class="st0" d="M291.8,186.3c0,0,0.7-2,1-5.3l1.4-100.6c0,0-3.4-16.1-9.2-8l-0.4,105.6C284.6,177.9,287.4,187.3,291.8,186.3"
		/>
	<path class="st0" d="M236.2,102.4l9.2-1c1.4,1.4,13-0.4,13-0.4c1.7-0.7,2.7,1.7,2.7,1.7l1.7,5.6c-1.7,4.7-3.4,0.7-3.4,0.7
		c-0.7-1.9-7.5-3.3-7.5-3.3c-5.8-0.6-5.1,7.7-5.1,7.7c-1.7,4.3,1,9.7,1,9.7c5.8,2.4,7.8-1.7,7.8-1.7c0.4-1.3,3.4-1,3.4-1
		c2.4,3.3,0,8.7,0,8.7c-1.1,1.7-7.5-2.4-7.5-2.4c-5.8-0.3-5.5,3.4-5.5,3.4v14.8c0,2.6,2.8,5,2.8,5c12.3,1.6,13.3-3.8,13.3-3.8
		c3.4-6.3,4.5-2,4.5-2c2.4,12.1-7.2,10.4-7.2,10.4c-25-0.3-21.9-2.4-21.9-2.4c-2.4-0.4,1-4.7,1-4.7l1-2.6l0.4-35.5
		c0-1.3-1.1-1.9-1.1-1.9C234.8,105.8,236.2,102.4,236.2,102.4 M231.7,183.5c0,0,10.9-2.7,17.8-1.7c0,0,21.8,2,26.3-1.3
		c0,0,3.5,1.6,4.5-3.7c0,0,1.4-93.6,0.7-95.3c0,0,1.4-13.4,0.7-14.7c0,0-0.4-3-6.2-0.4c0,0,0.7,2.7-31.8,1.7c0,0-12.3-0.4-13,5
		c0,0-1,50.5-0.7,52.1l-0.7,42.4l-1.4,14.8C227.9,182.5,230,185.5,231.7,183.5"/>
	<path class="st0" d="M184.9,108.4c0.7,1.4,14.1,42.5,14.1,42.5c5.8,5.3,6.5-1.3,6.5-1.3c4.1-6.7,11.6-39.1,11.6-39.1l3.1-6.3
		c-1.1-2.7-8.2-2-8.2-2c-3.1,0.4-1,3.7-1,3.7l2.1,7l-6.9,23.7c-2.4,5.7-4.4-2-4.4-2c-7.2-20.4-7.8-25.7-7.8-25.7
		c5.4-3.7,1.3-7,1.3-7l-12.6-0.4c-4.8,0.4-2.1,4-2.1,4L184.9,108.4z"/>
	<path d="M184.9,108.4c0.7,1.4,14.1,42.5,14.1,42.5c5.8,5.3,6.5-1.3,6.5-1.3c4.1-6.7,11.6-39.1,11.6-39.1l3.1-6.3
		c-1.1-2.7-8.2-2-8.2-2c-3.1,0.4-1,3.7-1,3.7l2.1,7l-6.9,23.7c-2.4,5.7-4.4-2-4.4-2c-7.2-20.4-7.8-25.7-7.8-25.7
		c5.4-3.7,1.3-7,1.3-7l-12.6-0.4c-4.8,0.4-2.1,4-2.1,4L184.9,108.4z"/>
	<path class="st0" d="M238.9,107.5c0,0,1.1,0.6,1.1,1.9l-0.4,35.5l-1,2.6c0,0-3.4,4.3-1,4.7c0,0-3.1,2.1,21.9,2.4
		c0,0,9.5,1.7,7.2-10.4c0,0-1.1-4.3-4.4,2c0,0-1.1,5.4-13.3,3.8c0,0-2.8-2.4-2.8-5v-14.8c0,0-0.4-3.7,5.5-3.4c0,0,6.5,4.1,7.5,2.4
		c0,0,2.4-5.3,0-8.7c0,0-3.1-0.3-3.4,1c0,0-2,4-7.8,1.7c0,0-2.7-5.4-1-9.7c0,0-0.7-8.4,5.1-7.7c0,0,6.8,1.4,7.5,3.3
		c0,0,1.7,4,3.4-0.7l-1.7-5.6c0,0-1-2.3-2.7-1.7c0,0-11.6,1.7-13,0.4l-9.2,1C236.2,102.4,234.8,105.8,238.9,107.5"/>
	<path d="M238.9,107.5c0,0,1.1,0.6,1.1,1.9l-0.4,35.5l-1,2.6c0,0-3.4,4.3-1,4.7c0,0-3.1,2.1,21.9,2.4c0,0,9.5,1.7,7.2-10.4
		c0,0-1.1-4.3-4.4,2c0,0-1.1,5.4-13.3,3.8c0,0-2.8-2.4-2.8-5v-14.8c0,0-0.4-3.7,5.5-3.4c0,0,6.5,4.1,7.5,2.4c0,0,2.4-5.3,0-8.7
		c0,0-3.1-0.3-3.4,1c0,0-2,4-7.8,1.7c0,0-2.7-5.4-1-9.7c0,0-0.7-8.4,5.1-7.7c0,0,6.8,1.4,7.5,3.3c0,0,1.7,4,3.4-0.7l-1.7-5.6
		c0,0-1-2.3-2.7-1.7c0,0-11.6,1.7-13,0.4l-9.2,1C236.2,102.4,234.8,105.8,238.9,107.5"/>
	<path class="st0" d="M760,166.5c-8.6,0.4-8.6-5-8.6-5s1-45.5,0.4-51.8c-0.7-6.3,4.8-7.4,4.8-7.4l8.2-0.7c6.1,1,6.1-5,6.1-5
		c0-2.7-8.9-3.7-8.9-3.7c-4.1,1-6.2-1.1-6.2-1.1c-5.1,0-4.4-9.7-4.4-9.7c2.4-4.7-0.4-12.7-0.4-12.7c-0.9-2.1-6.1-0.9-7-0.7
		c0,0-0.2-0.1-0.9-0.3c-1.4-0.4-1.4,2.3-1.4,2.3c4.4,4.3,3.1,11.4,3.1,11.4c-0.4,89.3,0,92.6,0,92.6l-1,3.4c0,0-0.4,9-0.4,11.7
		c0,2.6-1.7,4.6-1.7,4.6l-4.1,1.3c-2.7,2.4-20.1,1.1-20.1,1.1s-40,1-42.8,0.3c-2.7-0.7-6.8,1.3-6.8,1.3c-1.4,4.7,4.1,5.4,4.1,5.4
		c9.2-0.7,68-0.3,68-0.3c9.2,0.6,10.3-3.7,10.3-3.7c1.7-1.4,0.3-9,0.3-9c0.7-1.6,1.7-11,1.7-11c-1-4,13.3-3.7,13.3-3.7
		c7.5-0.3,4.8-7.1,4.8-7.1C770.6,166.2,760,166.5,760,166.5"/>
	<path class="st0" d="M576.7,184.9c0,5.7,3.1,2.1,3.1,2.1c5.8-4.4,4.8-11.1,4.8-11.1l0.7-101c0.3-4-2.1-4-2.1-4
		c-4.8,3.3-5.2,11-5.2,11L576.7,184.9z"/>
	<path class="st0" d="M642.8,197.3c-3.8-1-63.9,0.3-63.9,0.3c-6.2,2-5.5-6-5.5-6v-18c-0.3-2.6,0-10.7,0-10.7s0.7-42.1,0.4-43.8
		c-0.4-1.6,0-16.1,0-16.1l0.4-22.3c-0.4-1.7,3.8-9.1,3.8-9.1c2.4-2.3-6.2-2.6-6.2-2.6c-4.1,0.7-3.8,17.7-3.8,17.7
		c-0.4,8.4-7.9,7-7.9,7c-9.9-1.3-13.3,4.6-13.3,4.6c-0.7,5.7,9.2,5.7,9.2,5.7c1.7-0.7,7.2-0.4,7.2-0.4c5.9,0.4,4.8,9.1,4.8,9.1
		l-1,49.5c1.7,6.7-6.8,5.3-6.8,5.3c-11.6-0.6-13.3,4.4-13.3,4.4c0.3,7,12.3,5,12.3,5c8.6,1,7.9,5.7,7.9,5.7
		c0.7,1.7,0.7,10.7,0.7,10.7c0,9.7,2.8,10.1,2.8,10.1c1,2,18.1,1,18.1,1c25.7,1,54.1-1.7,54.1-1.7c3.7,0.7,3.7-1.7,3.7-1.7
		C648.2,198.3,642.8,197.3,642.8,197.3"/>
	<path class="st0" d="M737.8,186.6c0,0,3.8,4.3,2.8-3.3l0.7-96.3c0,0-1-3.3,0-8.7l-4.1-7.4c0,0-4.4-3.3-4.4,2L732,175.5l-0.3,2.4
		C731.7,177.9,735.8,185.6,737.8,186.6"/>
	<path class="st0" d="M602.7,104l3.1-8.1l2-0.3c0,0,3.1,2,5.8,2.6h16.1l5.8-2.6c0,0,2.4,0.3,1.7,3.3c0,0,1,7.7-3.4,8.7
		c0,0-2.8-1-4.1-4.7c0,0-4.5-2.3-4.8,5.4c0,0,1.1,24.7,0,28.1l-0.4,5.3c0,0,1.4,3.7,3.5,5c0,0,1.7,4.7-2.4,4.3c0,0-8.5-0.6-10.6-0.3
		c0,0-4.8,0,0-6c0,0,1.7-2.4,1.3-8.4c0,0,0-28.1,0.7-29.8c0,0,0.7-3.7-1.7-4.6l-4.1,0.3l-5.1,4.7c0,0-1.1,5-3.5-0.4V104z
		 M602.1,181.6c1.4,1.3,45.1,0.3,45.1,0.3c7.2,3,7.5-0.3,7.5-0.3c1.7-10-0.2-29.6,0.4-33.8c0.6-4.6,0.7-9.2,0.7-12.2
		c-0.2-0.1-0.3-0.2-0.4-0.4c-0.4-1.3-2.7-2.7-2.7-2.7c-4.2,0-5.9,10-5.9,10c2.4,8.4,0,7,0,7c-2,2.6-8.5,0.6-8.5,0.6
		c-3.1-0.6-1-3-1-3c3.8-0.7,4.8-4.7,4.8-4.7c1.7-2.3,12.6-45.8,12.6-45.8c0.2-0.4,0.4-0.7,0.5-1.2l-0.2-0.5l0.4-20.7
		c-2.1-7.3-8.9-6-8.9-6c-4.4-1.3-21.9,0-21.9,0c-7.9,1-16.1-0.3-16.1-0.3c-11.3,1.7-13.3-2-13.3-2c-5.8-2-5.8,1.4-5.8,1.4
		c1,2.7,0.7,8.1,0.7,8.1c0.7,2.6-0.3,25.7-0.3,25.7c-0.7,2.4,0,27.4,0,27.4c1,1.7-0.7,47.5-0.7,47.5
		C590.1,181.9,602.1,181.6,602.1,181.6"/>
	<path class="st0" d="M650.6,125.4l2.1,3.3c0,0,5.4,0.3,7.5,0.3c2.1,0,2.4-1.7,2.4-3.3c0-1.7-3.8-11.7-3.8-11.7l-1.7-2l-3.8,2.4
		C653,116,650.6,125.4,650.6,125.4"/>
	<path class="st0" d="M700.2,127.4c-14.4-6-13-15.4-13-15.4c0.3-13.7,13.3-12.7,13.3-12.7c1.1,1.7,5.5,0,5.5,0c4.8-3.7,5.4,0,5.4,0
		l0.7,5c0.7,6-2,6-2,6c-2-0.7-5.5-4.7-5.5-4.7c-9.2-5.4-11.6,4.7-11.6,4.7c1.7,5.6,9.2,9,9.2,9c7.9,3.3,12.3,10.1,12.3,10.1
		c6.2,9.3-2.4,17-2.4,17c-7.8,9-17.1,1.7-17.1,1.7l-2.7-0.7c-5.1,4.4-5.1,0-5.1,0c-1-11,1.4-11.7,1.4-11.7c2-0.6,3.8,3,3.8,3
		c-0.3,3,5.1,5.7,5.1,5.7c11.3,5.7,12.7-5.7,12.7-5.7C710.8,132.5,700.2,127.4,700.2,127.4 M674.2,140.8c1.7,3.3,4.8,6,4.8,6
		c5.8,2,0,3.7,0,3.7c-2.4,1-10.3-0.4-10.3-0.4c-4.1-0.6-2.4-2-2.4-2c1.7-1.7,0.3-8.4,0.3-8.4c-0.3-2.6-3.4-7-3.4-7
		c-1.4-0.7-3.8,2.4-3.8,2.4s-0.2,0.1-0.6,0.2l0.6,13.5c1.4,15.4,0,31.1,0,31.1c0,4.4,1.8,4.6,1.8,4.6c8.2-3.7,15.7-3.3,15.7-3.3
		c47.1,1.3,39.6,0.4,39.6,0.4c12-0.7,11.3-8,11.3-8l-0.7-16.7c1-3.7,1-55.9,1-55.9c-1.4-5.4,0-33.8,0-33.8c0-2.7-4.1-3-4.1-3
		c-15.4,7.7-16.4,3.3-21.5,4.4c-5.1,1-23.6,0-24.9-0.7c-1.4-0.7-9.9,0.3-9.9,0.3c-5.5,0.7-6.8,4.7-6.8,4.7l-0.4,21.3
		c0.9,1.5,1.1,3.1,1.1,3.1C668.4,115,674.2,140.8,674.2,140.8"/>
	<path class="st0" d="M606.2,107l5.1-4.7l4.1-0.3c2.4,0.9,1.7,4.6,1.7,4.6c-0.7,1.7-0.7,29.8-0.7,29.8c0.4,6-1.3,8.4-1.3,8.4
		c-4.8,6,0,6,0,6c2.1-0.4,10.6,0.3,10.6,0.3c4.1,0.4,2.4-4.3,2.4-4.3c-2.1-1.3-3.5-5-3.5-5l0.4-5.3c1-3.3,0-28.1,0-28.1
		c0.4-7.7,4.8-5.4,4.8-5.4c1.4,3.7,4.1,4.7,4.1,4.7c4.4-1,3.4-8.7,3.4-8.7c0.7-3-1.7-3.3-1.7-3.3l-5.8,2.6h-16.1
		c-2.7-0.6-5.8-2.6-5.8-2.6l-2,0.3l-3.1,8.1v2.6C605.1,112,606.2,107,606.2,107"/>
	<path d="M606.2,107l5.1-4.7l4.1-0.3c2.4,0.9,1.7,4.6,1.7,4.6c-0.7,1.7-0.7,29.8-0.7,29.8c0.4,6-1.3,8.4-1.3,8.4c-4.8,6,0,6,0,6
		c2.1-0.4,10.6,0.3,10.6,0.3c4.1,0.4,2.4-4.3,2.4-4.3c-2.1-1.3-3.5-5-3.5-5l0.4-5.3c1-3.3,0-28.1,0-28.1c0.4-7.7,4.8-5.4,4.8-5.4
		c1.4,3.7,4.1,4.7,4.1,4.7c4.4-1,3.4-8.7,3.4-8.7c0.7-3-1.7-3.3-1.7-3.3l-5.8,2.6h-16.1c-2.7-0.6-5.8-2.6-5.8-2.6l-2,0.3l-3.1,8.1
		v2.6C605.1,112,606.2,107,606.2,107"/>
	<path class="st0" d="M697.4,144.5c0,0-5.4-2.7-5.1-5.7c0,0-1.8-3.7-3.8-3c0,0-2.4,0.7-1.3,11.7c0,0,0,4.4,5.1,0l2.7,0.7
		c0,0,9.3,7.4,17.1-1.7c0,0,8.6-7.7,2.4-17c0,0-4.5-6.7-12.3-10.1c0,0-7.5-3.4-9.2-9c0,0,2.4-10.2,11.6-4.8c0,0,3.5,4,5.5,4.8
		c0,0,2.7,0,2-6l-0.7-5c0,0-0.6-3.7-5.4,0c0,0-4.5,1.7-5.5,0c0,0-13-1.1-13.3,12.7c0,0-1.4,9.4,13,15.4c0,0,10.6,5,9.9,11.4
		C710.1,138.8,708.7,150.2,697.4,144.5"/>
	<path d="M697.4,144.5c0,0-5.4-2.7-5.1-5.7c0,0-1.8-3.7-3.8-3c0,0-2.4,0.7-1.3,11.7c0,0,0,4.4,5.1,0l2.7,0.7c0,0,9.3,7.4,17.1-1.7
		c0,0,8.6-7.7,2.4-17c0,0-4.5-6.7-12.3-10.1c0,0-7.5-3.4-9.2-9c0,0,2.4-10.2,11.6-4.8c0,0,3.5,4,5.5,4.8c0,0,2.7,0,2-6l-0.7-5
		c0,0-0.6-3.7-5.4,0c0,0-4.5,1.7-5.5,0c0,0-13-1.1-13.3,12.7c0,0-1.4,9.4,13,15.4c0,0,10.6,5,9.9,11.4
		C710.1,138.8,708.7,150.2,697.4,144.5"/>
	<path d="M659.5,100l1-5v-0.7c-0.4-0.7-1-1.4-1.7-1.9c-1.9-1.4-2.8,1.1-3.5,3.2l1.9,6.2L659.5,100z"/>
	<path d="M659.5,100l1-5v-0.7c-0.4-0.7-1-1.4-1.7-1.9c-1.9-1.4-2.8,1.1-3.5,3.2l1.9,6.2L659.5,100z"/>
	<path d="M655.7,132.1c0,0,0,1.4,0,3.5c0.7,0.4,2.3,0,3.1-0.3l-0.1-3.6L655.7,132.1z"/>
	<path d="M655.7,132.1c0,0,0,1.4,0,3.5c0.7,0.4,2.3,0,3.1-0.3l-0.1-3.6L655.7,132.1z"/>
	<path class="st0" d="M658.8,114c0,0,3.8,10.1,3.8,11.7c0,1.7-0.4,3.3-2.4,3.3c-2,0-7.5-0.3-7.5-0.3l-2.1-3.3c0,0,2.4-9.4,2.8-11
		l3.8-2.4L658.8,114z M642.1,142.5c0,0-1,4-4.8,4.7c0,0-2.1,2.4,1,3c0,0,6.5,2,8.5-0.6c0,0,2.4,1.3,0-7.1c0,0,1.7-10,5.9-10
		c0,0,2.4,1.4,2.7,2.7c0,0.2,0.2,0.4,0.4,0.4c0-2.1,0-3.5,0-3.5l3-0.3l0.1,3.6c0.4-0.1,0.6-0.2,0.6-0.2s2.4-3.1,3.8-2.3
		c0,0,3.1,4.3,3.4,7c0,0,1.4,6.7-0.3,8.4c0,0-1.7,1.4,2.4,2c0,0,7.9,1.3,10.2,0.3c0,0,5.8-1.7,0-3.7c0,0-3.1-2.7-4.8-6
		c0,0-5.8-25.7-12.7-43.4c0,0-0.1-1.6-1-3.1V95l-1.1,5l-2.4,1.7l-1.9-6.2c-0.2,0.4-0.3,0.8-0.5,1.2
		C654.7,96.7,643.8,140.2,642.1,142.5"/>
	<path d="M658.8,114c0,0,3.8,10.1,3.8,11.7c0,1.7-0.4,3.3-2.4,3.3c-2,0-7.5-0.3-7.5-0.3l-2.1-3.3c0,0,2.4-9.4,2.8-11l3.8-2.4
		L658.8,114z M642.1,142.5c0,0-1,4-4.8,4.7c0,0-2.1,2.4,1,3c0,0,6.5,2,8.5-0.6c0,0,2.4,1.3,0-7.1c0,0,1.7-10,5.9-10
		c0,0,2.4,1.4,2.7,2.7c0,0.2,0.2,0.4,0.4,0.4c0-2.1,0-3.5,0-3.5l3-0.3l0.1,3.6c0.4-0.1,0.6-0.2,0.6-0.2s2.4-3.1,3.8-2.3
		c0,0,3.1,4.3,3.4,7c0,0,1.4,6.7-0.3,8.4c0,0-1.7,1.4,2.4,2c0,0,7.9,1.3,10.2,0.3c0,0,5.8-1.7,0-3.7c0,0-3.1-2.7-4.8-6
		c0,0-5.8-25.7-12.7-43.4c0,0-0.1-1.6-1-3.1V95l-1.1,5l-2.4,1.7l-1.9-6.2c-0.2,0.4-0.3,0.8-0.5,1.2
		C654.7,96.7,643.8,140.2,642.1,142.5"/>
	<path class="st0" d="M673.9,193.5c1.8-0.4,57.4-0.4,57.4-0.4c5.8,0.4,5.5-3,5.5-3l-5.1-7.4c-1.4-2.3-3.8,0.4-3.8,0.4
		c-2.4,3-10.6,3-10.6,3s5.7-1.4-3.8,0.3c-9.6,1.6-40.7-0.3-40.7-0.3c-2.4-0.7-8.5,3.3-8.5,3.3C663.3,195.1,673.9,193.5,673.9,193.5"
		/>
	<path class="st0" d="M647.2,187.4l-46.5-0.6c-7.9,0.3-12.7-4.7-12.7-4.7l-2.7,2.3c-2.7,3.2-6.2,7.8-2.4,8.4l6.1-0.4l56,0.7
		c6.2,1.3,6.9-2.7,6.9-2.7C652.3,187.8,647.2,187.4,647.2,187.4"/>
	<path class="st0" d="M227.6,194.2c0,0-6.5,0-6.2,8.4c0,0,0.7,6.4,7.5,6.4c0,0,6.2-1,5.5-7.7C234.4,201.3,230.7,192.9,227.6,194.2"
		/>
	<path class="st0" d="M282.9,193c6.2,1.7,6.5-1.3,6.5-1.3c0-2.4-5.1-6.4-5.1-6.4c-1.4-1-6.5,0-6.5,0c-5.8,4-40,1-40,1
		c-2,0-5.1,3.3-5.1,3.3c-1,6,9.6,3.7,9.6,3.7C244.3,193.3,282.9,193,282.9,193"/>
	<path class="st0" d="M218,186.3c0,0-31.5,0.3-34.2-0.4c0,0-6.5-1.7-7.8-2c0,0-3.4-1.3-6.5,4.4c0,0-1.4,4.7,3.8,3.6h35.2l9.5,2
		C218,193.9,227.9,191.6,218,186.3"/>
	<path class="st0" d="M657.4,192.3c-4.7,1-6.5,6.3-5.4,10.7c1,4.3,4.8,5.4,8.2,4.7c3.4-0.7,3.1-3.7,3.1-9.1
		C663.3,193.3,657.4,192.3,657.4,192.3"/>
	<path class="st0" d="M431.3,194.4c0,0-6.5,0-6.1,8.3c0,0,0.7,6.4,7.6,6.4c0,0,6.1-1,5.4-7.7C438.2,201.4,434.4,193.1,431.3,194.4"
		/>
	<path class="st0" d="M422.4,186.4c0,0-31.5,0.3-34.2-0.4c0,0-6.5-1.7-7.9-2c0,0-3.4-1.3-6.5,4.4c0,0-1.4,4.7,3.7,3.6h35.3l9.5,2
		C422.4,194.1,432.3,191.7,422.4,186.4"/>
	<path class="st0" d="M487.4,192.5c6.1,1.7,6.5-1.4,6.5-1.4c0-2.3-5.1-6.4-5.1-6.4c-1.4-1-6.5,0-6.5,0c-5.8,4.1-40,1.1-40,1.1
		c-2.1,0-5.2,3.3-5.2,3.3c-1,6,9.6,3.7,9.6,3.7C448.7,192.8,487.4,192.5,487.4,192.5"/>
	<path d="M743.5,548.8c-1.6,3.4-3.3,6.9-5,10.4c-0.2-0.4-0.4-0.9-0.6-1.4c0.9,1.8,1.6,3.5,2.3,5.2c0.7,1.5,1.1,2.9,1.5,4.4l0.4,1.4
		l9.8-20H743.5z"/>
	<path class="st1" d="M738.4,559.1c1.7-3.5,3.4-6.9,5-10.4h-10C735,551.8,736.8,555.6,738.4,559.1"/>
	<path d="M411.4,832.4c-59.3-35.7-162.6-113.3-232.8-251.7c-0.6,0.5-1.7,1.4-2.6,2.1l-3.6,2.5c72.7,142.5,179.8,221,239,256V832.4z"
		/>
	<path class="st1" d="M402.5,277.5c-1-1-1.7-2.1-2.2-2.9l-0.5,0.2c0,0-16.1,4.3-20.8,6.1c-2.6,1.1-5.1,1.5-7.4,1.5h-0.1
		c-5.2,0-9-2.6-11.2-5c-1.1-1.2-1.8-2.3-2.4-3.2l-0.7,0.1c-8.2,2.5-16.8,4.5-21.6,6.5c-2.7,1.1-5.2,1.5-7.5,1.5h0
		c-5.2,0-9-2.6-11.2-5c-0.8-0.9-1.5-1.8-2-2.6l-0.4,0.1l0,0c-7.6,2.3-15.4,4.2-19.9,6c-2.7,1.1-5.2,1.5-7.5,1.5h-0.1
		c-5.2,0-9-2.6-11.2-5c-0.9-1-1.6-1.9-2.1-2.7l-0.6,0.1c-7.7,2.3-15.5,4.2-20.1,6c-2.7,1.1-5.2,1.5-7.5,1.5h0c-5.2,0-9-2.6-11.2-5
		c-1-1-1.7-2.1-2.2-2.9l-0.5,0.2l-0.4,0.1c-7.9,2.4-15.7,4.2-20.4,6.1c-2.6,1.1-5.2,1.5-7.5,1.5h0c-5.2,0-9-2.6-11.2-5
		c-1.1-1.2-1.8-2.3-2.4-3.2l-0.6,0.2l-0.2,0.1c-8.2,2.5-16.6,4.4-21.4,6.3c-2.7,1.1-5.2,1.5-7.5,1.5h-0.1c-5.2,0-9-2.6-11.2-5
		c-0.9-0.9-1.5-1.8-2-2.6l-0.4,0.1v0c-7.6,2.3-15.4,4.2-19.8,6c-2.7,1.1-5.2,1.5-7.5,1.5h-0.1c-5.2,0-9-2.6-11.2-5
		c-1.1-1.2-2-2.4-2.5-3.3v0.3V301c3.4,57,12.4,108.7,25.3,155.5H180c-2-4.1-4.7-9.8-6.6-14.2c-1.4-3.2-2.4-6.6-2.4-10.1
		c0-0.9,0.1-1.8,0.3-2.8c0.5-2.5,1.7-4.9,3.8-6.8c2.9-2.6,7-3.9,12.3-4.3c3.7-0.3,7-0.4,10.1-0.6c1.7,0,3.3-0.1,4.8-0.1
		c2.8,0,5.4,0.1,7.7,0.4c3.2,0.4,6,1.1,8.6,2.2c0.7,0.3,1.5,0.7,2.2,1.1c1.2,0.7,2.3,1.5,3.3,2.3c0,0,0,0,0,0
		c0.1,0.1,0.2,0.2,0.3,0.2c2.7,2.3,5,5.2,7.6,8.8c0.3,0.4,0.6,0.8,0.9,1.3c7.7,10.8,13.9,19.1,16.3,22.4h16h33.4h23.9
		c-1.4-3-3.3-6.8-4.9-10.3c-0.6-1.4-1.2-2.7-1.8-3.9c-1.3-3.1-2.4-6.4-2.4-9.9v-0.2v0c0-1.7,0.3-3.5,1-5.2c0.7-1.6,1.6-3.1,3.1-4.3
		c2.9-2.6,7-3.9,12.3-4.3c3.7-0.3,6.9-0.4,9.9-0.5c1.8-0.1,3.4-0.1,4.9-0.1c3.4,0,6.4,0.2,9.1,0.6c3.6,0.5,6.6,1.5,9.4,3.1
		c3.2,1.8,5.7,4.2,8.1,7.3c1.3,1.6,2.6,3.4,4,5.3c7.7,10.8,13.9,19.1,16.3,22.4h19.7v-46.7v-16c-2.2-1.7-6.8-5-12.9-9.4
		c-0.2-0.2-0.4-0.3-0.7-0.5c-2.7-2-5.7-4.1-8.9-6.4c-1.2-0.9-2.3-1.7-3.4-2.5c-0.8-0.6-1.5-1.2-2.3-1.8c-2.9-2.4-5.2-4.8-6.9-7.8
		c-2.8-4.8-3.7-10.5-3.7-18.4c0-0.8,0-1.6,0-2.4c0.1-3.6,0.3-7.7,0.6-12.5c0.1-1,0.2-1.9,0.4-2.8c0.6-4,1.9-7.2,3.9-9.5c0,0,0,0,0,0
		c2.5-2.9,6.1-4.1,9.4-4.1c0,0,0.1,0,0.1,0c3.5,0,6.9,1.1,10.1,2.5c3.1,1.4,7,3.2,10.4,4.8c1.4,0.7,2.6,1.3,3.8,1.8v-23.9v-18.4
		C407.3,281.6,404.3,279.5,402.5,277.5"/>
	<path d="M119.4,282.4L119.4,282.4c2.4,0,4.9-0.5,7.6-1.5c4.5-1.8,12.2-3.6,19.8-5.9l-1.1-3.1l0,0c-0.3-0.7-0.6-1.9-0.6-3.2v-0.3
		c-0.9,0.3-15.5,4.1-20.8,6.2c-1.9,0.8-3.5,1.1-4.9,1.1c-2.9,0-4.7-1.3-6.1-2.7c-0.3-0.3-0.6-0.7-0.8-1c-1.1,0.4-6.8,2.4-6.9,2.4
		c0.5,0.9,1.4,2.1,2.5,3.3C110.4,279.9,114.2,282.4,119.4,282.4"/>
</g>
<path d="M105.6,274.1L105.6,274.1L105.6,274.1z"/>
<path d="M105.6,274c0,0-1.6-4.7-1.6-5.5c0-1.5,0.4-3.4,1.6-5.2c-0.1,0.2-0.2,0.3-0.3,0.4v-16c0.4,0,0.9,0,1.4,0
	c2.8,0,5.5,0.7,7.7,2.1c1.6,1,3.1,2.5,4.2,4.6c-1.2,0.7-2.3,1.3-3.4,1.9c1.8-1,3.9-2.2,6.2-3.4l3.4-1.8c-1.7-3.2-4-5.6-6.7-7.2
	c-2.6-1.6-5.5-2.8-8.4-2.9c-1,0-11.3,0-11.3,0l0.1,34.8C105.2,274.2,104.8,274.2,105.6,274"/>
<path d="M124.5,251.2L124.5,251.2L124.5,251.2C124.5,251.2,124.5,251.2,124.5,251.2"/>
<path d="M151.4,241.1c-3.6,0-7.2,0.8-10.3,2c-3.9,1.5-10.5,4.8-16.3,8c0,0,1.8,5.9,2.1,6.8c6-3.2,13.3-6.9,16.8-8.3
	c2.4-0.9,5.1-1.5,7.7-1.5c4.3,0.1,7.8,1.3,10.4,5.1c-0.7,0.4-1.4,0.7-2,1.1c1.4-0.8,7.2-3.9,8.2-4.4
	C164,243.6,157.4,241,151.4,241.1"/>
<path d="M124.8,251.1C124.8,251.1,124.8,251,124.8,251.1l0.3-0.2c5.9-3.2,12-6.2,16-7.8c3.1-1.2,6.7-2,10.3-2
	c6-0.1,12.7,2.5,16.6,8.8c5.3-2.8,10.6-5.4,14.1-6.8c3.2-1.2,6.7-2,10.3-2c3.7,0,7.5,0.8,10.9,3c2.4,1.6,4.5,3.8,6.2,6.7l1.8-1v0
	c5.2-2.8,10.5-5.3,14-6.7c3.2-1.2,6.7-2,10.3-2c3.6,0,7.4,0.8,10.7,2.9c2.4,1.5,4.5,3.6,6.1,6.3l0.4-0.2c5.5-2.9,10.9-5.6,14.6-7
	c3.1-1.2,6.7-2,10.3-2c3.6,0,7.3,0.8,10.6,2.8c2.4,1.4,4.4,3.5,6.1,6.2c5.4-2.9,10.9-5.6,14.5-7c3.2-1.2,6.7-2,10.3-2
	c6-0.1,12.6,2.5,16.5,8.8l0.1,0c5.3-2.8,10.5-5.4,14.1-6.7c3.2-1.2,6.7-2,10.4-2c3.7,0,7.5,0.8,10.9,3c2.4,1.6,4.6,3.8,6.2,6.7
	l1.8-1c5.3-2.8,10.5-5.3,14-6.7c3.1-1.2,6.7-2,10.3-2c3.6,0,7.4,0.8,10.7,2.9c2.4,1.5,4.5,3.6,6.1,6.3l0.5-0.3v0
	c5.4-2.8,10.8-5.5,14.4-6.9c3.2-1.2,6.7-2,10.4-2c3.7,0,7.5,0.8,10.9,3c2.5,1.6,4.6,3.9,6.2,6.8l0.4-0.2l0,0.1
	c5.9-3.1,11.9-6.1,15.8-7.7c3.1-1.2,6.7-2,10.3-2c6-0.1,12.6,2.5,16.6,8.8l0.1,0c5.3-2.8,10.5-5.4,14-6.7c3.2-1.2,6.7-2,10.4-2
	c3.7,0,7.5,0.8,10.9,3c2.4,1.6,4.6,3.8,6.1,6.7c5.9-3.1,11.9-6.2,15.9-7.7c3.2-1.2,6.7-2,10.3-2c3.6,0,7.4,0.8,10.7,2.9
	c2.4,1.5,4.5,3.6,6.1,6.4c5.6-3,11.2-5.8,15-7.2c3.1-1.2,6.7-2,10.3-2c3.5,0,7.3,0.8,10.6,2.8c2.4,1.4,4.5,3.5,6.1,6.2
	c5.4-2.9,10.9-5.6,14.5-7c3.1-1.2,6.7-2,10.3-2c6-0.1,12.6,2.5,16.5,8.8c5.3-2.8,10.6-5.4,14.1-6.8c3.2-1.2,6.7-2,10.4-2
	c3.7,0,7.5,0.8,10.9,3c2.5,1.6,4.6,3.8,6.2,6.7c5.8-3.1,11.9-6.2,15.9-7.7c3.1-1.2,6.7-2,10.3-2c3.6,0,7.4,0.8,10.7,2.9
	c2.4,1.5,4.5,3.6,6.1,6.3c5.6-3,11.2-5.7,15-7.2c3.1-1.2,6.7-2,10.3-2c3.6,0,7.4,0.8,10.7,2.9c2.5,1.5,4.6,3.7,6.2,6.6
	c0,0,0.1,0,0.1,0c1.2-0.6,2.5-1.1,3-1.4l5.2-2.9l0-5.3H109.7c2.9,0.4,5.8,1.3,8.4,2.9C120.7,245.5,123.1,247.9,124.8,251.1"/>
<path d="M230.9,271.3L230.9,271.3c-0.2-0.7-0.4-1.7-0.4-2.8c0-0.2,0-0.5,0-0.7c0,0,0,0,0,0c-2.1,0.6-16.6,4.5-21.8,6.6
	c-2,0.8-3.6,1.1-4.9,1.1c-2.9,0-4.7-1.3-6.1-2.7c-0.3-0.3-0.5-0.6-0.7-0.8c0,0,0.1,0,0.2-0.1c-1.3,0.5-2.6,1-3.9,1.4l-3,1
	c0.5,0.9,1.3,2,2.4,3.2c2.2,2.4,6,4.9,11.2,4.9h0.1c2.3,0,4.8-0.5,7.5-1.5c4.6-1.9,12.8-3.8,20.7-6.2l0,0L230.9,271.3z"/>
<path d="M313.5,271.8c-0.3-0.8-0.6-1.9-0.6-3.3c0-0.1,0-0.2,0-0.4c-2,0.5-15.7,4.2-20.7,6.2c-1.9,0.8-3.5,1-4.9,1
	c-2.9,0-4.8-1.3-6.1-2.7c-0.1-0.1-0.2-0.2-0.3-0.3c0.1,0-2.6,0.9-4.1,1.4l-3,1c0.5,0.8,1.3,1.9,2.2,2.8c2.2,2.4,5.7,4.9,10.9,4.9
	h0.4c2.3,0,4.7-0.5,7.4-1.6c4.4-1.8,12.2-3.6,19.8-5.9L313.5,271.8L313.5,271.8z"/>
<path d="M272.4,271.6c-0.2-0.7-0.5-1.8-0.5-3c0-0.1,0-0.3,0-0.4c-2.6,0.7-16.2,4.3-21.2,6.3c-2,0.8-3.6,1.1-4.9,1.1
	c-2.9,0-4.7-1.3-6.1-2.7c-0.1-0.1-0.3-0.3-0.4-0.5c0.1,0,0.2-0.1,0.3-0.1c-1.4,0.5-2.8,1.1-4.3,1.5l-2.9,1c0.5,0.8,1.2,1.8,2.2,2.9
	c2.2,2.4,6,5,11.2,5h0c2.3,0,4.8-0.5,7.5-1.5c4.6-1.8,12.5-3.7,20.1-6L272.4,271.6L272.4,271.6z"/>
<path d="M124.8,251.1L124.8,251.1l-0.2,0.1l0,0l-3.2,1.7c-2.2,1.2-4.3,2.4-6.2,3.4c-0.1,0.1-0.2,0.1-0.3,0.2c-0.5,0.3-1,0.6-1.5,0.8
	c0,0-0.1,0.1-0.2,0.1c-2.2,1.3-3.8,2.2-4.6,2.8c0,0,0,0-0.1,0c-0.4,0.3-0.7,0.6-1.1,0.9c0,0,0,0,0,0c-0.3,0.3-0.6,0.6-0.9,1
	c-0.1,0-0.1,0.1-0.1,0.1c-0.3,0.3-0.5,0.6-0.7,0.9c-0.1,0.1-0.1,0.2-0.2,0.2c-1.1,1.8-1.7,3.3-1.7,5.2c0,1.2,1.7,5.5,1.7,5.5l0,0
	c0.1,0,5.8-2,6.9-2.4c0.1,0,0.2,0,0.2,0c0.6-0.3,1.2-0.5,1.8-0.7c0.1,0,0.2-0.1,0.4-0.2c0.7-0.3,1.4-0.6,2-0.9
	c0.1,0,0.1-0.1,0.2-0.1c0.6-0.3,1.1-0.6,1.7-0.9c0.1-0.1,0.3-0.2,0.4-0.2c0.6-0.3,1.1-0.7,1.6-1c0,0,0,0,0.1,0
	c0.4-0.2,0.7-0.5,1.1-0.8c2-1.5,3.7-3.5,4.5-5.8c0.3-1,0.5-2,0.5-3c0,0,0,0,0-0.1C126.6,257,124.8,251.1,124.8,251.1"/>
<path d="M170.2,254.6c-0.3-0.8-0.5-1.2-0.5-1.2l-1.4-3.7l0,0l-0.3,0.2l-3.1,1.7c-0.2,0.1-0.4,0.2-0.6,0.4c-1.5,0.8-3.1,1.6-4.5,2.4
	c-0.1,0.1-0.2,0.1-0.3,0.2c-0.6,0.3-1.2,0.7-1.8,1c-0.2,0.1-0.4,0.2-0.6,0.3c-0.5,0.3-1.1,0.6-1.6,0.9c-0.1,0-0.2,0.1-0.3,0.2
	c-0.6,0.3-1.1,0.6-1.6,0.9c-1.9,1.1-3.2,1.9-3.9,2.4c0,0,0,0,0,0c-0.4,0.3-0.7,0.6-1.1,0.9c0,0-0.1,0.1-0.1,0.1
	c-0.3,0.3-0.6,0.6-0.9,0.9c0,0.1-0.1,0.1-0.1,0.2c-0.2,0.3-0.4,0.5-0.6,0.8c-0.1,0.1-0.1,0.2-0.2,0.3c-0.2,0.3-0.3,0.5-0.5,0.8
	c0,0.1-0.1,0.2-0.2,0.4c-0.1,0.2-0.2,0.5-0.3,0.7c0,0.1-0.1,0.3-0.1,0.4c-0.1,0.2-0.2,0.4-0.2,0.7c0,0.1,0,0.3-0.1,0.4
	c0,0.2-0.1,0.4-0.1,0.6c0,0.1,0,0.3,0,0.4c0,0.1,0,0.2,0,0.4v0v0.3c0,1.4,0.3,2.5,0.6,3.2l0,0l1.1,3.1v0l0.4-0.1l2.8-0.9
	c1.5-0.5,3-1,4.5-1.5c0.6-0.2,1.3-0.5,1.9-0.7c0.2-0.1,0.4-0.1,0.5-0.2c0.8-0.3,1.5-0.6,2.2-0.9c0.1,0,0.2-0.1,0.3-0.1
	c0.6-0.3,1.2-0.6,1.8-0.9c0.2-0.1,0.4-0.2,0.5-0.3c0.7-0.4,1.3-0.7,2-1.1c1.9-1.2,3.6-2.5,4.9-4.2c0.7-1,1.4-2.1,1.8-3.4
	c0.3-0.9,0.4-1.8,0.4-2.8c0-0.5-0.1-1-0.1-1.4C170.6,255.8,170.4,255.2,170.2,254.6"/>
<path d="M197.1,271.8c0.7-0.3,1.3-0.5,1.9-0.8c0.1,0,0.2-0.1,0.3-0.1c0.7-0.3,1.4-0.6,2.1-0.9c0,0,0.1,0,0.1-0.1
	c0.6-0.3,1.2-0.6,1.8-0.9c0.1-0.1,0.2-0.1,0.3-0.2c0.6-0.4,1.2-0.7,1.8-1.1c1.7-1.2,3.2-2.5,4.4-4.1c1.1-1.4,1.8-3.2,1.9-5.1
	c0-0.2,0-0.4,0-0.6c0-0.9-0.1-1.8-0.4-2.6l-1.1-2.9l-0.7-1.4l-0.1,0l-3.2,1.8c-0.2,0.1-0.4,0.2-0.6,0.3c-0.4,0.2-0.9,0.5-1.3,0.7
	c-1.7,0.9-3.3,1.8-4.7,2.6c0,0,0,0-0.1,0c-0.6,0.4-1.3,0.7-1.8,1c-0.8,0.5-1.6,0.9-2.2,1.3c-0.9,0.5-1.7,1-2.2,1.4v0
	c0,0-0.1,0.1-0.1,0.1c-0.1,0-0.2,0.1-0.3,0.2c-0.4,0.3-0.7,0.6-1.1,0.9c-0.1,0.1-0.2,0.2-0.3,0.3c-0.2,0.2-0.5,0.4-0.7,0.7
	c-0.1,0.1-0.2,0.2-0.3,0.4c-0.2,0.2-0.3,0.4-0.5,0.6c-0.1,0.1-0.2,0.3-0.3,0.4c-0.1,0.2-0.3,0.4-0.4,0.6c-0.1,0.1-0.2,0.3-0.2,0.4
	c-0.1,0.2-0.2,0.4-0.3,0.7c0,0.1-0.1,0.2-0.1,0.4c-0.1,0.3-0.2,0.6-0.3,0.9c0,0.1,0,0.2-0.1,0.3c0,0.2-0.1,0.5-0.1,0.7v0
	c0,0.4-0.1,0.7-0.1,1.1c0,0.8,0.1,1.5,0.3,2.1v0l0.9,3.6l0,0.1l0.6-0.3l3-1C194.5,272.8,195.8,272.3,197.1,271.8"/>
<path d="M254.5,254.4l-0.1-0.2c-0.1-0.2-0.1-0.3-0.1-0.3l-1.3-3.8l-0.4,0.2l-0.3,0.1l-2.1,1.1l-0.8,0.4c-1.4,0.7-2.6,1.4-3.9,2.1
	c-0.6,0.3-1.2,0.7-1.8,1c-0.3,0.2-0.6,0.4-0.9,0.5c-0.3,0.2-0.6,0.3-0.9,0.5c-0.6,0.3-1.1,0.7-1.7,0.9c-1.3,0.7-2.3,1.4-3.2,1.9
	c-0.9,0.5-1.5,1-2,1.3c-0.1,0.1-0.2,0.2-0.3,0.2c-0.3,0.2-0.6,0.4-0.8,0.7c-0.1,0.1-0.3,0.3-0.4,0.4c-0.2,0.2-0.4,0.4-0.5,0.5
	c-0.1,0.2-0.2,0.3-0.4,0.5c-0.1,0.2-0.3,0.4-0.4,0.6c-0.1,0.2-0.2,0.3-0.3,0.5c-0.1,0.2-0.2,0.4-0.3,0.6c-0.1,0.2-0.2,0.3-0.2,0.5
	c-0.1,0.2-0.2,0.4-0.3,0.6c0,0.1-0.1,0.3-0.1,0.4c-0.1,0.2-0.1,0.4-0.2,0.6c0,0.1-0.1,0.3-0.1,0.4c0,0.2-0.1,0.4-0.1,0.6
	c0,0.1,0,0.3,0,0.4c0,0,0,0.1,0,0.1c0,0,0,0,0,0c0,0.2,0,0.5,0,0.7c0,1.1,0.2,2,0.4,2.8l1,3.4l0,0v0l0.5-0.2l2.9-1
	c1.5-0.5,2.9-1,4.3-1.5c0.6-0.2,1.1-0.4,1.8-0.7c0.2-0.1,0.4-0.2,0.6-0.2c0.7-0.3,1.4-0.6,2.1-0.9c0.1,0,0.2-0.1,0.2-0.1
	c0.6-0.3,1.2-0.6,1.8-0.9c0.2-0.1,0.3-0.2,0.4-0.2c0.7-0.4,1.3-0.7,1.8-1.1c1.8-1.2,3.4-2.5,4.7-4.2c0.4-0.5,0.7-1.1,1-1.7
	c0.7-1.3,1.1-2.7,1.1-4.3c0-1.1-0.2-2.2-0.6-3.2L254.5,254.4z"/>
<path d="M297.2,257.8c0-1.1-0.2-2.2-0.5-3.2l0-0.1l0-0.1c-0.1-0.4-0.3-0.8-0.5-1.2l-1.6-3.1l-3.1,1.7c-0.1,0-0.1,0-0.2,0.1
	c-1,0.5-1.9,1.1-2.9,1.6c-0.6,0.3-1.2,0.7-1.8,1c-0.2,0.1-0.4,0.2-0.6,0.4c-0.5,0.3-1,0.6-1.5,0.8c-0.2,0.1-0.4,0.2-0.6,0.4
	c-0.5,0.3-1,0.5-1.4,0.8c-0.1,0.1-0.3,0.2-0.4,0.2c-2.4,1.4-4,2.4-5,3.1c-0.1,0.1-0.2,0.1-0.3,0.2c0,0,0,0,0,0
	c-0.8,0.6-1.5,1.2-2.1,1.9c0,0-0.1,0.1-0.1,0.1c-0.2,0.3-0.5,0.6-0.7,0.9c-0.1,0.1-0.1,0.2-0.2,0.3c-0.2,0.3-0.3,0.5-0.4,0.8
	c-0.1,0.1-0.1,0.2-0.2,0.4c-0.1,0.2-0.2,0.5-0.3,0.7c0,0.1-0.1,0.3-0.1,0.4c-0.1,0.2-0.1,0.4-0.2,0.6c0,0.1,0,0.3-0.1,0.4
	c-0.1,0.2-0.1,0.4-0.1,0.6c0,0.1-0.1,0.3-0.1,0.4c0,0.1,0,0.2,0,0.3v0.1c0,0.1,0,0.3,0,0.4c0,1.2,0.3,2.2,0.5,3l0,0l0.8,3.3l0.2,0
	l0.6-0.1l2.8-0.9c1.5-0.5,3-1,4.4-1.5c0.6-0.3,1.2-0.5,1.8-0.7c0.2-0.1,0.4-0.1,0.5-0.2c0.7-0.3,1.4-0.6,2.1-0.9
	c0.1,0,0.2-0.1,0.2-0.1c0.6-0.3,1.2-0.6,1.8-0.9c0.1-0.1,0.3-0.2,0.4-0.3c0.7-0.4,1.3-0.7,1.9-1.1c1.3-0.8,2.5-1.8,3.6-2.8
	c0-0.1,0.1-0.1,0.2-0.2c0,0,0.1-0.1,0.1-0.1c0.3-0.3,0.6-0.7,0.9-1.1c0.1-0.1,0.2-0.3,0.3-0.5c0.7-1,1.3-2.2,1.6-3.5
	c0.1-0.4,0.2-0.9,0.2-1.3v-0.2C297.2,258.2,297.2,258,297.2,257.8z"/>
<path d="M338.5,256.4c-0.1-0.6-0.3-1.2-0.4-1.8c0,0,0-0.1,0-0.1c-0.2-0.6-0.4-1-0.6-1.4l-1.6-3.3l-0.1,0l-2.7,1.5l-0.4,0.2
	c-1,0.5-2,1.1-2.9,1.6c-0.7,0.4-1.5,0.8-2.1,1.2c-0.1,0-0.2,0.1-0.3,0.1c-0.7,0.4-1.3,0.7-1.9,1.1c-0.1,0.1-0.3,0.2-0.4,0.3
	c-0.7,0.4-1.4,0.7-2,1.1c-1.4,0.8-2.5,1.5-3.5,2.1c-0.9,0.5-1.5,1-2,1.3l0,0c-0.4,0.3-0.8,0.6-1.1,0.9c0,0-0.1,0.1-0.1,0.1
	c-0.3,0.3-0.6,0.6-0.9,0.9c-0.1,0.1-0.1,0.2-0.2,0.2c-0.2,0.3-0.4,0.5-0.6,0.8c-0.1,0.1-0.1,0.2-0.2,0.3c-0.2,0.3-0.3,0.5-0.4,0.7
	c-0.1,0.1-0.1,0.3-0.2,0.4c-0.1,0.2-0.2,0.4-0.3,0.7c-0.1,0.1-0.1,0.3-0.2,0.4c0,0.2-0.1,0.4-0.2,0.6c0,0.1-0.1,0.3-0.1,0.4
	c0,0.2-0.1,0.4-0.1,0.6c0,0.1,0,0.3,0,0.4c0,0.1,0,0.2,0,0.4v0c0,0.1,0,0.2,0,0.4c0,1.4,0.3,2.5,0.6,3.3l0,0l1.1,3.1v0l0.4-0.1
	l2.8-0.9c1.5-0.5,3-1,4.4-1.5c0.7-0.2,1.4-0.5,2-0.7c0.1-0.1,0.3-0.1,0.4-0.2c0.8-0.3,1.5-0.6,2.2-1c0.1,0,0.2-0.1,0.2-0.1
	c0.6-0.3,1.3-0.6,1.9-0.9c0.2-0.1,0.3-0.2,0.4-0.3c0.7-0.4,1.4-0.7,2-1.1c1.9-1.2,3.6-2.5,4.9-4.2c1.4-1.7,2.3-3.8,2.2-6.1
	C338.6,257.4,338.6,256.9,338.5,256.4"/>
<path d="M203.4,244.1c-3.4-2.2-7.2-3-10.9-3c-3.7,0-7.2,0.8-10.3,2c-3.5,1.3-8.6,3.9-13.8,6.6l1.4,3.7c0,0.1,0.2,0.5,0.5,1.3
	c0.2,0.6,0.3,1.1,0.4,1.7c5.4-2.9,10.8-5.6,14-6.7c2.5-1,5.2-1.6,7.8-1.6c2.7,0,5.1,0.6,7.1,1.9c1.4,0.9,2.7,2.2,3.8,4.2
	c-0.5,0.3-1,0.5-1.4,0.8c0.8-0.4,1.6-0.9,2.5-1.3l1.3-0.7c0.2-0.1,0.4-0.2,0.6-0.3l3.3-1.8C207.9,247.9,205.8,245.7,203.4,244.1"/>
<path d="M201.9,254.9c-0.8,0.4-1.5,0.9-2.3,1.3C200.4,255.8,201.2,255.4,201.9,254.9"/>
<polyline points="202,254.9 201.9,255 202,254.9 "/>
<path d="M168,249.9L168,249.9l0.3-0.2C168.2,249.8,168.1,249.8,168,249.9"/>
<path d="M246.4,244c-3.3-2.1-7.1-2.9-10.7-2.9c-3.7,0-7.2,0.8-10.3,2c-3.6,1.4-10.7,4.9-16,7.7l0,0l0.1,0l0.7,1.4l1.1,2.9
	c0.2,0.9,0.4,1.8,0.4,2.6c0,0.2,0,0.4,0,0.6c0-0.2,0-0.4,0-0.6c0-0.1,0-0.2,0-0.3c6.1-3.3,12.6-6.6,16.2-7.9
	c2.4-0.9,5.2-1.5,7.8-1.5c2.6,0,5,0.6,7,1.8c1.4,0.9,2.6,2,3.6,3.7c-0.3,0.2-0.6,0.4-0.9,0.5c1.2-0.7,2.5-1.4,3.9-2.1l0.8-0.4
	c0.7-0.4,1.4-0.8,2.1-1.1l0.3-0.1C250.9,247.6,248.8,245.4,246.4,244"/>
<path d="M188.6,270.7c-0.1-0.6-0.3-1.4-0.3-2.1c0-0.4,0-0.7,0.1-1.1c-1.5,0.4-17.5,4.7-23.1,6.9c-2,0.8-3.6,1.1-4.9,1.1
	c-2.9,0-4.7-1.3-6.1-2.7c0,0-0.1-0.1-0.1-0.2c0.1,0,0.2-0.1,0.3-0.1c-1.5,0.5-2.9,1.1-4.5,1.5l-2.8,0.9c0.5,0.8,1.1,1.7,2,2.6
	c2.2,2.4,6,4.9,11.2,4.9h0.1c2.3,0,4.8-0.5,7.5-1.5c4.8-2,13.4-3.9,21.6-6.4L188.6,270.7L188.6,270.7z"/>
<path d="M526.7,270.7c-0.1-0.6-0.3-1.4-0.3-2.2c0-0.3,0-0.7,0.1-1c-1.7,0.5-17.5,4.7-23.1,6.9c-2,0.8-3.6,1-4.9,1
	c-2.9,0-4.7-1.3-6.1-2.7c0,0-0.1-0.1-0.2-0.2c0.1,0,0.2-0.1,0.3-0.1c-1.4,0.5-2.9,1.1-4.4,1.5l-2.8,0.9c0.5,0.8,1.1,1.7,2,2.6
	c2.2,2.4,6,5,11.2,5h0.1c2.3,0,4.8-0.5,7.5-1.5c4.8-2,13.4-4,21.6-6.5L526.7,270.7C526.7,270.7,526.7,270.7,526.7,270.7"/>
<path d="M567.7,268.1c-7.5,2.2-15.5,4.2-21,6.3c-2,0.8-3.6,1.1-4.9,1.1c-2.9,0-4.8-1.3-6.1-2.7c-0.3-0.3-0.5-0.6-0.7-0.8
	c0.1,0,0.1,0,0.2-0.1c-1.3,0.5-2.6,1-3.9,1.4l-3.1,1c0.5,0.9,1.3,2,2.4,3.2c1.4,1.5,3.4,3.1,6.1,4.1c1.5,0.6,3.2,0.9,5.1,0.9h0.1
	c2.3,0,4.8-0.5,7.5-1.5c4.7-1.9,13.1-3.9,21.2-6.3c-0.5-0.8-0.8-1.4-1-1.8c-0.1-0.3-0.4-0.8-0.6-1.4l-0.4-3.5L567.7,268.1z"/>
<path d="M568.5,268l0.4,3.3c0.2,0.7,0.5,1.1,0.6,1.4c0.1,0.3,0.4,1,1,1.8c0.5,0.9,1.2,1.9,2.2,2.9c2.2,2.4,6,5,11.2,5h0
	c2.3,0,4.8-0.5,7.5-1.5c4.6-1.8,12.5-3.8,20.2-6l-1.1-3.3c-0.3-0.8-0.5-1.8-0.5-3c0-0.2,0-0.3,0-0.5v0c-1.6,0.4-16.1,4.3-21.2,6.3
	c-2,0.8-3.6,1.1-4.9,1.1c-2.9,0-4.7-1.3-6.1-2.7c-0.2-0.2-0.3-0.3-0.4-0.5c3.3-1.2,6.4-2.6,9-4.3c1.8-1.2,3.4-2.5,4.7-4.1
	c1.2-1.6,2.1-3.7,2.1-6c0-0.3,0-0.6,0-0.9c5.7-3.1,11.6-6,15-7.3c2.5-0.9,5.2-1.5,7.8-1.5c2.6,0,5,0.6,7,1.8
	c1.4,0.8,2.6,1.9,3.6,3.5c-0.4,0.2-0.8,0.4-1.2,0.7c0.2-0.1,0.3-0.2,0.5-0.2c1.2-0.6,2.4-1.3,3.6-2l0.2-0.1c1.1-0.6,2.1-1.1,3.2-1.7
	c-1.6-2.7-3.7-4.8-6.1-6.2c-3.3-2-7-2.8-10.6-2.8c-3.6,0-7.1,0.8-10.3,2c-3.8,1.4-9.4,4.2-15,7.2c-1.1,0.6-2.2,1.1-3.2,1.7l-2.9,1.6
	l-0.2,0.1c-2.2,1.2-4.2,2.4-6,3.4c-2.5,1.5-4.2,2.5-5.2,3.2c-3,2.1-4.4,5.2-4.6,7.6V268z"/>
<path d="M651.5,271.8c-0.3-0.8-0.5-1.9-0.5-3.2v-0.4c-1.2,0.4-15.6,4.2-20.8,6.2c-2,0.8-3.5,1.1-4.9,1.1c-2.9,0-4.7-1.3-6.1-2.7
	c-0.1-0.1-0.2-0.2-0.3-0.3c0.1,0,0.2-0.1,0.3-0.1c-1.4,0.5-2.9,1.1-4.3,1.5l-2.9,1c0.5,0.8,1.2,1.7,2.1,2.7c2.2,2.4,6,4.9,11.2,4.9
	h0.1c2.3,0,4.8-0.5,7.4-1.5c4.5-1.8,12.2-3.7,19.9-6L651.5,271.8L651.5,271.8z"/>
<path d="M549.8,257.8c0-1.1-0.2-2.2-0.6-3.2c-0.3-0.8-0.8-1.4-1.2-1.7c-0.9-0.6-1.3-0.6-1.6-0.7c-0.3,0-0.4,0-0.5,0H545h0l-0.8,0.4
	c-1.5,0.8-3,1.7-4.3,2.4c-0.3,0.1-0.5,0.3-0.7,0.4c-0.3,0.2-0.7,0.4-1.1,0.6c-0.3,0.2-0.5,0.3-0.8,0.5c-0.3,0.2-0.6,0.4-0.9,0.5
	c-0.2,0.1-0.4,0.2-0.5,0.3c-0.8,0.4-1.4,0.8-2,1.2c-1.3,0.7-2.2,1.3-2.8,1.8c-0.4,0.3-0.8,0.6-1.1,0.9c-0.1,0.1-0.2,0.2-0.3,0.2
	c-0.2,0.3-0.5,0.5-0.7,0.7c-0.1,0.1-0.2,0.2-0.3,0.3c-0.2,0.2-0.4,0.5-0.5,0.7c-0.1,0.1-0.2,0.2-0.2,0.3c-0.2,0.3-0.3,0.5-0.4,0.7
	c-0.1,0.1-0.1,0.2-0.2,0.3c-0.1,0.3-0.2,0.5-0.3,0.7c0,0.1,0,0.2-0.1,0.3c-0.2,0.7-0.4,1.3-0.4,2v0c0,0.4-0.1,0.7-0.1,1
	c0,0.8,0.1,1.5,0.3,2.2c0,0,0,0,0,0l0.9,3.7v0l0.6-0.2l3.1-1c1.3-0.5,2.6-1,3.9-1.4c0.6-0.3,1.2-0.5,1.8-0.7
	c0.1-0.1,0.3-0.1,0.4-0.2c0.7-0.3,1.4-0.6,2-0.9c0,0,0.1-0.1,0.1-0.1c0.6-0.3,1.2-0.6,1.8-0.9c0.1-0.1,0.3-0.1,0.4-0.2
	c0.6-0.4,1.2-0.7,1.8-1.1c1.6-1.1,3-2.3,4.1-3.7c0.1-0.1,0.2-0.2,0.3-0.3c0.1-0.2,0.2-0.3,0.3-0.5
	C549.2,261.6,549.8,259.8,549.8,257.8L549.8,257.8z"/>
<path d="M635.1,256.7c-0.1-0.7-0.3-1.5-0.5-2.2l0-0.1c-0.2-0.5-0.3-0.7-0.3-0.8l-1.3-3.9l-3.6,2c0,0-2.1,1.1-3.8,2
	c-0.2,0.1-0.3,0.2-0.5,0.3c-0.3,0.2-0.5,0.3-0.7,0.4c-0.1,0-0.2,0.1-0.3,0.1c-0.7,0.4-1.3,0.7-1.9,1.1c-0.1,0.1-0.3,0.2-0.4,0.2
	c-0.7,0.4-1.3,0.7-1.9,1.1c0,0,0,0,0,0c-0.6,0.3-1.1,0.6-1.5,0.9c-0.1,0.1-0.2,0.1-0.3,0.2c-1.1,0.7-2,1.2-2.7,1.6
	c-0.4,0.2-0.6,0.4-0.9,0.6v0c-0.1,0-0.1,0.1-0.1,0.1c-0.4,0.3-0.7,0.5-1,0.8c-0.1,0.1-0.2,0.2-0.4,0.4c-0.2,0.2-0.4,0.4-0.6,0.6
	c-0.1,0.1-0.2,0.3-0.3,0.4c-0.2,0.2-0.3,0.4-0.4,0.6c-0.1,0.1-0.2,0.3-0.3,0.4c-0.1,0.2-0.3,0.4-0.4,0.6c-0.1,0.2-0.2,0.3-0.2,0.5
	c-0.1,0.2-0.2,0.4-0.3,0.6c-0.1,0.2-0.1,0.3-0.2,0.5c-0.1,0.2-0.1,0.4-0.2,0.6c0,0.1,0,0.3-0.1,0.5c0,0.2-0.1,0.4-0.1,0.5
	c0,0.2,0,0.3,0,0.5c0,0.1,0,0.2,0,0.2v0c0,0.2,0,0.4,0,0.5c0,1.3,0.2,2.3,0.5,3v0l1.1,3.2l0,0l0.4-0.1l2.9-0.9
	c1.4-0.5,2.9-1,4.4-1.5c0.6-0.2,1.2-0.5,1.9-0.7c0.2-0.1,0.3-0.1,0.5-0.2c0.7-0.3,1.5-0.6,2.2-0.9c0.1,0,0.2-0.1,0.2-0.1
	c0.6-0.3,1.2-0.6,1.8-0.9c0.2-0.1,0.3-0.2,0.5-0.2c0.7-0.4,1.3-0.7,1.9-1.1c1.2-0.8,2.4-1.7,3.4-2.6c0.5-0.5,1-1,1.4-1.6
	c1.1-1.4,1.9-3.3,2.1-5.2c0-0.3,0-0.6,0-0.9C635.2,257.5,635.2,257.1,635.1,256.7"/>
<path d="M676.7,257.8c0-0.4,0-0.9-0.1-1.3c-0.1-0.7-0.2-1.3-0.4-1.9l0-0.1l0-0.1c-0.2-0.4-0.4-0.9-0.7-1.4l-1.6-3.1v0l-3.1,1.7
	c-0.3,0.1-0.6,0.3-0.9,0.4c-0.7,0.4-1.5,0.8-2.2,1.2c-0.7,0.4-1.4,0.8-2.1,1.1c0,0,0,0,0,0c-0.7,0.4-1.5,0.8-2.2,1.2
	c-0.1,0.1-0.2,0.1-0.3,0.2c-0.7,0.4-1.4,0.8-2,1.1c-2.7,1.6-4.6,2.7-5.5,3.3c0,0,0,0-0.1,0c-1.2,0.9-2.2,1.9-2.9,3c0,0,0,0.1,0,0.1
	c-0.2,0.3-0.4,0.7-0.6,1c0,0.1-0.1,0.2-0.1,0.3c-0.1,0.3-0.3,0.5-0.4,0.8c0,0.1-0.1,0.3-0.1,0.4c-0.1,0.2-0.2,0.4-0.2,0.7
	c0,0.2,0,0.3-0.1,0.5s-0.1,0.4-0.1,0.5c0,0.2,0,0.3,0,0.5c0,0.1,0,0.2,0,0.3v0v0.3c0,1.4,0.3,2.5,0.6,3.2l0,0l1.1,3.1v0l0.4-0.1
	l2.8-0.9c1.5-0.5,3-1,4.4-1.5c0.7-0.3,1.4-0.5,2.1-0.8c0.2-0.1,0.3-0.1,0.4-0.2c0.8-0.3,1.5-0.6,2.3-1c0,0,0.1-0.1,0.2-0.1
	c0.7-0.3,1.3-0.6,1.9-0.9c0.1-0.1,0.3-0.2,0.4-0.2c0.7-0.4,1.3-0.7,2-1.1c1.9-1.2,3.6-2.5,4.9-4.2c0.6-0.7,1.1-1.5,1.5-2.4
	C676.4,260.4,676.7,259.1,676.7,257.8L676.7,257.8z"/>
<path d="M694.4,270.1l0-2.7c-8.1,2.5-17.3,4.7-23.2,7c-2,0.7-3.6,1-4.9,1c-3,0-4.8-1.3-6.2-2.7c0-0.1-0.1-0.1-0.1-0.2
	c0.1,0,0.1-0.1,0.2-0.1c-1.4,0.5-2.9,1-4.4,1.5l-2.8,0.9c0.5,0.8,1.1,1.7,2,2.6c2.2,2.4,6,4.9,11.2,4.9h0.1c2.3,0,4.8-0.5,7.4-1.5
	c4.9-2,13.8-4.1,22.2-6.7c-0.4-0.7-0.6-1.2-0.7-1.5C695.1,272.4,694.6,271.2,694.4,270.1"/>
<path d="M715.5,250.8c-1.6-2.9-3.7-5.2-6.2-6.7c-3.4-2.2-7.2-3-10.9-3c-3.7,0-7.2,0.8-10.4,2c-3.6,1.4-8.8,4-14.1,6.8c0,0,0,0,0,0
	l1.6,3.1c0.3,0.5,0.5,1,0.6,1.4l0,0.1l0,0.1c0.2,0.6,0.4,1.3,0.4,1.9v-0.1c5.4-2.8,10.8-5.5,13.9-6.7c2.5-1,5.2-1.6,7.8-1.6
	c2.7,0,5.1,0.6,7.2,1.9c1.3,0.9,2.8,2.4,3.9,4.1l2.2-1.2C712.7,252.3,714.3,251.4,715.5,250.8"/>
<path d="M736.8,271.2l-0.3-3.4c-7.7,2.3-16.4,4.5-21.9,6.6c-2,0.8-3.6,1.1-4.9,1.1c-2.9,0-4.7-1.3-6.1-2.7c-0.2-0.3-0.5-0.6-0.7-0.8
	c3.2-1.2,6.1-2.6,8.5-4.2c1.7-1.2,3.2-2.5,4.4-4.1c1.2-1.6,2-3.6,2-5.8v-0.3c6.1-3.3,12.6-6.6,16.2-7.9c2.5-0.9,5.2-1.5,7.8-1.5
	c2.6,0,5,0.7,7,1.8c1.8,1.1,3.4,3.5,3.6,3.8c0,0,0,0,0.1,0l0.5-0.3l2.4-1.3c1.1-0.6,2.1-1.2,3.2-1.8c0.1,0,0.1,0,0.1,0
	c-1.6-2.5-4-4.9-6.2-6.3c-3.3-2.1-7.1-2.9-10.7-2.9c-3.6,0-7.2,0.8-10.3,2c-4,1.5-10,4.6-15.9,7.7c-1.1,0.6-2.8,1.5-3.9,2.1
	l-2.2,1.2l-0.1,0.1c-2.1,1.1-3.9,2.2-5.6,3.1c-2.3,1.4-3.9,2.3-4.8,3c-2.7,1.9-4.1,4.5-4.5,6.8v0.4l0,2.7c0.2,1,0.7,2.2,0.9,2.6
	c0.1,0.3,0.4,0.8,0.7,1.5c0.5,0.9,1.3,2.1,2.4,3.3c2.2,2.4,6,4.9,11.2,4.9h0c2.3,0,4.8-0.5,7.4-1.5c4.8-1.9,13.2-3.9,21.2-6.3
	c-0.5-0.9-0.8-1.6-1-1.9C737.2,272.4,737,271.9,736.8,271.2"/>
<path d="M809,278.2L809,278.2l0,0.1l-2.6,0.8c-0.3,0.1-0.6,0.2-1,0.3c-1.4,0.4-2.9,0.9-3.8,1.3c0,2.1,0,20.4,0,20.4
	c0,30.9-3.2,71.1-13.2,116.7l3.8,0.1l3.9,0.1c9.9-45.7,13.1-85.8,13.1-117L809,278.2z"/>
<path d="M806.4,279.2l2.6-0.8v-0.1l-0.1-32l-3.4,1.9l-1.8,1c-0.5,0.3-1.8,0.9-3,1.4c0,0,0,0-0.1,0c-1.3,0.6-2.4,1.1-3.4,1.6
	l-2.5,1.4l-0.4,0.1c-2.3,1.2-4.4,2.4-6.1,3.4c-2.5,1.4-4.2,2.5-5.2,3.2c-2.9,2.1-4.3,5-4.5,7.4v0.4l0.4,3.2c0.2,0.7,0.4,1.2,0.6,1.5
	c0.1,0.4,0.4,1,0.9,1.7c0.5,0.8,1.2,1.9,2.2,2.9c2.2,2.4,6,4.9,11.2,4.9h0c2.3,0,4.8-0.5,7.4-1.5l0,0l0.1,0c0,0,0.1-0.1,0.2-0.1
	c0.8-0.4,2.4-0.9,3.8-1.3C805.8,279.4,806.1,279.3,806.4,279.2"/>
<path d="M794.4,253.7c-1.1-1.7-2.3-2.9-3.6-3.8c-2-1.3-4.4-1.8-7-1.8c-2.6,0-5.4,0.6-7.8,1.5c-3.3,1.3-9.3,4.2-15,7.3
	c0,0.3,0,0.6,0,0.9c0,2.2-0.9,4.3-2.1,6c-1.3,1.7-2.9,3-4.7,4.2c-2.6,1.7-5.7,3.1-9,4.3c0.1,0.1,0.2,0.3,0.4,0.5
	c1.4,1.4,3.2,2.7,6.1,2.7c1.4,0,2.9-0.3,4.9-1.1c5.6-2.2,14.1-4.2,21.9-6.6l0,0.5l0.3,3c0.2,0.7,0.4,1.2,0.6,1.5
	c0.2,0.4,0.5,1,0.9,1.7c-8.1,2.5-16.5,4.5-21.2,6.4c-2.7,1.1-5.2,1.5-7.5,1.5h0c-5.2,0-9-2.6-11.2-4.9c-1-1.1-1.7-2.1-2.2-2.9
	c-0.5-0.9-0.8-1.6-1-1.9c-0.1-0.3-0.4-0.8-0.5-1.5l-0.3-3.4l-0.1-0.4c0.3-2.4,1.7-5.1,4.6-7.2c0.9-0.7,2.6-1.7,5.2-3.2
	c1.8-1,3.9-2.2,6.1-3.4c0,0,0,0,0.1,0l0.5-0.3l2.4-1.3c1.1-0.6,2.1-1.2,3.2-1.7c0,0,0.1,0,0.1-0.1c5.6-2.9,11.1-5.7,14.8-7.1
	c3.2-1.2,6.7-2,10.3-2c3.6,0,7.4,0.8,10.7,2.9c2.5,1.5,4.6,3.7,6.2,6.6c-1.2,0.5-2.4,1.1-3.3,1.6l-2.5,1.4L794.4,253.7z"/>
<path class="st0" d="M106.4,262.3c0,0,0.1-0.1,0.1-0.1c0.3-0.3,0.6-0.7,0.9-1c0,0,0,0,0,0c0.4-0.3,0.7-0.6,1.1-0.9v0c0,0,0,0,0,0
	c0.9-0.6,2.4-1.5,4.6-2.8c0.1,0,0.1-0.1,0.2-0.1c0.5-0.3,1-0.5,1.5-0.8c0.1,0,0.2-0.1,0.3-0.2c1.1-0.6,2.2-1.2,3.4-1.9
	c-1.1-2.1-2.6-3.5-4.2-4.6c-2.2-1.4-4.9-2-7.7-2c-0.4,0-0.9,0-1.3,0v16c0.1-0.1,0.2-0.3,0.3-0.4c0-0.1,0.1-0.1,0.1-0.2
	C106,262.9,106.2,262.6,106.4,262.3"/>
<path class="st0" d="M151.4,248.1c-2.6,0-5.3,0.6-7.7,1.5c-3.7,1.4-10.3,4.8-16.4,8.1l-0.4,0.2c0,0.1,0,0.1,0,0.2
	c0,1.1-0.2,2.1-0.5,3c-0.8,2.4-2.5,4.3-4.5,5.8c-0.4,0.3-0.7,0.6-1.1,0.8c0,0,0,0-0.1,0c-0.5,0.4-1.1,0.7-1.6,1
	c-0.2,0.1-0.3,0.2-0.4,0.2c-0.5,0.3-1.1,0.6-1.6,0.9c0,0-0.1,0-0.2,0.1c-0.6,0.3-1.3,0.6-2,0.9c-0.1,0.1-0.3,0.1-0.4,0.2
	c-0.6,0.2-1.2,0.5-1.8,0.7c-0.1,0-0.1,0-0.2,0.1c0.2,0.3,0.5,0.6,0.8,0.9c1.4,1.5,3.2,2.7,6.1,2.7c1.3,0,2.9-0.3,4.9-1
	c5.4-2.1,13.3-4,20.8-6.2c0-0.1,0-0.2,0-0.3c0-0.1,0-0.3,0-0.4c0-0.2,0-0.4,0.1-0.6c0-0.1,0-0.3,0.1-0.4c0.1-0.2,0.1-0.4,0.2-0.7
	c0-0.1,0.1-0.3,0.1-0.4c0.1-0.2,0.2-0.5,0.3-0.7c0-0.1,0.1-0.2,0.1-0.4c0.1-0.3,0.3-0.5,0.5-0.8c0-0.1,0.1-0.2,0.2-0.3
	c0.2-0.3,0.4-0.6,0.6-0.9c0-0.1,0.1-0.1,0.2-0.2c0.3-0.3,0.6-0.6,0.9-0.9c0,0,0-0.1,0.1-0.1c0.4-0.3,0.7-0.6,1.1-0.9c0,0,0,0,0,0
	c0.8-0.5,2.1-1.3,3.9-2.4c0.5-0.3,1-0.6,1.6-0.9c0.1-0.1,0.2-0.1,0.3-0.2c0.5-0.3,1.1-0.6,1.6-0.9c0.2-0.1,0.4-0.2,0.6-0.3
	c0.6-0.3,1.2-0.7,1.8-1c0.1,0,0.2-0.1,0.3-0.2c0.7-0.4,1.3-0.7,2-1.1C159.2,249.4,155.6,248.2,151.4,248.1"/>
<path class="st0" d="M199.6,250c-2-1.3-4.5-1.9-7.1-1.9c-2.6,0-5.4,0.6-7.8,1.6c-3.2,1.2-8.6,3.9-14,6.7c0.1,0.5,0.1,1,0.1,1.4
	c0,1-0.2,1.9-0.4,2.8c-0.4,1.2-1,2.4-1.8,3.4c-1.3,1.7-3,3-4.9,4.2c-0.6,0.4-1.3,0.7-2,1.1c-0.1,0.1-0.3,0.2-0.5,0.3
	c-0.6,0.3-1.2,0.6-1.8,0.9c-0.1,0-0.2,0.1-0.3,0.1c-0.7,0.3-1.4,0.6-2.2,0.9c-0.2,0.1-0.3,0.1-0.5,0.2c-0.7,0.3-1.3,0.5-1.9,0.7
	c-0.1,0-0.2,0.1-0.3,0.1c0,0.1,0.1,0.1,0.1,0.2c1.4,1.4,3.2,2.7,6.1,2.7c1.3,0,2.9-0.3,4.9-1c6-2.4,15-4.4,23.1-7
	c0-0.2,0.1-0.5,0.1-0.7c0-0.1,0-0.2,0.1-0.3c0.1-0.3,0.2-0.6,0.3-0.9c0-0.1,0.1-0.2,0.1-0.4c0.1-0.2,0.2-0.4,0.3-0.7
	c0-0.1,0.1-0.3,0.2-0.4c0.1-0.2,0.2-0.4,0.4-0.6c0.1-0.1,0.2-0.3,0.3-0.4c0.2-0.2,0.3-0.4,0.5-0.6c0.1-0.1,0.2-0.3,0.3-0.4
	c0.2-0.2,0.4-0.5,0.7-0.7c0.1-0.1,0.2-0.2,0.3-0.3c0.3-0.3,0.7-0.6,1.1-0.9c0.1,0,0.2-0.1,0.3-0.2c0,0,0.1,0,0.1-0.1
	c0.6-0.4,1.3-0.8,2.2-1.4c0.6-0.4,1.4-0.8,2.2-1.3c0.6-0.3,1.2-0.7,1.8-1.1c0,0,0,0,0,0c1.2-0.7,2.4-1.4,3.7-2.1
	C202.3,252.2,201,250.9,199.6,250"/>
<path class="st0" d="M242.7,249.9c-2-1.2-4.4-1.8-7-1.8c-2.6,0-5.4,0.6-7.8,1.5c-3.5,1.4-10.1,4.7-16.2,7.9c0,0.1,0,0.2,0,0.3
	c0,0.2,0,0.4,0,0.6c-0.1,1.9-0.9,3.7-1.9,5.1c-1.1,1.6-2.7,2.9-4.4,4.1c-0.6,0.4-1.2,0.7-1.8,1.1c-0.1,0.1-0.2,0.1-0.3,0.2
	c-0.6,0.3-1.2,0.6-1.8,0.9c0,0,0,0-0.1,0c-0.7,0.3-1.4,0.7-2.1,1c-0.1,0-0.2,0.1-0.3,0.1c-0.6,0.3-1.3,0.5-1.9,0.8
	c-0.1,0-0.1,0-0.2,0c0.2,0.3,0.4,0.6,0.7,0.9c1.4,1.4,3.2,2.7,6.1,2.7c1.3,0,2.9-0.3,4.9-1c5.6-2.2,14.1-4.2,21.8-6.6
	c0,0,0-0.1,0-0.1c0-0.1,0-0.2,0-0.4c0-0.2,0-0.4,0.1-0.6c0-0.1,0.1-0.3,0.1-0.4c0-0.2,0.1-0.4,0.2-0.6c0.1-0.2,0.1-0.3,0.2-0.4
	c0.1-0.2,0.2-0.4,0.3-0.6c0.1-0.2,0.1-0.3,0.2-0.5c0.1-0.2,0.2-0.4,0.4-0.6c0.1-0.1,0.2-0.3,0.3-0.4c0.2-0.2,0.3-0.4,0.4-0.6
	c0.1-0.1,0.2-0.3,0.4-0.4c0.2-0.2,0.4-0.4,0.5-0.6c0.1-0.1,0.3-0.3,0.4-0.4c0.2-0.2,0.5-0.5,0.8-0.7c0.1-0.1,0.2-0.2,0.3-0.2
	c0.4-0.4,1.1-0.8,2-1.3c0.8-0.5,1.9-1.1,3.2-1.9c0.5-0.3,1.1-0.6,1.6-0.9c0.3-0.2,0.6-0.4,0.9-0.5c0.3-0.2,0.6-0.4,0.9-0.5
	c0.6-0.3,1.2-0.6,1.8-1c0.3-0.2,0.6-0.4,0.9-0.5C245.4,251.9,244.1,250.8,242.7,249.9"/>
<path class="st0" d="M288.2,253.4L288.2,253.4c-1-1.6-2.2-2.7-3.5-3.5c-2-1.2-4.4-1.8-6.9-1.8s-5.3,0.6-7.7,1.5
	c-3.4,1.3-9.3,4.2-15,7.3c0,0.3,0,0.6,0,0.9c0,1.5-0.4,3-1.1,4.3c-0.3,0.6-0.7,1.2-1,1.7c-1.3,1.7-2.9,3-4.7,4.2
	c-0.6,0.4-1.2,0.7-1.8,1.1c-0.1,0.1-0.3,0.2-0.4,0.2c-0.6,0.3-1.2,0.6-1.8,0.9c-0.1,0-0.2,0.1-0.3,0.1c-0.7,0.3-1.4,0.6-2.1,0.9
	c-0.2,0.1-0.4,0.2-0.6,0.2c-0.6,0.2-1.1,0.5-1.8,0.7c-0.1,0.1-0.2,0.1-0.3,0.1c0.1,0.2,0.3,0.3,0.4,0.5c1.4,1.4,3.2,2.7,6.1,2.7
	c1.3,0,2.9-0.3,4.9-1.1c5.5-2.1,13.6-4.1,21.2-6.4c0-0.1,0-0.2,0-0.3c0-0.1,0-0.3,0-0.4c0-0.2,0-0.4,0.1-0.6c0-0.1,0-0.3,0.1-0.4
	c0-0.2,0.1-0.4,0.2-0.6c0-0.1,0.1-0.3,0.2-0.4c0.1-0.2,0.2-0.5,0.3-0.7c0-0.1,0.1-0.2,0.2-0.4c0.1-0.3,0.3-0.5,0.4-0.8
	c0.1-0.1,0.1-0.2,0.2-0.3c0.2-0.3,0.4-0.6,0.7-0.9c0-0.1,0.1-0.1,0.1-0.1c0.6-0.7,1.3-1.3,2.1-1.9c0,0,0,0,0,0
	c0.1-0.1,0.2-0.1,0.3-0.2c1-0.7,2.7-1.7,5.1-3.1c0.1-0.1,0.3-0.2,0.4-0.2c0.4-0.3,0.9-0.5,1.4-0.8c0.2-0.1,0.4-0.2,0.6-0.3
	c0.5-0.3,1-0.5,1.5-0.8c0.2-0.1,0.4-0.2,0.6-0.4C287,254.1,287.6,253.7,288.2,253.4L288.2,253.4z"/>
<path class="st0" d="M328.9,253.4L328.9,253.4c-1-1.6-2.2-2.7-3.5-3.5c-2-1.2-4.4-1.8-6.9-1.8c-2.6,0-5.3,0.6-7.7,1.5
	c-3.4,1.3-9.3,4.2-15,7.3c0,0.3,0,0.6,0,0.9c0,1.5-0.4,3-1.1,4.3c-0.3,0.6-0.7,1.2-1,1.7c-1.3,1.7-2.9,3-4.7,4.2
	c-0.6,0.4-1.2,0.7-1.8,1.1c-0.1,0.1-0.3,0.2-0.4,0.2c-0.6,0.3-1.2,0.6-1.8,0.9c-0.1,0-0.2,0.1-0.3,0.1c-0.7,0.3-1.4,0.6-2.1,0.9
	c-0.2,0.1-0.4,0.2-0.6,0.2c-0.6,0.2-1.1,0.5-1.8,0.7c-0.1,0.1-0.2,0.1-0.3,0.1c0.1,0.2,0.3,0.3,0.4,0.5c1.4,1.4,3.2,2.7,6.1,2.7
	c1.3,0,2.9-0.3,4.9-1.1c5.5-2.1,13.6-4.1,21.2-6.4c0-0.1,0-0.2,0-0.3c0-0.1,0-0.3,0-0.4c0-0.2,0-0.4,0.1-0.6c0-0.1,0-0.3,0.1-0.4
	c0-0.2,0.1-0.4,0.2-0.6c0-0.1,0.1-0.3,0.2-0.4c0.1-0.2,0.2-0.5,0.3-0.7c0-0.1,0.1-0.2,0.2-0.4c0.1-0.3,0.3-0.5,0.4-0.8
	c0.1-0.1,0.1-0.2,0.2-0.3c0.2-0.3,0.4-0.6,0.7-0.9c0-0.1,0.1-0.1,0.1-0.1c0.6-0.7,1.3-1.3,2.1-1.9c0,0,0,0,0,0
	c0.1-0.1,0.2-0.1,0.3-0.2c1-0.7,2.7-1.7,5.1-3.1c0.1-0.1,0.3-0.2,0.4-0.2c0.4-0.3,0.9-0.5,1.4-0.8c0.2-0.1,0.4-0.2,0.6-0.3
	c0.5-0.3,1-0.5,1.5-0.8c0.2-0.1,0.4-0.2,0.6-0.4C327.7,254.1,328.3,253.7,328.9,253.4L328.9,253.4z"/>
<path class="st0" d="M371.3,254.1c-1.1-1.9-2.4-3.2-3.8-4.2c-2-1.3-4.5-1.9-7.2-1.9c-2.6,0-5.4,0.6-7.8,1.6c-3.2,1.2-8.6,3.9-14,6.7
	v0.1c0.1,0.5,0.1,0.9,0.1,1.4c0,2.3-0.9,4.5-2.2,6.1c-1.3,1.7-3,3-4.9,4.2c-0.6,0.4-1.3,0.7-2,1.1c-0.1,0.1-0.3,0.2-0.4,0.2
	c-0.6,0.3-1.3,0.6-1.9,0.9c-0.1,0-0.2,0.1-0.2,0.1c-0.7,0.3-1.5,0.6-2.2,1c-0.1,0-0.3,0.1-0.4,0.2c-0.7,0.2-1.3,0.5-2,0.7
	c-0.1,0-0.1,0-0.2,0.1c0,0.1,0.1,0.1,0.1,0.2c1.4,1.4,3.2,2.7,6.1,2.7c1.3,0,2.9-0.3,4.9-1c6-2.4,15-4.4,23.1-7
	c0-0.3,0.1-0.6,0.2-0.9c0.1-0.3,0.2-0.7,0.3-1c0-0.1,0.1-0.2,0.1-0.3c0.1-0.2,0.2-0.5,0.4-0.7c0-0.1,0.1-0.2,0.2-0.4
	c0.1-0.2,0.2-0.5,0.4-0.7c0.1-0.1,0.1-0.2,0.2-0.4c0.1-0.2,0.3-0.4,0.5-0.7c0.1-0.1,0.2-0.2,0.3-0.3c0.2-0.2,0.4-0.5,0.7-0.7
	c0.1-0.1,0.2-0.2,0.3-0.3c0.3-0.3,0.7-0.6,1.1-0.9c0.5-0.4,1.3-0.9,2.3-1.5c0.7-0.4,1.5-0.9,2.5-1.4
	C367.3,256.4,369.2,255.3,371.3,254.1"/>
<path class="st0" d="M410.6,249.9c-2-1.2-4.4-1.8-7-1.8c-2.6,0-5.4,0.6-7.8,1.5c-3.6,1.4-10.2,4.7-16.2,7.9v0.3
	c0,1.8-0.6,3.5-1.4,4.9c-0.2,0.3-0.3,0.6-0.5,0.8c-1.2,1.6-2.7,2.9-4.4,4.1c-0.6,0.4-1.1,0.7-1.8,1.1c-0.1,0.1-0.3,0.2-0.4,0.3
	c-0.6,0.3-1.1,0.6-1.7,0.9c-0.1,0-0.1,0.1-0.2,0.1c-0.6,0.3-1.3,0.6-2,0.9c-0.2,0.1-0.3,0.1-0.5,0.2c-0.5,0.2-1.1,0.4-1.6,0.7
	c-0.1,0-0.3,0.1-0.4,0.2c0.2,0.3,0.5,0.5,0.7,0.8c1.4,1.4,3.2,2.7,6.2,2.7c1.3,0,2.9-0.3,4.9-1c5.6-2.2,14.1-4.2,21.9-6.6
	c0-0.1,0-0.1,0-0.2c0-0.1,0-0.2,0-0.3c0-0.2,0-0.4,0.1-0.7c0-0.1,0.1-0.2,0.1-0.3c0-0.2,0.1-0.5,0.2-0.7c0-0.1,0.1-0.2,0.1-0.4
	c0.1-0.3,0.2-0.5,0.3-0.7c0.1-0.1,0.1-0.2,0.2-0.4c0.1-0.2,0.3-0.5,0.4-0.7c0.1-0.1,0.1-0.2,0.2-0.3c0.1-0.3,0.3-0.5,0.5-0.7
	c0.1-0.1,0.1-0.2,0.2-0.3c0.2-0.3,0.5-0.5,0.7-0.8c0.1-0.1,0.1-0.1,0.2-0.2c0.4-0.3,0.7-0.6,1.1-0.9h0c0.1-0.1,0.3-0.2,0.5-0.4
	c1-0.7,2.5-1.6,4.7-2.8c0.3-0.2,0.7-0.4,1-0.6c0.2-0.1,0.4-0.2,0.6-0.4c0.2-0.2,0.5-0.3,0.8-0.5c0.5-0.3,1-0.6,1.6-0.9
	c0.1,0,0.2-0.1,0.3-0.2c0.6-0.4,1.2-0.7,1.9-1C413.2,251.9,412,250.8,410.6,249.9"/>
<path class="st0" d="M452.9,250c-2-1.3-4.5-1.9-7.1-1.9c-2.6,0-5.4,0.6-7.8,1.6c-3.3,1.3-9.3,4.2-15,7.3c0,0.3,0,0.6,0,0.9
	c0,1.3-0.3,2.5-0.7,3.6c-0.4,0.9-0.8,1.7-1.4,2.4c-1.2,1.7-2.8,3-4.7,4.2c-0.6,0.4-1.2,0.7-1.8,1.1c-0.2,0.1-0.4,0.2-0.5,0.3
	c-0.6,0.3-1.1,0.6-1.7,0.8c-0.1,0-0.2,0.1-0.3,0.2c-0.7,0.3-1.4,0.6-2.1,0.9c-0.2,0.1-0.4,0.2-0.6,0.2c-0.5,0.2-1.1,0.4-1.7,0.7
	c-0.1,0-0.2,0.1-0.4,0.1c0.2,0.2,0.3,0.3,0.4,0.5c1.4,1.5,3.2,2.7,6.1,2.7c1.3,0,2.9-0.3,4.9-1c6.1-2.4,15.4-4.5,23.6-7.1
	c0-0.2,0.1-0.4,0.1-0.5c0-0.1,0-0.2,0-0.3c0.1-0.3,0.2-0.7,0.3-1c0-0.1,0.1-0.2,0.1-0.3c0.1-0.2,0.2-0.4,0.3-0.7
	c0.1-0.1,0.2-0.3,0.3-0.4c0.1-0.2,0.2-0.4,0.3-0.6c0.1-0.1,0.2-0.3,0.4-0.5c0.1-0.2,0.3-0.3,0.4-0.5c0.1-0.2,0.2-0.3,0.4-0.5
	c0.2-0.2,0.3-0.3,0.5-0.5c0.1-0.1,0.3-0.3,0.4-0.4c0.3-0.3,0.6-0.5,1-0.8c0,0,0-0.1,0.1-0.1c0.1-0.1,0.2-0.2,0.4-0.3c0,0,0,0,0,0
	c0.9-0.7,2.3-1.5,4.3-2.6c0.5-0.3,1.1-0.6,1.6-0.9c0.1-0.1,0.2-0.1,0.4-0.2c1-0.6,2.2-1.2,3.4-1.9
	C455.7,252.3,454.4,250.9,452.9,250"/>
<path class="st0" d="M489.4,248.1c-2.6,0-5.3,0.6-7.7,1.5c-3.7,1.4-10.4,4.8-16.7,8.2v0c0,2.1-0.7,4.1-1.9,5.7
	c-0.4,0.6-0.8,1.1-1.3,1.5c-0.8,0.8-1.7,1.6-2.6,2.2c-0.1,0.1-0.2,0.2-0.4,0.3c0,0,0,0,0,0c-0.5,0.4-1.1,0.7-1.7,1
	c-0.1,0.1-0.3,0.2-0.5,0.3c-0.5,0.3-1.1,0.6-1.6,0.9c-0.1,0-0.2,0.1-0.3,0.1c-0.6,0.3-1.3,0.6-1.9,0.9c-0.1,0.1-0.3,0.1-0.5,0.2
	c-0.5,0.2-1.1,0.5-1.7,0.7c-0.1,0-0.2,0.1-0.3,0.1c0.3,0.4,0.5,0.7,0.8,1c1.4,1.5,3.2,2.7,6.1,2.7c1.3,0,2.9-0.3,4.9-1
	c5.4-2.1,13.3-4,20.7-6.2c0-0.1,0-0.2,0-0.3c0-0.1,0-0.3,0-0.4c0-0.2,0.1-0.4,0.1-0.6c0-0.1,0.1-0.3,0.1-0.4c0-0.2,0.1-0.4,0.2-0.7
	c0.1-0.1,0.1-0.2,0.1-0.4c0.1-0.3,0.2-0.5,0.4-0.8c0-0.1,0.1-0.2,0.1-0.3c0.2-0.3,0.4-0.6,0.6-0.9c0,0,0-0.1,0.1-0.1
	c0.7-1.1,1.7-2.1,2.9-3c0,0,0,0,0,0c0.4-0.2,0.9-0.6,1.5-0.9c1-0.6,2.4-1.4,4.1-2.4c0.6-0.4,1.3-0.7,2-1.1c0.2-0.1,0.3-0.2,0.4-0.3
	c0.5-0.3,1-0.6,1.6-0.9c0.2-0.1,0.4-0.2,0.7-0.4c0.7-0.3,1.3-0.7,1.9-1.1C497.3,249.4,493.7,248.2,489.4,248.1"/>
<path class="st0" d="M537.6,250c-2-1.3-4.5-1.9-7.1-1.9c-2.6,0-5.3,0.6-7.8,1.6c-3.1,1.2-8.6,3.9-14,6.7c0.1,0.5,0.1,1,0.1,1.5v0
	c0,2-0.7,3.9-1.8,5.4c-0.1,0.2-0.3,0.4-0.5,0.7c-0.2,0.2-0.4,0.4-0.6,0.7c-1.2,1.4-2.7,2.5-4.3,3.5c-0.6,0.4-1.3,0.7-2,1.1
	c-0.1,0.1-0.3,0.2-0.5,0.3c-0.6,0.3-1.2,0.6-1.8,0.9c-0.1,0-0.2,0.1-0.3,0.2c-0.7,0.3-1.4,0.6-2.2,0.9c-0.2,0.1-0.4,0.1-0.5,0.2
	c-0.7,0.3-1.3,0.5-2,0.7c-0.1,0-0.1,0.1-0.2,0.1c0.1,0.1,0.1,0.1,0.1,0.2c1.4,1.4,3.2,2.7,6.1,2.7c1.3,0,3-0.3,4.9-1
	c6-2.4,15-4.4,23.1-7c0.1-0.6,0.3-1.3,0.5-1.9c0-0.1,0.1-0.2,0.1-0.3c0.1-0.2,0.2-0.5,0.3-0.7c0-0.1,0.1-0.2,0.2-0.3
	c0.2-0.2,0.3-0.5,0.4-0.7c0.1-0.1,0.2-0.2,0.2-0.3c0.2-0.2,0.3-0.5,0.5-0.7c0.1-0.1,0.2-0.2,0.3-0.3c0.2-0.2,0.5-0.5,0.7-0.7
	c0.1-0.1,0.2-0.1,0.3-0.2c0.3-0.3,0.7-0.6,1.1-0.9c0.6-0.4,1.5-1,2.8-1.8c0.6-0.4,1.2-0.7,2-1.2c0.2-0.1,0.4-0.2,0.5-0.3
	c0.3-0.2,0.6-0.4,0.9-0.5c0.3-0.2,0.6-0.3,0.8-0.5c0.4-0.2,0.7-0.4,1.1-0.6c0.2-0.1,0.5-0.3,0.7-0.4c0.5-0.3,1-0.6,1.5-0.8
	C540.3,252.2,539,250.9,537.6,250"/>
<path class="st0" d="M580.8,249.9c-2-1.2-4.4-1.8-7-1.8c-2.6,0-5.3,0.6-7.8,1.5c-3.6,1.4-10.1,4.6-16.2,7.9c0,0.1,0,0.2,0,0.2v0
	c0,1.9-0.6,3.8-1.6,5.3c-0.1,0.2-0.2,0.3-0.4,0.5c-0.1,0.1-0.2,0.2-0.3,0.4c-1.1,1.4-2.5,2.7-4.1,3.7c-0.5,0.4-1.1,0.7-1.8,1.1
	c-0.1,0.1-0.2,0.1-0.4,0.2c-0.5,0.3-1.1,0.6-1.8,0.9c0,0-0.1,0-0.1,0.1c-0.7,0.3-1.4,0.6-2,0.9c-0.1,0-0.3,0.1-0.4,0.2
	c-0.6,0.3-1.2,0.5-1.8,0.7c-0.1,0-0.1,0.1-0.2,0.1c0.2,0.3,0.4,0.5,0.7,0.8c1.4,1.4,3.2,2.7,6.1,2.7c1.3,0,2.9-0.3,4.9-1
	c5.6-2.2,14.1-4.2,21.8-6.6c0.2-2.4,1.5-5.4,4.6-7.6c0.9-0.7,2.7-1.7,5.2-3.2c1.7-1,3.8-2.1,6-3.4l0.2-0.1
	C583.4,251.9,582.2,250.8,580.8,249.9"/>
<path class="st0" d="M622.8,249.9c-2-1.2-4.4-1.8-7-1.8c-2.6,0-5.3,0.6-7.8,1.5c-3.3,1.3-9.2,4.2-15,7.3c0,0.3,0,0.6,0,0.9
	c0,2.2-0.9,4.3-2.1,6c-1.3,1.7-2.9,3-4.7,4.2c-2.6,1.7-5.7,3.1-9,4.3c0.1,0.2,0.3,0.3,0.4,0.5c1.4,1.4,3.2,2.7,6.1,2.7
	c1.3,0,2.9-0.3,4.9-1.1c5.5-2.1,13.6-4.1,21.2-6.3c0-0.1,0-0.2,0-0.2c0-0.2,0-0.3,0-0.5c0-0.2,0.1-0.4,0.1-0.6
	c0-0.1,0.1-0.3,0.1-0.5c0-0.2,0.1-0.4,0.2-0.6c0-0.2,0.1-0.3,0.2-0.5c0.1-0.2,0.2-0.4,0.3-0.6c0-0.2,0.1-0.3,0.2-0.5
	c0.1-0.2,0.2-0.4,0.4-0.6c0.1-0.2,0.2-0.3,0.3-0.5c0.1-0.2,0.3-0.4,0.4-0.6c0.1-0.1,0.2-0.3,0.4-0.4c0.2-0.2,0.4-0.4,0.6-0.6
	c0.1-0.1,0.2-0.3,0.4-0.4c0.3-0.3,0.6-0.5,1-0.8c0,0,0-0.1,0.1-0.1v0c0.2-0.2,0.5-0.4,0.8-0.6c0.7-0.4,1.6-1,2.7-1.6
	c0.1-0.1,0.2-0.1,0.3-0.2c0.5-0.3,0.9-0.6,1.5-0.9c0,0,0,0,0,0c0.6-0.3,1.2-0.7,1.9-1.1c0.1,0,0.2-0.1,0.4-0.2
	c0.6-0.4,1.2-0.7,1.9-1.1c0.1,0,0.2-0.1,0.3-0.1c0.6-0.4,1.3-0.7,1.9-1.1C625.3,251.8,624.1,250.7,622.8,249.9"/>
<path class="st0" d="M667.6,253.2L667.6,253.2c-2.5-3.8-6.1-5-10.3-5.1c-2.6,0-5.3,0.6-7.8,1.5c-3.2,1.2-8.9,4.1-14.4,7v0.1
	c0,0.4,0,0.7,0,1.1c0,0.3,0,0.6,0,0.8c-0.2,2-1,3.8-2.1,5.2c-0.4,0.6-0.9,1.1-1.4,1.6c-1,1-2.2,1.8-3.4,2.6
	c-0.6,0.4-1.3,0.7-1.9,1.1c-0.1,0.1-0.3,0.2-0.4,0.2c-0.6,0.3-1.2,0.6-1.8,0.9c-0.1,0-0.2,0.1-0.2,0.1c-0.7,0.3-1.4,0.6-2.2,0.9
	c-0.2,0-0.3,0.1-0.5,0.2c-0.6,0.3-1.3,0.5-1.9,0.7c-0.1,0-0.2,0.1-0.3,0.1c0.1,0.1,0.2,0.2,0.3,0.3c1.4,1.5,3.2,2.7,6.1,2.7
	c1.3,0,2.9-0.3,4.9-1c5.4-2.1,13.3-4,20.8-6.2c0-0.1,0-0.2,0-0.3c0-0.2,0-0.3,0-0.5c0-0.2,0.1-0.4,0.1-0.5c0-0.2,0-0.3,0.1-0.5
	c0.1-0.2,0.2-0.4,0.2-0.6c0-0.1,0.1-0.3,0.1-0.4c0.1-0.3,0.2-0.5,0.4-0.8c0-0.1,0.1-0.2,0.1-0.3c0.2-0.3,0.4-0.7,0.6-1
	c0,0,0,0,0-0.1c0.7-1.1,1.7-2.1,2.9-3c0,0,0,0,0,0c1-0.7,2.8-1.8,5.5-3.3c0.6-0.4,1.3-0.7,2-1.1c0.1,0,0.2-0.1,0.3-0.2
	c0.7-0.4,1.4-0.8,2.2-1.2c0,0,0,0,0,0C666.2,254,666.9,253.6,667.6,253.2L667.6,253.2z"/>
<path class="st0" d="M676.7,257.8c0,1.3-0.3,2.6-0.8,3.7c-0.4,0.9-0.9,1.7-1.5,2.4c-1.3,1.7-3,3-4.9,4.2c-0.7,0.4-1.3,0.8-2,1.1
	c-0.1,0.1-0.3,0.2-0.4,0.2c-0.6,0.3-1.3,0.6-1.9,0.9c-0.1,0-0.1,0-0.2,0.1c-0.7,0.3-1.5,0.6-2.3,1c-0.1,0-0.3,0.1-0.4,0.2
	c-0.7,0.3-1.4,0.5-2.1,0.8c-0.1,0-0.1,0-0.2,0.1c0,0.1,0.1,0.1,0.1,0.2c1.4,1.5,3.2,2.7,6.2,2.7c1.3,0,2.9-0.3,4.9-1
	c5.9-2.4,15-4.4,23.1-7c0.3-2.4,1.7-5.2,4.5-7.2c0.9-0.7,2.5-1.6,4.8-2.9c1.6-0.9,3.6-2,5.6-3.2c-1.1-1.9-2.4-3.2-3.8-4.2
	c-2-1.3-4.5-1.9-7.2-1.9c-2.6,0-5.4,0.6-7.8,1.6c-3.1,1.2-8.5,3.9-13.9,6.7v0.1C676.7,256.9,676.7,257.3,676.7,257.8L676.7,257.8z"
	/>
<path class="st0" d="M709.7,275.4c1.3,0,2.9-0.3,4.9-1.1c5.7-2.2,14.1-4.2,21.9-6.5c0.2-2.5,1.5-5.5,4.6-7.6
	c0.9-0.7,2.6-1.7,5.2-3.2c1.8-1,3.9-2.2,6.2-3.4c-1.1-1.7-2.3-2.9-3.7-3.7c-2-1.3-4.4-1.8-7-1.8c-2.6,0-5.3,0.6-7.8,1.5
	c-3.6,1.4-10.1,4.7-16.2,7.9v0.3c0,2.1-0.8,4.2-1.9,5.8c-1.2,1.6-2.7,2.9-4.4,4.1c-2.5,1.7-5.4,3-8.5,4.2c0.2,0.3,0.4,0.5,0.7,0.8
	C704.9,274.2,706.7,275.4,709.7,275.4"/>
<path class="st0" d="M751.7,275.4c1.3,0,2.9-0.3,4.9-1.1c5.6-2.2,14.1-4.2,21.9-6.6c0.2-2.5,1.5-5.4,4.6-7.6
	c0.9-0.7,2.6-1.7,5.1-3.2c1.8-1,3.9-2.2,6.1-3.4c-1.1-1.7-2.3-2.9-3.7-3.8c-2-1.3-4.4-1.8-7-1.8c-2.6,0-5.4,0.6-7.8,1.5
	c-3.3,1.3-9.3,4.2-15,7.3c0,0.3,0,0.6,0,0.9c0,2.2-0.9,4.3-2.1,6c-1.2,1.7-2.9,3-4.7,4.2c-2.6,1.7-5.7,3.1-9,4.3
	c0.1,0.1,0.3,0.3,0.4,0.5C747,274.2,748.8,275.4,751.7,275.4"/>
<path class="st0" d="M793.9,275.4c1.3,0,2.9-0.3,4.9-1.1c0.9-0.4,2-0.7,3.2-1.1v-11c-0.3,0.5-0.6,1-1,1.5c-1.3,1.6-2.9,3-4.7,4.1
	c-2.6,1.7-5.6,3.1-9,4.3c0.1,0.2,0.3,0.3,0.4,0.5C789.2,274.2,791,275.4,793.9,275.4"/>
</svg>
